<svg width="100" height="100" viewBox="0 0 100 100" fill="none" xmlns="http://www.w3.org/2000/svg">
<path d="M54.3541 51.5589L55.724 51.2058C56.0618 51.4885 56.414 51.7536 56.7791 52C58.0695 52.7852 58.0753 52.7756 57.1945 54.2566C57.5942 54.398 58.0045 54.5074 58.4215 54.5839C60.7194 54.8182 62.6042 56.1163 64.604 57.0665C65.3317 57.5801 65.9014 58.2867 66.249 59.1068C68.1432 62.4718 67.3917 66.4052 63.8503 68.0948C61.689 69.126 59.4528 70.0005 57.2485 70.9412C56.7894 71.1372 56.3226 71.3151 55.7852 71.5311C55.7852 72.6499 55.7131 73.7562 55.7985 74.8501C56.0765 78.4091 56.4367 81.9617 56.7158 85.5206C56.8685 87.4678 56.8978 89.4245 57.0261 91.374C57.1179 92.3823 56.8931 93.3942 56.3827 94.2687C55.8724 95.1432 55.102 95.8368 54.1789 96.2528C52.8987 96.9403 51.5384 97.4671 50.1291 97.8212C46.9098 98.5339 43.6271 98.9221 40.3304 98.98C36.5856 98.9974 32.8543 98.5297 29.2297 97.5887C27.4123 97.1887 25.7846 95.8236 24.1416 94.7836C23.8359 94.5321 23.5996 94.2066 23.4551 93.838C23.3106 93.4695 23.2628 93.0701 23.3162 92.6778C23.3237 90.2717 23.3397 87.8647 23.2844 85.4596C23.1868 81.2152 23.0078 76.9726 22.9349 72.728C22.9435 72.3653 22.8087 72.0139 22.5596 71.7502C22.3105 71.4865 21.9674 71.3317 21.6049 71.3196C19.4773 70.8153 17.467 69.9052 15.6842 68.6392C14.9804 68.0938 14.3479 67.4622 13.8014 66.7592C13.4558 66.3193 13.2129 65.8077 13.0906 65.2617C12.9684 64.7158 12.9698 64.1494 13.0949 63.6041C13.2424 61.8205 13.8693 60.1099 14.9093 58.6534C15.0196 58.4596 15.1405 58.2719 15.2713 58.0913C17.2358 56.245 19.3172 54.5334 22.0091 53.9128C24.0761 53.4362 26.1911 53.1634 28.2903 52.8351C28.7889 52.7937 29.2898 52.7905 29.7889 52.8256C31.0721 52.8259 32.3554 52.8257 33.668 52.8257C33.9484 52.3188 34.2224 51.8233 34.5938 51.1519C34.9902 51.7424 35.2532 52.1341 35.5288 52.5448C37.5979 52.5448 39.6646 52.5447 41.7291 52.5447C42.1195 52.5208 42.511 52.5227 42.9011 52.5503C44.2515 52.7305 45.4836 52.7063 45.9942 51.0994C46.0824 51.0409 46.1842 51.0061 46.2897 50.9983C46.4506 51.3585 46.6877 51.6795 46.9846 51.9393C47.2815 52.1991 47.6312 52.3915 48.0095 52.5032C48.3879 52.6149 48.7859 52.6433 49.1763 52.5864C49.5667 52.5295 49.9401 52.3887 50.2709 52.1737C51.2823 51.6025 51.4355 50.4402 51.7585 49.4776C51.9952 48.7721 51.9624 47.911 52.9257 47.9607C53.8546 48.0087 53.9152 48.8584 54.0097 49.5984C54.0855 50.1929 54.2149 50.7805 54.3541 51.5589ZM48.8764 64.0782L48.8895 64.0466L48.9568 64.6444C49.7172 64.5842 50.4701 64.4515 51.2053 64.2482C51.5126 64.0185 51.7508 63.7086 51.8936 63.3525C51.5155 63.2039 51.1705 62.982 50.8785 62.6996C50.9274 62.206 51.1139 61.736 51.4168 61.3433C51.738 61.2105 52.0858 61.1548 52.4325 61.1804C52.5257 61.0584 52.5934 60.9189 52.6316 60.7702L51.4049 59.9949C51.8105 59.4333 52.1652 58.9423 52.5438 58.4182L54.0106 59.5575C53.9188 59.9581 53.82 60.278 53.7784 60.6051C53.7578 60.8936 53.7553 61.1831 53.7709 61.4719C54.0492 60.9915 54.2141 60.4539 54.2531 59.9001C54.304 59.7409 54.3447 59.5786 54.3749 59.4143C54.3655 59.1785 54.2981 58.9486 54.1786 58.7451C54.0591 58.5415 53.8913 58.3706 53.6899 58.2474C53.4886 58.1243 53.26 58.0527 53.0244 58.039C52.7888 58.0252 52.5534 58.0699 52.3391 58.1689C51.9477 58.3813 51.6084 58.6781 51.3458 59.0378C50.74 59.8416 50.0626 60.321 48.9838 59.7119C48.6183 60.5709 48.511 61.5178 48.675 62.4368C48.7593 62.9813 48.8104 63.5309 48.8764 64.0782ZM43.5382 64.7426L43.5897 65.6147L43.8977 65.7551C44.5588 64.841 45.2199 63.9272 45.8809 63.0136C45.9368 63.7559 45.9928 64.4982 46.0646 65.4512L47.8206 64.8788L47.677 62.8026C47.3024 63.4068 47.0668 63.7869 46.7637 64.2757L45.8615 63.0309L45.8135 62.3413C46.6802 61.2859 46.7953 60.7553 46.4159 59.7587C46.201 60.47 45.9696 61.236 45.7382 62.002C46.0726 58.335 46.0726 58.335 46.9805 57.7591C47.1593 58.1928 47.33 58.6069 47.5365 59.1079C48.4245 58.4961 48.13 57.8241 47.971 57.052H45.8907C45.5565 57.7334 45.8387 58.565 45.0528 58.8462C43.8982 58.3887 44.9006 57.4436 44.6277 56.8881C44.0577 56.8298 43.5957 56.8082 43.1432 56.7312C42.0926 56.5524 41.8518 56.7916 42.0281 57.8847C42.2512 59.2686 42.2512 59.2686 40.859 60.1261C41.6637 61.805 39.7316 62.3935 39.3067 63.6826C39.1482 64.1634 38.409 64.0361 38.2584 63.2402L37.8556 64.7313C37.746 64.7985 37.6248 64.8448 37.4983 64.8678C36.999 64.8077 36.5053 64.8523 36.6265 65.4924C36.6985 65.6495 36.8088 65.786 36.9475 65.8892C37.0861 65.9924 37.2485 66.059 37.4197 66.0828C38.0769 66.0408 38.7292 65.9409 39.3689 65.7844C39.6058 65.7044 39.8493 65.6454 40.0966 65.6081C40.4195 65.7082 40.759 65.7429 41.0954 65.7101C41.3137 65.4045 41.4213 65.0337 41.4005 64.6587C41.4239 64.2208 41.2901 63.7754 41.3047 63.3359C41.3851 62.991 41.5098 62.658 41.6757 62.3452C42.1524 63.5883 41.5295 64.7353 42.3254 65.6949C42.7453 65.3137 43.0971 64.9942 43.4489 64.6748L43.5382 64.7426ZM24.3471 63.0389C23.229 63.3682 23.4101 62.3202 23.282 61.8653C23.1741 61.1713 23.1584 60.4662 23.2352 59.7681L22.8636 59.6997C22.5175 60.0976 22.272 60.5728 22.1478 61.0853C22.0236 61.5979 22.0243 62.1327 22.1498 62.6449C22.3668 63.6827 23.2574 64.0588 24.5123 64.3721C24.4288 63.7833 24.3746 63.4017 24.3204 63.0201C25.3419 63.1149 24.9486 64.0423 25.2257 64.5658C27.1934 65.9359 33.0786 66.2172 35.7399 65.8574C35.796 65.5095 35.7604 65.153 35.6367 64.823C35.513 64.493 35.3055 64.2009 35.0345 63.9755C34.843 64.2315 34.7254 64.3887 34.4275 64.787C34.5157 63.7171 33.8746 62.8132 35.0218 62.1417C35.2874 62.7213 35.5309 63.2529 35.7745 63.7844C35.7577 62.3796 36.7139 60.9149 35.5325 59.7348L36.788 57.9916C36.9739 58.1183 37.1106 58.3052 37.175 58.5208C37.2394 58.7365 37.2276 58.9677 37.1416 59.1756C36.9579 60.2617 36.8279 61.358 36.7205 62.4544C36.8045 62.6416 36.9361 62.8035 37.1022 62.9239C37.3733 61.9745 37.6168 61.1191 37.8623 60.2643C37.9285 60.115 37.976 59.9582 38.0039 59.7974C38.0492 57.5552 37.168 56.6749 34.9203 56.7325C34.4923 56.7435 34.0663 56.8369 33.5735 56.9008C33.5981 58.206 33.1429 59.4071 33.9521 60.5577C34.7139 61.6409 34.4996 62.2528 33.2396 63.0191C33.1954 63.6928 33.1509 64.371 33.1064 65.0492C32.696 64.5473 32.4224 63.9478 32.312 63.3089C32.2017 62.67 32.2584 62.0134 32.4766 61.4029C32.725 59.8445 32.781 58.2615 32.6433 56.6894L30.0654 57.5297C29.1296 56.4983 28.1399 57.5821 27.2496 57.701C26.7084 58.6849 28.3584 59.4594 27.1434 60.4539C26.6468 59.6643 26.1862 58.9319 25.6612 58.0972L24.0756 58.7891C24.2527 58.9085 24.4182 59.0445 24.5697 59.1951C24.0974 60.1078 25.163 61.2423 24.1474 62.104C24.1419 62.4268 24.2102 62.7465 24.3471 63.0389ZM50.6046 53.8717C50.6662 55.0523 50.72 56.0831 50.7838 57.3035C51.2745 56.9721 51.7956 56.6883 52.3403 56.456C52.8256 56.3381 53.3215 56.2696 53.8206 56.2515C54.3942 55.2386 54.8889 54.3651 55.4823 53.3173C54.7256 53.2509 53.8467 53.4294 53.437 53.0713C53.025 52.4723 52.7487 51.7906 52.6275 51.0738C51.2802 53.6399 51.2802 53.6399 50.6046 53.8717ZM39.6901 56.7662C38.8797 58.4968 38.6618 60.4461 39.0701 62.313C40.4624 60.8156 40.5864 58.9368 40.7324 57.0686C40.4611 56.9792 40.3061 56.9225 40.1478 56.8774C39.994 56.8335 39.8367 56.8014 39.6901 56.7662ZM49.1326 57.6053L48.7866 57.5771V58.3982L49.0389 58.4031L49.1326 57.6053ZM53.1323 62.4873L52.7241 62.5007L52.7877 63.3832L53.082 63.3714L53.1323 62.4873ZM54.7113 61.4766L54.975 61.5508L55.2071 60.5626L55.0352 60.5154L54.7113 61.4766Z" fill="black"/>
<path d="M85.9517 2C86.399 2.38156 86.7088 2.608 86.9738 2.87834C88.1785 4.10693 88.1691 4.59268 87.0589 5.83452C84.3411 8.87445 81.6331 11.9231 78.9347 14.9803C74.7787 19.6638 70.6226 24.3473 66.4663 29.0306C61.5993 34.5064 56.7295 39.9796 51.8568 45.4503C51.115 46.2845 50.3691 47.1166 49.661 47.9792C48.9585 48.8349 48.6976 48.9334 48.0492 48.444C47.0391 47.6817 46.842 46.8303 47.5102 46.0457C49.9693 43.1583 52.4163 40.2603 54.8992 37.3935C59.2557 32.3637 63.6421 27.3598 68.0034 22.3342C71.7783 17.9842 75.5421 13.6245 79.2947 9.25519C80.7467 7.55952 82.0857 5.76619 83.5592 4.09019C84.3084 3.34007 85.1077 2.64173 85.9517 2ZM53.0456 42.0283L52.8222 41.8066L49.6808 45.3863L49.9582 45.6251C50.9874 44.4262 52.0165 43.2273 53.0456 42.0283Z" fill="black"/>
<path d="M35.4724 38.9061V43.4404C35.3186 43.4426 35.1668 43.4066 35.0304 43.3356C34.894 43.2647 34.7773 43.1609 34.6909 43.0337C34.6045 42.9065 34.551 42.7599 34.5353 42.6069C34.5195 42.454 34.542 42.2995 34.6007 42.1574C34.7352 41.7194 34.7667 41.2563 34.6927 40.8042C34.6188 40.352 34.4414 39.9231 34.1743 39.5508C33.348 40.0239 32.6646 40.7112 32.1961 41.5402C32.1075 41.7153 31.9846 41.8708 31.8345 41.9974C31.6844 42.1239 31.5104 42.2189 31.3228 42.2766C31.1352 42.3343 30.9379 42.3536 30.7426 42.3333C30.5474 42.313 30.3583 42.2535 30.1865 42.1584C30.1249 41.294 30.0589 40.3671 29.9927 39.4401C29.8685 37.6992 29.8177 37.6483 28.1877 37.1284C27.6447 36.9965 27.1253 36.7816 26.6478 36.4912C26.4467 36.3643 26.2741 36.1969 26.1412 35.9996C26.0084 35.8023 25.918 35.5795 25.876 35.3454C25.9559 35.1211 26.0806 34.9155 26.2425 34.7409C26.4043 34.5663 26.6 34.4264 26.8175 34.3297C27.7491 33.8368 28.7121 33.4058 29.7003 33.0396C30.0718 32.9171 30.3825 32.6574 30.5689 32.3136C30.7554 31.9697 30.8035 31.5676 30.7034 31.1894C30.637 30.354 30.6603 29.5138 30.7727 28.6833C30.8064 28.4786 30.8865 28.2844 31.007 28.1155C31.1275 27.9467 31.2851 27.8077 31.4677 27.7093C31.677 27.6932 31.8874 27.721 32.0853 27.7908C32.2833 27.8606 32.4645 27.971 32.6174 28.1148C33.2074 28.6262 33.7402 29.2 34.2063 29.8264C35.0084 30.9084 35.9303 30.9275 37.1487 30.2203C37.3903 30.0803 37.6147 29.9125 37.8173 29.7203C38.2204 29.3356 38.7385 29.0537 39.112 29.5381C39.344 29.959 39.4036 30.4535 39.2784 30.9175C39.0981 31.3234 38.8505 31.696 38.5461 32.0194C37.4492 33.6482 37.5718 34.5488 39.1879 35.6827C39.4955 35.8661 39.7617 36.1114 39.9696 36.403C40.1775 36.6946 40.3226 37.0262 40.3958 37.3768C40.6135 38.4708 40.3064 38.9535 39.1753 38.998C38.5647 39.022 37.9503 38.9283 37.3368 38.9097C36.7847 38.8929 36.2316 38.9061 35.4724 38.9061ZM31.8146 39.3094C32.1495 39.1003 32.4476 38.8372 32.6967 38.5309C33.4042 37.1673 34.5469 36.9489 35.9347 37.0677C36.5275 37.1184 37.2226 37.4607 37.8872 36.8584C37.4716 36.31 37.0135 35.7952 36.5169 35.3189C36.3364 35.211 36.1814 35.0652 36.0628 34.8915C35.9442 34.7178 35.8648 34.5204 35.83 34.3129C35.7952 34.1055 35.806 33.893 35.8614 33.6901C35.9169 33.4872 36.0158 33.2988 36.1513 33.1379C36.2611 32.8377 36.3351 32.5255 36.3716 32.2079C34.4727 33.273 33.7134 31.8085 32.742 30.8969C31.6722 31.8607 32.8192 32.8746 32.4368 33.9402L29.6912 34.9637C31.8199 35.8039 31.043 37.8717 31.8146 39.3094Z" fill="black"/>
<path d="M22.1729 49.6487C22.9096 50.654 23.7931 51.2656 23.6479 52.6781C22.8403 52.0866 22.1825 51.6047 21.4248 51.0497C21.1852 51.672 20.9122 52.2808 20.6069 52.8736C19.9985 53.9042 19.1584 53.8795 18.5723 52.8544C18.5406 52.8081 18.5183 52.7559 18.5066 52.701C18.274 50.6491 16.7809 50.2033 15.0863 50.0074C14.864 49.9849 14.6444 49.9412 14.4303 49.8771C13.92 49.7153 13.1386 49.7019 13.2682 48.9631C13.4512 48.464 13.8029 48.0445 14.2623 47.7771C15.2101 47.1176 16.2254 46.5552 17.3213 45.8876C16.9803 44.6439 16.6326 43.5387 16.3937 42.4105C16.3482 42.2124 16.346 42.0068 16.3872 41.8077C16.4285 41.6087 16.5123 41.4209 16.6328 41.2573C16.7332 41.1792 16.8504 41.1257 16.9752 41.1011C17.0999 41.0765 17.2287 41.0814 17.3512 41.1155C17.4737 41.1496 17.5865 41.212 17.6806 41.2975C17.7746 41.383 17.8474 41.4894 17.8929 41.6081C18.0408 41.8435 18.2118 42.0635 18.4035 42.2647C18.7376 42.6441 19.2024 42.8836 19.7052 42.9356C20.2081 42.9876 20.712 42.8482 21.1167 42.5453C21.8269 42.1092 22.5206 41.6438 23.2478 41.2385C23.4707 41.0223 23.7592 40.8864 24.0677 40.8522C24.3763 40.818 24.6876 40.8874 24.9524 41.0495C25.5798 41.5517 25.2987 42.1477 25.0457 42.7205C24.8202 43.231 24.6062 43.7476 24.3573 44.2466C24.1066 44.6231 24.009 45.081 24.0842 45.527C24.1595 45.973 24.402 46.3736 24.7624 46.647C25.2024 46.9914 25.5922 47.3955 25.9207 47.8475C26.1955 48.2285 26.3297 48.693 26.3004 49.1619C26.1599 49.3089 25.9911 49.4259 25.8041 49.5058C25.6171 49.5858 25.4159 49.627 25.2125 49.6271C24.2713 49.6941 23.322 49.6487 22.1729 49.6487ZM18.7282 44.3449C18.6497 46.7852 18.6497 46.7852 16.6491 48.4379C18.2502 48.4899 18.8447 49.7986 19.7951 50.8364C19.9568 50.497 20.0952 50.147 20.2091 49.7887C20.5479 48.3097 20.7196 48.1473 22.1426 48.0068C22.6006 47.9615 23.0549 47.8771 23.7421 47.7769C23.0109 47.1672 22.5151 46.754 22.0268 46.3469C22.3998 45.3387 22.7412 44.416 23.0826 43.4932C21.5932 44.245 20.5026 45.6949 18.7282 44.3449Z" fill="black"/>
<path d="M45.5905 48.4784C46.062 47.9064 46.2602 47.6599 46.4683 47.4221C46.5767 47.4027 46.6875 47.4015 46.7962 47.4185V49.0618C45.4097 49.7443 44.0616 49.389 42.5163 48.8496C42.6574 49.3702 42.758 49.9009 42.8172 50.437C42.8282 50.5915 42.8053 50.7464 42.7502 50.8911C42.6952 51.0357 42.6093 51.1667 42.4985 51.2747C42.3494 51.3073 42.1945 51.301 42.0486 51.2565C41.9027 51.2119 41.7707 51.1306 41.6653 51.0204C41.5622 50.8093 41.4085 50.627 41.2178 50.4897C41.0272 50.3525 40.8055 50.2646 40.5726 50.2338C39.6584 50.102 39.4071 49.6396 39.6753 48.6429C39.7958 48.3032 39.7837 47.9305 39.6414 47.5993C39.4991 47.2681 39.237 47.0028 38.9075 46.8565C38.4583 46.572 38.1365 46.1249 38.0092 45.6087C37.9395 44.8553 38.7251 44.7219 39.2926 44.5203C39.6138 44.4251 39.9415 44.3536 40.2731 44.3061C40.5823 44.2779 40.8701 44.1359 41.0806 43.9076C41.2911 43.6793 41.4092 43.3809 41.4122 43.0704C41.4311 42.6879 41.5472 42.3166 41.7495 41.9914C41.8208 41.8357 41.9411 41.7075 42.0921 41.6267C42.2431 41.5458 42.4164 41.5166 42.5855 41.5436C42.7547 41.5706 42.9103 41.6523 43.0286 41.7762C43.1469 41.9 43.2214 42.0592 43.2406 42.2294C43.4363 42.7953 43.5561 43.3874 43.7413 44.0866C44.3354 43.9568 44.806 43.8155 45.2865 43.7572C46.2526 43.64 46.6368 44.198 46.2431 45.0937C45.9456 45.6798 45.6934 46.2878 45.4887 46.9124C45.4515 47.4366 45.4858 47.9634 45.5905 48.4784ZM43.6831 46.9529C44.0559 45.5706 42.6605 46.2431 42.3482 45.6413C41.9606 45.5872 41.5661 45.6093 41.1869 45.7063C41.4131 46.3246 41.5594 46.7245 41.6827 47.0613L43.6831 46.9529Z" fill="black"/>
<path d="M47.046 32.5834C47.2924 31.7539 47.579 30.9247 47.7764 30.0749C47.8981 29.5507 48.0384 28.9587 48.6221 29.0462C48.8453 29.1095 49.049 29.2281 49.2143 29.3909C49.3796 29.5537 49.5013 29.7555 49.568 29.9777C49.5878 31.5383 50.4234 32.1293 51.8272 32.3437C52.0274 32.4046 52.212 32.5083 52.368 32.6477C52.5241 32.7871 52.6479 32.9588 52.7309 33.1509C52.9594 33.7256 52.525 34.0403 52.0017 34.2452C51.8095 34.2924 51.631 34.3837 51.4803 34.5119C51.3296 34.6401 51.2108 34.8016 51.1334 34.9837C51.0559 35.1657 51.0219 35.3633 51.0341 35.5608C51.0463 35.7583 51.1043 35.9502 51.2035 36.1214C51.2957 36.3856 51.3339 36.6657 51.3159 36.945C51.3374 37.0995 51.3185 37.257 51.261 37.4021C51.2036 37.5472 51.1095 37.6749 50.9879 37.7728C50.8664 37.8707 50.7216 37.9354 50.5676 37.9607C50.4136 37.986 50.2557 37.9709 50.1093 37.917C49.7904 37.8224 49.4766 37.7114 49.1691 37.5845C48.8398 37.4329 48.471 37.3894 48.1155 37.4603C47.76 37.5312 47.436 37.7128 47.1901 37.9792C46.7921 38.2202 46.3462 38.371 45.8836 38.4211C45.693 37.9956 45.5638 37.5451 45.5 37.0832C45.5841 36.6215 45.5523 36.1462 45.4075 35.6998C45.2627 35.2534 45.0095 34.8499 44.6705 34.5254C43.9159 33.8816 44.2323 33.1216 45.2316 32.8042C45.5003 32.7326 45.775 32.6858 46.0522 32.6644C46.3238 32.6311 46.5981 32.6188 47.046 32.5834ZM49.324 33.6459C47.2831 33.7418 47.0241 34.0713 47.5755 35.6531L49.1414 35.1541C49.2015 34.6571 49.2544 34.221 49.324 33.6459Z" fill="black"/>
<path d="M57.9093 47.4767C57.6167 48.4373 57.3429 49.3836 57.0192 50.3125C56.7982 50.3748 56.5673 50.3948 56.3388 50.3713C56.1831 49.4589 56.7556 48.4546 55.7032 47.7673C55.4695 47.6147 55.7634 46.6541 55.8253 45.9393C55.4436 45.7908 55.073 45.6153 54.7161 45.4143C54.5724 45.3529 54.4514 45.2483 54.3698 45.1151C54.2882 44.9818 54.25 44.8265 54.2605 44.6707C54.271 44.5148 54.3297 44.366 54.4285 44.2449C54.5272 44.1239 54.6612 44.0365 54.8118 43.9949C55.3885 43.7787 55.9126 43.4425 56.3495 43.0084C56.7864 42.5743 57.1261 42.0523 57.3459 41.477C57.4342 41.384 57.5398 41.309 57.6568 41.2565C58.7796 41.4489 58.4965 42.4895 58.7959 43.2908C59.0585 43.3495 59.3685 43.4198 59.679 43.4881C60.7811 43.7305 60.9264 44.045 60.4404 45.1014C60.2763 45.4484 60.1303 45.8038 60.003 46.1659C59.4747 47.7212 59.3871 47.7746 57.9093 47.4767Z" fill="black"/>
<path d="M48.1988 38.0963C49.1365 38.8132 48.6762 39.5944 48.4933 40.3077C48.4159 40.4111 48.3161 40.4957 48.2014 40.555C48.0866 40.6144 47.9599 40.6469 47.8308 40.6502C47.7297 40.62 47.6382 40.5641 47.5651 40.488C47.4921 40.4119 47.44 40.3181 47.4141 40.2159C47.4681 39.485 47.2176 38.6233 48.1988 38.0963Z" fill="black"/>
<path d="M34.9941 47.1662C35.561 48.131 35.0433 48.8779 35.1834 49.7252C33.8024 49.191 33.7732 48.393 34.9941 47.1662Z" fill="black"/>
<path d="M34.4735 46.6582C34.3941 46.0796 34.3641 45.4954 34.3838 44.9117C34.5121 44.6426 34.7036 44.4085 34.9418 44.2292C35.2434 44.4004 35.4936 44.6494 35.6662 44.9502C35.7234 45.3334 35.6316 45.7239 35.4098 46.0416C35.188 46.3593 34.8529 46.5799 34.4735 46.6582Z" fill="black"/>
<path d="M47.0122 44.3055C46.7763 44.0094 46.6677 43.6316 46.7102 43.2554C46.7528 42.8791 46.9431 42.5352 47.2392 42.2992C48.0808 43.1178 48.0808 43.1178 47.0122 44.3055Z" fill="black"/>
<path d="M30.6343 63.1291C30.0525 64.1847 29.1015 63.5026 28.2387 63.721C28.0473 63.2266 27.8789 62.7917 27.7041 62.3402C28.579 61.6371 29.045 62.3616 29.6288 62.7988L30.7996 62.0199V62.9797C30.7449 63.0299 30.6898 63.0797 30.6343 63.1291Z" fill="black"/>
<path d="M34.393 57.1296C35.1954 58.1685 35.1302 58.972 34.2365 60.2014C33.4201 59.2124 33.4395 58.4394 34.393 57.1296Z" fill="black"/>
<path d="M25.7169 61.2991C25.6762 60.661 25.6355 60.0229 25.5859 59.2474C26.103 60.1003 26.103 60.1003 25.7169 61.2991Z" fill="black"/>
<path d="M31.9467 59.2263L31.6982 57.8375L32.1235 57.7401L32.4839 59.0917L31.9467 59.2263Z" fill="black"/>
<path d="M28.3927 59.4442C28.4747 59.8974 28.5567 60.3507 28.6808 61.037C27.8529 60.464 27.9332 59.94 28.3927 59.4442Z" fill="black"/>
<path d="M30.799 62.9796C30.958 63.0092 31.1061 63.0811 31.2275 63.1878C31.2665 63.4146 31.2712 63.6459 31.2414 63.874C31.0587 63.8131 30.8879 63.721 30.7367 63.6018C30.6665 63.4541 30.6314 63.2923 30.6339 63.1289C30.6892 63.0797 30.7442 63.03 30.799 62.9796Z" fill="black"/>
<path d="M44.3648 63.4362C44.3323 62.9849 44.2998 62.5336 44.2684 62.0974C43.412 62.4952 43.2604 61.6681 42.8486 61.3091L44.1293 59.3022L45.0984 60.1092C44.4399 61.1142 45.8018 62.3834 44.3648 63.4362Z" fill="black"/>
<path d="M39.6434 64.583L38.8709 65.5695C38.7425 65.4382 38.6395 65.2842 38.5674 65.1153C38.7572 64.7765 38.9934 64.4637 39.2142 64.1422L39.6434 64.583Z" fill="black"/>
<path d="M43.4487 64.6748L43.3174 63.4353L43.725 63.4151C43.8438 63.6262 43.8899 63.8706 43.856 64.1105C43.8222 64.3503 43.7104 64.5724 43.5378 64.7424L43.4487 64.6748Z" fill="black"/>
<path d="M48.876 64.0782C49.1461 63.5347 49.4162 62.9913 49.715 62.39C49.992 62.823 50.2668 63.2525 50.5603 63.7113C50.3634 63.9516 50.0893 64.1163 49.7846 64.1774C49.48 64.2385 49.1636 64.1922 48.8892 64.0464L48.876 64.0782Z" fill="black"/>
</svg>
