<svg width="100" height="100" viewBox="0 0 100 100" fill="none" xmlns="http://www.w3.org/2000/svg">
<g clip-path="url(#clip0_6406_7018)">
<path d="M43.4001 30.4C42.7001 27.3 42.9001 24 41.6001 21.1C41.4001 20.6 41.3001 20.1 41.1001 19.6C40.6001 18.6 41.0001 18 42.0001 17.7C42.6001 17.5 43.3001 17.3 43.9001 17.2C44.7001 17 45.0001 17.6 45.1001 18.2C45.2001 18.8 45.3001 19.2 46.1001 19.1C46.9001 18.9 47.9001 19.3 48.1001 18.1C48.3001 17.3 48.4001 16.4 48.5001 15.6C48.5001 15.1 48.8001 14.7 49.2001 14.8C50.9001 15.3 52.3001 14.5 53.9001 14.3C54.4001 14 55.0001 14 55.7001 14C55.9001 14 56.2001 14 56.3001 14.4C56.3001 14.7 56.1001 14.8 55.9001 14.9C54.6001 15.7 54.1001 17.2 54.2001 18.7C54.3001 20.3 54.1001 21.9 54.1001 23.5C54.1001 24.8 54.3001 26 54.3001 27.3C54.3001 27.7 54.6001 27.9 55.0001 27.9C55.5001 27.9 56.0001 28 56.5001 28.1C56.9001 25.3 56.7001 22.5 56.8001 19.7C56.9001 17.4 56.8001 15 56.6001 12.6C56.4001 10.7 57.0001 10 59.0001 9.9C60.0001 9.9 61.0001 10 62.0001 10.1C63.1001 10.2 63.3001 10.8 63.3001 11.7C63.3001 12.5 63.1001 13.4 63.0001 14.2C62.9001 14.9 63.2001 15.3 63.9001 15.4C65.2001 15.7 65.6001 16.3 65.4001 17.7C65.0001 19.8 64.5001 21.9 64.0001 24.1C63.9001 24.3 63.8001 24.6 63.9001 24.9C64.0001 24.8 64.2001 24.8 64.3001 24.6C65.7001 22.1 67.8001 20.2 69.4001 17.9C70.1001 16.9 70.9001 16 71.5001 14.9C71.8001 14.4 72.2001 14.3 72.8001 14.4C74.2001 14.6 75.6001 14.5 77.0001 14.2C77.5001 14.1 78.0001 13.9 78.4001 14.3C78.9001 14.8 78.5001 15.2 78.4001 15.7C77.7001 18.6 77.1001 21.6 76.3001 24.5C76.0001 25.8 75.9001 27.1 75.4001 28.4C75.2001 29 75.3001 29.5 75.9001 30.1C76.9001 31.1 76.3001 32.5 75.9001 33.6C75.0001 36.4 74.3001 39.2 73.8001 42.1C73.7001 42.9 74.0001 43.3 74.8001 43.6C79.0001 44.8 82.2001 47.3 84.7001 50.8C85.3001 51.6 86.0001 52.3 86.4001 53.1C87.0001 54.3 88.1001 54.8 89.3001 55.2C91.6001 56 93.2001 57.6 94.4001 59.6C94.8001 60.3 95.1001 61.2 95.6001 61.9C96.9001 63.9 96.4001 66.1 96.4001 68.3C96.4001 70.5 95.9001 72.7 94.7001 74.7C93.4001 76.9 91.7001 78.7 89.7001 80.4C87.2001 82.5 84.4001 84.1 81.5001 85.6C80.1001 86.3 78.5001 86.8 77.2001 87.6C75.3001 88.7 73.3001 89.4 71.3001 90C68.2001 90.8 65.1001 91.6 61.9001 92.1C57.5001 92.8 53.0001 92.5 48.6001 92.6C40.8001 92.8 33.3001 91.3 25.8001 89.4C24.0001 88.9 22.1001 88.4 20.5001 87.4C16.3001 84.5 12.6001 81.1 12.8001 75.4C12.9001 72.7 13.3001 70.1 15.3001 67.9C17.7001 65.3 20.2001 62.8 23.6001 61.4C24.3001 61.1 24.5001 60.8 24.3001 60C23.7001 57.5 23.5001 54.9 22.9001 52.3C22.0001 48.1 21.5001 43.8 20.3001 39.7C20.1001 39.1 20.1001 38.5 19.2001 38.5C18.4001 38.4 18.2001 37.6 18.0001 36.9C17.8001 36.2 18.3001 35.9 18.8001 35.6C19.5001 35.2 19.8001 34.6 19.9001 33.8C20.6001 30.8 21.8001 28.1 23.8001 25.7C24.9001 24.3 26.1001 23.2 27.7001 22.5C28.4001 22.2 28.2001 21.6 28.1001 21.1C27.9001 18.8 27.6001 16.5 27.1001 14.3C26.9001 13.5 26.5001 12.7 26.2001 12C26.0001 11.4 25.5001 11.6 25.0001 11.8C24.0001 12.3 23.2001 13.2 22.4001 14C19.2001 17.1 16.6001 20.7 13.9001 24.3C11.7001 27.2 9.70014 30.3 7.20014 33C6.50014 33.8 5.80014 34.5 5.10014 35.2C4.40014 35.9 3.70014 35.9 3.00014 35.2C2.40014 34.6 1.70014 34.3 2.90014 33.2C4.70014 31.5 5.90014 29.2 7.60014 27.3C8.80014 26 9.70014 24.5 10.8001 23.1C11.7001 22 12.6001 20.9 13.5001 19.8C15.3001 17.6 17.0001 15.3 19.0001 13.2C20.8001 11.3 22.5001 9 25.2001 8.2C26.2001 7.9 27.3001 7.7 28.1001 8.2C28.9001 8.7 29.4001 9.8 29.5001 10.8C29.9001 13.4 30.4001 16 31.1001 18.5C31.4001 19.5 31.5001 20.8 32.1001 21.5C32.8001 22.3 34.1001 22 35.2001 22.3C37.8001 23.1 39.7001 24.7 41.3001 26.6C42.1001 27.5 42.4001 28.7 42.9001 29.8C43.2001 30.1 43.3001 30.2 43.4001 30.4ZM53.2001 45.3C52.8001 45.2 52.2001 44.7 52.1001 44.9C51.7001 45.9 50.4001 46.2 50.5001 47.5C50.9001 47.3 51.1001 46.8 51.7001 46.9C51.9001 47 52.0001 47 52.2001 47.1H52.3001C52.3001 47.1 52.4001 47.1 52.4001 47.2C52.2001 47.9 51.6001 48.1 51.0001 48.3C50.6001 48.4 50.7001 48.6 50.8001 48.8C50.9001 49.1 51.2001 49.2 51.4001 49C51.8001 48.3 52.6001 48.3 53.2001 47.8C56.3001 44.7 60.4001 43.7 64.5001 42.9C66.2001 42.5 68.1001 42.4 69.9001 42.6C70.6001 42.7 71.2001 42.8 71.9001 42.8C72.8001 42.9 72.6001 42 72.8001 41.5C72.9001 41.2 72.7001 41 72.4001 41.1C70.7001 41.6 69.0001 41.3 67.3001 41.6C66.3001 41.8 65.3001 41.8 64.3001 41.9C65.9001 40.7 67.9001 40.9 69.8001 40.2C69.0001 39.7 68.4001 40.1 67.5001 40C68.9001 39.1 70.3001 39 71.6001 38.3C71.6001 38.7 71.6001 38.9 71.6001 39.1C71.7001 39.4 70.7001 39.5 71.3001 39.9C71.8001 40.3 72.4001 40.1 73.0001 40.1C73.4001 40.1 73.3001 39.6 73.3001 39.3C73.2001 38.1 73.8001 37 74.0001 35.9C74.1001 35.3 74.2001 34.8 74.3001 34.2C74.3001 33.9 74.2001 33.7 73.9001 33.7C73.7001 33.7 73.2001 33.6 73.3001 33.9C73.4001 35.2 72.3001 35.1 71.6001 35.3C70.6001 35.6 69.4001 35.9 68.5001 35.6C67.5001 35.2 67.1001 35.9 66.4001 36H66.3001C65.9001 35.1 65.1001 35.7 64.4001 35.7C66.6001 34.1 69.7001 35.3 71.5001 33.2C70.6001 32.2 69.1001 32.9 68.0001 32.1C67.8001 31.9 67.3001 31.9 67.1001 32.4C66.8001 33 66.0001 33.2 65.6001 32.8C65.1001 32.3 64.5001 32.4 63.9001 32.1C64.5001 31.7 65.1001 31.6 65.5001 32C66.1001 32.6 66.6001 32.4 67.1001 31.9C67.8001 31.3 68.5001 30.9 69.5001 31.5C69.8001 31.7 70.1001 31.7 70.2001 31.3C70.4001 30.7 69.8001 30.9 69.6001 30.9C65.3001 30.6 61.0001 29.6 56.7001 29.5C54.4001 29.5 52.2001 28.3 49.8001 29.3C48.7001 29.7 47.3001 29.7 46.0001 29.6C44.4001 29.5 44.3001 29.7 45.0001 31.1C45.2001 31.6 45.5001 32.1 45.6001 32.6C45.8001 33.1 46.1001 33.3 46.6001 33.2C47.9001 32.7 49.2001 33.1 50.5001 32.8C51.2001 32.7 52.1001 32.4 53.0001 33.1C51.3001 33.2 49.8001 33.4 48.3001 33.5C47.7001 33.6 47.0001 33.6 46.6001 34.1C46.3001 34.5 46.8001 34.9 46.9001 35.3C47.0001 35.6 46.9001 35.8 46.9001 36C46.8001 36.9 47.5001 38.7 47.9001 38.6C48.7001 38.4 49.5001 38.5 50.3001 38C49.7001 37.5 48.8001 38.2 48.3001 37.4C50.9001 36.8 53.6001 37.8 56.1001 36.6C56.3001 36.5 56.5001 36.6 56.6001 36.9C56.7001 37.2 56.5001 37.4 56.2001 37.4C55.5001 37.6 54.8001 37.9 54.1001 37.9C52.0001 37.9 50.1001 38.9 48.1001 39.2C47.8001 39.2 47.6001 39.4 47.8001 39.7C47.9001 39.9 47.8001 40.5 48.4001 40.3C48.7001 40.2 49.0001 40.1 49.3001 40.2C49.1001 40.4 49.7001 40.9 49.1001 40.9C48.4001 41 48.6001 41.5 48.7001 41.9C48.9001 42.5 49.2001 42.1 49.5001 42C50.2001 41.8 50.9001 41.6 51.7001 41.4C52.6001 41.2 53.6001 40.9 54.5001 40.7C55.2001 40.5 55.5001 39.8 56.3001 39.7C56.8001 39.7 57.5001 39.4 57.7001 40C57.9001 40.7 57.1001 40.7 56.7001 40.8C55.5001 41.1 54.3001 41.3 53.2001 41.7C53.3001 42 54.0001 41.7 53.9001 42.5C52.8001 42.5 51.7001 43.1 50.5001 43.1C49.1001 43.1 49.1001 43 49.6001 44.4C49.7001 44.7 49.8001 45 50.0001 45.3C50.6001 46.6 50.6001 46.6 51.7001 45.6C51.5001 45.2 50.9001 45.6 50.8001 45.1C52.4001 43.8 54.6001 43.6 56.3001 42.4C55.7001 41.9 55.2001 42.6 54.7001 42.2C54.8001 41.9 55.1001 41.8 55.3001 41.8C56.6001 41.6 58.0001 42.3 59.3001 41.3C59.5001 41.1 60.0001 41.2 60.1001 41.7C60.2001 42.1 59.8001 42.2 59.5001 42.2C58.5001 42.5 57.5001 42.9 56.5001 43.6C56.8001 43.6 56.9001 43.5 57.0001 43.5C57.3001 43.5 57.8001 43.3 57.9001 43.7C58.0001 44.1 57.5001 44.2 57.2001 44.3C56.7001 44.5 56.2001 44.6 55.8001 44.7C55.6001 44.8 55.4001 44.7 55.3001 44.5C55.2001 44.3 55.4001 44.1 55.6001 44C55.8001 43.9 56.1001 43.9 56.0001 43.4C55.4001 43.7 54.9001 43.9 54.3001 44.2C54.1001 44.3 54.0001 44.5 53.9001 44.6C54.8001 44.8 53.2001 44.9 53.2001 45.3ZM25.3001 42.7C25.5001 43.9 25.8001 45.1 26.0001 46.4C26.1001 47 26.5001 46.9 27.0001 47C27.3001 47 27.5001 47 27.5001 46.7C27.5001 46.4 27.3001 45.9 27.2001 46C26.1001 46.4 26.5001 45.5 26.3001 45.1C25.9001 44.3 26.2001 43.4 25.5001 42.7C25.4001 42.2 25.3001 41.7 25.3001 41.2C25.3001 40.1 24.8001 39.8 23.8001 39.9C24.6001 40 24.7001 40.6 24.8001 41.2C24.8001 41.7 24.9001 42.3 25.3001 42.7ZM35.0001 43.1C35.8001 43.8 35.6001 44.7 35.6001 45.6C35.6001 46.8 35.8001 47.9 36.1001 49.1C36.5001 48.8 36.4001 48.6 36.3001 48.4C36.1001 47.1 36.0001 45.7 35.9001 44.4C35.9001 44 35.7001 43.4 36.3001 43.4C36.9001 43.4 36.7001 44 36.7001 44.4C36.7001 44.8 36.7001 45.3 36.7001 46C37.1001 45.3 36.9001 44.8 36.9001 44.4C36.9001 44.1 37.2001 43.8 37.3001 44C37.7001 44.4 38.7001 44.4 38.5001 45.5C38.4001 46.1 38.5001 46.9 38.8001 47.4C39.2001 48.2 38.7001 49.2 39.4001 49.8C39.5001 49.7 39.6001 49.6 39.6001 49.6C39.3001 47.7 38.4001 45.8 38.9001 43.8C39.0001 43.6 38.8001 43.5 38.6001 43.5C37.5001 43.3 36.3001 42.7 35.0001 43.1C35.2001 42.5 34.7001 42.4 34.4001 42.5C33.9001 42.6 34.3001 42.9 34.3001 43.2C34.3001 43.6 34.6001 44.2 34.1001 44.3C33.5001 44.5 33.4001 43.7 33.4001 43.4C33.4001 42 32.5001 41.8 31.4001 41.6C30.7001 41.5 29.9001 41.3 29.2001 41.1C27.2001 40.6 27.2001 40.6 27.4001 42.7C27.5001 44.3 28.5001 45.7 28.6001 47.5C29.0001 47 28.9001 46.8 28.8001 46.5C28.7001 45.2 28.2001 43.9 27.9001 42.6C27.8001 42.3 27.6001 41.6 28.1001 41.5C28.6001 41.4 28.5001 42 28.6001 42.3C28.9001 42.9 28.6001 43.7 29.4001 44.2C29.4001 43.5 29.1001 42.8 29.6001 42.1C30.0001 42.5 30.2001 42.9 30.2001 43.5C30.4001 43.1 30.2001 42.7 30.6001 42.6C31.1001 42.5 31.0001 43 31.1001 43.3C31.2001 43.6 31.2001 44 31.7001 44.2C31.7001 43.8 31.7001 43.5 31.7001 43.1C31.7001 42.9 31.9001 42.7 32.1001 42.7C32.2001 42.7 32.4001 42.9 32.4001 43C32.2001 44.1 33.1001 45 32.8001 46.1C32.7001 46.6 32.8001 47.2 33.1001 47.8C33.3001 48.1 33.5001 48.4 33.9001 48.3C34.4001 48.2 34.1001 47.8 34.1001 47.5C34.1001 46.6 33.5001 45.8 33.9001 44.7C34.9001 45.9 34.1001 47.5 35.2001 48.5C34.8001 47.5 35.0001 46.4 34.8001 45.4C34.9001 44.8 34.4001 44 35.0001 43.1ZM90.1001 57.2C90.3001 58.5 89.9001 59.6 89.4001 60.6C89.1001 61.3 89.2001 61.8 89.7001 62.4C91.0001 63.9 91.0001 64.2 89.0001 65C88.4001 65.2 87.8001 65.4 87.9001 66.2C88.1001 68.3 87.6001 70.3 87.1001 72.3C86.7001 73.8 86.2001 75.4 85.1001 76.6C82.4001 79.4 79.0001 81.1 75.6001 82.6C74.5001 83.1 73.4001 83.7 72.2001 83.5C70.6001 83.3 69.1001 84 67.4001 83.9C65.8001 83.8 64.1001 84.2 62.4001 84.2C58.5001 84 55.1001 82.5 52.0001 80C49.6001 78 48.3001 75.5 47.5001 72.5C47.2001 71.4 47.3001 70.2 46.3001 69.1C46.3001 69.8 46.3001 70.3 46.3001 70.7C46.3001 72 45.6001 72.7 44.4001 73C40.0001 73.8 35.7001 74.5 31.2001 74.1C27.7001 73.8 26.9001 73.2 25.9001 69.7C25.7001 69.1 25.6001 68.6 25.5001 68C25.3001 66.3 24.5001 64.7 24.6001 63C24.7001 62.3 24.1001 62.3 23.5001 62.6C21.1001 63.8 19.0001 65.3 17.3001 67.4C16.4001 68.5 15.1001 69.3 14.7001 70.7C13.5001 74.7 13.2001 78.5 16.0001 82.1C17.8001 84.5 20.0001 86.3 22.7001 87.2C25.8001 88.3 29.1001 89.1 32.4001 89.9C36.7001 91 41.1001 91.4 45.5001 91.6C49.2001 91.8 53.0001 91.6 56.8001 91.5C58.3001 91.5 59.8001 91.5 61.3001 91.1C61.7001 91 62.1001 90.7 62.5001 90.7C64.8001 90.7 66.9001 89.8 69.1001 89.3C69.5001 89.2 70.0001 89.1 70.2001 88.7C70.8001 87.3 72.3001 86.6 73.2001 85.5C73.4001 85.2 73.7001 84.9 74.4001 85.1C73.5001 86.2 72.3001 87 71.4001 88.4C73.3001 87.7 74.9001 87.2 76.5001 86.5C77.3001 86.2 78.4001 85.9 78.6001 85.1C79.0001 83.7 80.3001 83 80.8001 81.6C80.9001 81.2 81.4001 80.8 81.8001 81.2C82.3001 81.6 81.7001 82 81.4001 82.2C80.4001 82.9 79.8001 83.9 79.6001 85.1C80.1001 85.2 80.4001 85 80.7001 84.8C83.2001 83.3 85.9001 82.2 88.2001 80.3C89.9001 78.8 91.5001 77.5 92.7001 75.6C94.4001 73 94.8001 70 95.1001 67C95.4001 64.3 94.3001 62.2 92.7001 60.1C92.5001 60.4 92.4001 60.6 92.2001 61.1C92.1001 60.1 91.0001 59.8 91.2001 59C91.5001 57.6 90.9001 57.5 90.1001 57.2ZM65.6001 61.3C67.8001 61 70.0001 60.6 72.2001 60.3C76.9001 59.8 81.4001 58.4 85.8001 56.9C86.4001 56.7 86.7001 56.5 86.3001 55.8C85.2001 53.7 83.9001 51.7 82.3001 49.9C79.5001 46.8 76.0001 45 72.1001 44.1C68.1001 43.2 64.1001 43.8 60.3001 45C57.9001 45.7 55.9001 47.1 54.0001 48.8C51.5001 51.1 49.1001 53.3 48.0001 56.7C47.7001 57.5 47.9001 57.8 48.6001 58.1C50.2001 58.9 51.9001 59.6 53.6001 60C57.6001 61 61.7001 60.7 65.6001 61.3ZM46.2001 67.5C46.5001 68.2 47.3001 68.4 47.6001 68.3C48.6001 67.9 49.1001 68.5 49.9001 68.8C51.0001 69.2 51.8001 70.1 53.0001 70.4C56.4001 71.2 59.1001 73.3 62.1001 74.7C64.2001 75.7 66.2001 76.9 68.1001 78.3C68.7001 78.7 69.1001 78.8 69.6001 78.2C71.6001 75.9 73.6001 73.6 75.9001 71.5C77.9001 69.6 80.1001 68.3 82.4001 67C84.4001 65.9 86.4001 64.9 88.4001 63.9C88.7001 63.7 89.2001 63.6 88.9001 63.1C88.7001 62.8 88.5001 62.3 88.2001 62.5C87.2001 63.3 85.9001 63.1 85.0001 63.9C83.5001 65.2 81.9001 65.4 80.2001 64.5C79.8001 64.3 79.5001 64.4 79.1001 64.6C78.3001 64.9 78.0001 65.9 77.2001 66.2C75.7001 66.7 74.2001 67.2 72.7001 67.6C69.2001 68.4 65.6001 68.5 62.0001 68.3C59.8001 68.2 57.6001 67.3 55.6001 66.5C54.4001 66 53.9001 66.1 53.2001 67C52.7001 67.6 51.9001 67.9 51.3001 67.5C50.1001 66.5 48.9001 66.7 47.6001 67.3C47.2001 67.5 46.7001 67.4 46.2001 67.5ZM85.9001 72C85.6001 72.1 85.4001 72.1 85.2001 72.1C82.4001 73.5 79.4001 73.9 76.4001 74.4C74.7001 74.7 73.2001 75.2 72.1001 76.7C71.3001 77.8 70.5001 79 69.7001 80.1C69.2001 80.8 68.8001 81.1 68.3001 80.1C68.2001 79.9 67.9001 79.8 67.8001 79.6C66.6001 78.4 65.1001 77.6 63.7001 76.7C62.7001 76 61.6001 75.4 60.5001 75.5C59.2001 75.6 58.1001 75.5 57.2001 74.3C56.9001 75.1 56.4001 75.1 55.6001 75.1C53.8001 75 52.1001 74.1 50.3001 74.1C50.0001 74.1 49.6001 73.7 49.4001 74C49.1001 74.4 49.5001 74.7 49.6001 75C51.3001 78.5 54.4001 80.3 57.6001 82C58.1001 82.2 58.6001 82.4 59.1001 82.5C62.5001 83.2 66.0001 82.7 69.4001 82.3C74.6001 81.8 79.2001 79.5 83.2001 76C84.7001 75.1 85.4001 73.8 85.9001 72ZM43.4001 62.2C44.7001 60.5 45.6001 59.1 45.1001 57.2C44.8001 56.1 45.1001 54.9 45.1001 53.7C45.1001 53.3 45.1001 52.9 44.6001 52.7C41.9001 51.9 39.2001 50.9 36.4001 50.2C32.4001 49.2 28.2001 48.7 24.3001 47.4C23.5001 47.1 23.1001 47.4 23.3001 48.3C23.8001 50.3 24.0001 52.2 24.3001 54.2C24.4001 54.6 24.6001 54.8 25.0001 54.8C29.4001 55.8 33.5001 57.5 37.8001 58.8C39.3001 59.2 40.7001 59.9 42.2001 60.2C43.0001 60.5 44.0001 60.5 43.4001 62.2ZM30.5001 23.1C28.1001 23.2 27.7001 23.4 25.6001 25.2C23.1001 27.3 21.8001 30.1 21.2001 33.3C21.1001 33.9 21.1001 34.3 21.9001 34C24.3001 33.1 26.8001 32.9 29.3001 32.5C33.0001 31.9 36.7001 31.7 40.4001 32.1C40.9001 32.2 41.6001 32.4 41.9001 31.9C42.2001 31.4 41.6001 31 41.4001 30.6C41.3001 30.2 41.1001 29.8 40.9001 29.5C40.1001 28 39.4001 26.5 38.0001 25.4C35.9001 23.5 33.3001 22.9 30.5001 23.1ZM22.2001 37.8C22.4001 38.3 22.7001 38.2 23.0001 38.3C26.4001 39.3 29.9001 40.3 33.3001 41.3C36.6001 42.2 40.0001 42.8 43.3001 43.5C44.6001 43.8 44.6001 43.5 44.6001 42.4C44.5001 40.5 44.0001 38.6 44.0001 36.7C44.0001 35.6 43.5001 35.4 42.6001 35.4C37.4001 35.3 32.3001 36 27.2001 36.5C25.4001 36.6 23.8001 37 22.2001 37.8ZM37.0001 72.8C39.1001 72.7 41.7001 72.3 44.2001 71.7C44.8001 71.5 45.1001 71.3 45.1001 70.6C45.1001 69.9 44.8001 69.6 44.2001 69.4C38.6001 67.5 33.0001 65.5 27.2001 64C25.9001 63.7 25.5001 63.9 25.9001 65.2C26.4001 67.3 27.0001 69.3 27.6001 71.3C27.8001 71.9 28.3001 72 28.8001 72.2C31.4001 72.8 34.0001 72.6 37.0001 72.8ZM44.6001 61.3C44.7001 61.7 45.0001 61.6 45.2001 61.6C46.7001 61.6 46.9001 61.9 46.5001 63.4C46.4001 63.9 46.2001 64.5 46.2001 65C46.2001 65.4 45.5001 65.9 46.0001 66.3C46.5001 66.7 47.1001 66.4 47.7001 66.2C48.5001 65.8 49.3001 65.5 50.2001 65.3C50.6001 65.2 50.9001 65.1 51.0001 65.7C51.2001 66.8 51.9001 66.7 52.7001 66.2C53.0001 66 53.4001 65.8 53.6001 65.5C54.2001 64.7 54.9001 64.8 55.7001 65.3C56.7001 66 57.8001 66.1 58.8001 65.1C59.3001 64.7 60.1001 64.5 60.5001 64C61.1001 63.3 61.7001 63.4 62.3001 63.7C64.0001 64.7 65.6001 64.3 67.2001 63.5C67.6001 63.3 68.0001 63.1 68.5001 63.4C70.1001 64.3 71.6001 63.7 72.4001 61.9C67.6001 62.2 62.9001 62.2 58.2001 61.6C54.6001 61.2 51.0001 60.6 47.7001 58.9C47.4001 58.7 47.1001 58.6 46.8001 59.2C46.1001 60.1 45.7001 61.1 44.6001 61.3ZM72.8001 62C73.9001 62.6 74.8001 63 75.6001 63.6C76.7001 64.4 77.8001 64.2 78.8001 63.5C79.7001 62.9 80.4001 63.1 81.2001 63.5C82.1001 64 83.0001 64.1 83.8001 63.2C84.4001 62.6 85.0001 62.2 85.9001 62.2C86.5001 62.2 87.5001 61.8 87.3001 61.1C87.0001 60.1 87.6001 59.5 88.0001 58.8C88.7001 57.8 88.0001 57.8 87.4001 57.7C87.1001 57.7 86.8001 57.8 86.6001 57.9C85.0001 58.5 83.5001 59.1 81.9001 59.5C79.0001 60.3 76.2001 61.5 72.8001 62ZM45.7001 36.5C45.5001 36.8 45.4001 36.9 45.4001 37C45.8001 41.2 45.8001 45.4 45.8001 49.6C45.8001 51.4 46.2001 53.3 46.1001 55.1C46.1001 55.3 46.2001 55.6 46.4001 55.6C46.7001 55.7 46.8001 55.4 46.9001 55.2C47.2001 54.4 47.6001 53.7 48.2001 53C49.7001 51.4 50.6001 49.7 49.2001 47.6C49.2001 47.5 49.2001 47.4 49.2001 47.4C48.6001 43.6 46.9001 40.2 45.7001 36.5ZM71.4001 24C71.5001 25.5 71.8001 26.9 71.7001 28.4C71.6001 29.2 71.8001 29.7 72.8001 29.8C73.9001 29.9 74.1001 29.4 74.2001 28.6C74.3001 27.8 74.5001 27 74.6001 26.3C75.3001 23 76.0001 19.7 76.7001 16.4C76.7001 16.2 76.8001 15.8 76.6001 15.7C76.1001 15.6 75.5001 15.5 75.0001 15.8C74.8001 15.9 74.8001 16.1 74.9001 16.2C76.0001 17.3 75.0001 17.9 74.3001 18.7C73.0001 20.3 71.2001 21.6 71.4001 24ZM74.0001 17.1C73.7001 16.5 73.0001 16.3 72.5001 15.9C72.1001 15.6 72.0001 15.9 71.7001 16.2C68.9001 20 66.1001 23.7 63.3001 27.5C63.0001 27.9 62.9001 28.6 63.4001 28.7C64.2001 28.8 65.0001 29.3 65.8001 28.3C68.5001 24.8 70.8001 21 73.7001 17.6C73.8001 17.4 73.8001 17.3 74.0001 17.1ZM60.6001 19.5C60.2001 21.1 60.4001 23 60.2001 24.8C60.1001 25.8 60.0001 26.8 60.0001 27.8C60.0001 28.9 60.9001 28.3 61.4001 28.5C61.9001 28.7 62.1001 28.4 62.1001 27.9C62.5001 24.4 63.8001 21.1 64.0001 17.6C64.0001 17.1 64.3001 16.5 63.6001 16.3C62.6001 16 61.6001 15.5 60.5001 15.8C60.4001 15.8 60.4001 16.3 60.4001 16.5C60.4001 17.6 60.5001 18.4 60.6001 19.5ZM57.8001 21.2C57.8001 23.3 57.8001 25.4 57.8001 27.5C57.8001 27.9 57.8001 28.2 58.2001 28.2C58.7001 28.3 58.8001 28 58.9001 27.7C59.0001 27 59.3001 26.4 59.3001 25.7C59.3001 22.4 59.4001 19 59.3001 15.7C59.3001 14.8 59.6001 14.3 60.5001 14.5C61.6001 14.7 61.8001 14.1 61.9001 13.2C62.0001 11 62.0001 11 59.7001 11C59.5001 11 59.3001 11 59.1001 11C57.5001 11.1 57.4001 11.2 57.5001 12.7C57.8001 15.5 57.7001 18.4 57.8001 21.2ZM5.00014 33.2C5.60014 33.1 5.80014 32.7 6.10014 32.4C7.70014 30.6 9.10014 28.7 10.6001 26.8C12.8001 24.2 14.6001 21.3 16.7001 18.6C19.1001 15.7 21.4001 12.8 24.6001 10.7C25.7001 10 26.8001 10.1 27.4001 11.1C28.1001 12.3 28.3001 13.6 28.5001 14.9C28.8001 16.9 28.9001 19 29.1001 21C29.1001 21.4 29.1001 22.1 29.8001 21.9C30.5001 21.7 30.2001 21.2 30.1001 20.7C29.7001 17.5 28.5001 14.6 28.1001 11.4C27.9001 9.5 26.9001 8.9 25.4001 9.4C23.0001 10.2 21.1001 11.9 19.7001 13.8C18.6001 15.3 17.5001 16.7 16.3001 18C13.7001 21 11.2001 24.2 8.80014 27.3C7.80014 28.7 7.10014 30.3 6.00014 31.6C5.90014 32.2 5.20014 32.5 5.00014 33.2ZM42.5001 34.4C43.1001 34.4 43.7001 34.3 44.3001 34.3C44.5001 34.3 44.9001 34.3 44.9001 33.9C44.9001 33.6 44.6001 33.6 44.4001 33.4C43.5001 32.8 42.7001 33.3 41.8001 33.3C40.0001 33.3 38.1001 33 36.3001 33C33.0001 33 29.8001 33.8 26.5001 34.2C24.4001 34.5 22.3001 35 20.3001 35.9C20.0001 36 19.4001 36.1 19.6001 36.6C19.8001 37.1 20.2001 36.8 20.6001 36.7C22.1001 36.3 23.7001 35.9 25.2001 35.6C30.9001 34.7 36.7001 34.2 42.5001 34.4ZM53.6001 15.3C52.2001 15.6 50.9001 16.1 49.6001 16.1C49.2001 16.1 49.2001 16.4 49.2001 16.7C48.9001 19.4 48.5001 22.1 48.2001 24.8C48.1001 25.5 47.7001 26.2 48.3001 27.2C49.8001 23 52.4001 19.6 53.6001 15.3ZM44.6001 51.6C45.1001 50.9 45.1001 50.2 45.0001 49.5C44.8001 48.2 44.8001 47 44.8001 45.7C44.8001 44.6 44.7001 44.5 43.6001 44.8C44.7001 46.6 44.4001 48.4 43.7001 50.5C43.5001 49.8 43.3001 49.4 43.3001 48.9C43.0001 47.5 42.8001 46.1 42.5001 44.7C42.4001 43.9 41.6001 44.2 41.1001 43.9C40.9001 43.8 40.6001 43.9 40.7001 44.2C41.1001 45.5 40.7001 46.9 41.4001 48.4C41.6001 47.3 41.4001 46.4 41.2001 45.6C41.2001 45.3 40.9001 44.7 41.5001 44.7C42.1001 44.6 41.9001 45.2 41.9001 45.5C41.9001 46.5 42.0001 47.5 42.4001 48.5C42.5001 48.9 42.5001 49.3 42.4001 49.6C41.9001 49.8 42.1001 48.9 41.6001 49.1C41.5001 51.7 43.8001 50.6 44.6001 51.6ZM52.7001 20.9C51.8001 22.2 51.0001 23.5 50.4001 24.9C49.2001 27.7 49.2001 27 51.8001 27.4C53.4001 27.7 53.4001 27.6 53.1001 25.9C53.0001 25.5 53.1001 25 53.1001 24.5C52.9001 23.5 53.2001 22.2 52.7001 20.9ZM44.8001 25C44.6001 23 44.5001 21 44.1001 19.1C43.9001 18.1 43.3001 18.4 42.7001 18.5C42.0001 18.6 41.9001 18.9 42.1001 19.6C42.8001 21.7 43.5001 23.8 43.9001 25.9C44.0001 26.2 44.0001 26.9 44.7001 26.7C45.3001 26.5 44.9001 26.1 44.9001 25.7C44.8001 25.5 44.8001 25.3 44.8001 25ZM46.5001 20C46.2001 20.2 45.1001 19.5 45.3001 20.6C45.7001 22.3 45.3001 24.1 45.7001 25.9C45.8001 26.3 45.9001 26.8 46.4001 26.8C46.8001 26.8 47.0001 26.3 47.0001 25.8C47.2001 24.3 47.2001 22.7 47.6001 21.2C47.9001 20 47.7001 19.7 46.5001 20ZM70.1001 24.4C68.9001 26 67.9001 27.3 66.9001 28.7C66.6001 29 66.6001 29.4 67.1001 29.3C68.0001 29.3 68.8001 29.4 69.7001 29.6C70.2001 29.7 70.5001 29.6 70.4001 28.9C70.3001 27.5 70.2001 26.1 70.1001 24.4ZM43.8001 65.1C43.2001 64.1 43.1001 63.1 43.0001 62C43.0001 61.7 43.3001 61.2 42.7001 61.2C42.1001 61.2 42.5001 61.7 42.6001 62C42.8001 63.7 43.0001 65.4 42.6001 67.1C42.5001 67.4 42.7001 67.6 42.9001 67.7C43.2001 67.9 43.4001 67.6 43.5001 67.4C44.3001 66.3 45.0001 65.3 45.3001 63.9C45.6001 62.4 45.7001 62.4 44.2001 62.7C43.8001 62.8 43.7001 62.9 43.7001 63.2C43.8001 63.9 43.8001 64.5 43.8001 65.1ZM22.4001 42.6C22.1001 43.2 22.5001 43.8 22.4001 44.4C22.3001 45.8 23.0001 46.3 24.3001 46.3C24.5001 46.3 24.8001 46.6 25.0001 46.2C25.1001 45.9 25.1001 45.5 24.8001 45.4C24.1001 45.2 24.2001 44.6 24.0001 44.1C23.8001 43.3 23.5001 42.4 23.1001 41.4C22.9001 42.9 23.6001 44 23.2001 45.3C22.9001 44.5 22.7001 43.6 22.4001 42.6ZM36.2001 65.5C35.8001 63.7 35.4001 62.1 35.0001 60.5C34.9001 60.2 34.8001 59.8 35.1001 59.6C35.5001 59.4 35.5001 59.8 35.7001 60.1C35.8001 60.4 36.0001 60.3 36.2001 60.2C36.4001 60 36.5001 59.8 36.2001 59.7C35.5001 59.4 35.0001 58.5 34.0001 58.5C33.8001 58.5 33.5001 58.3 33.4001 58.7C33.3001 59 33.5001 59.2 33.8001 59.2C34.5001 59.2 34.6001 59.7 34.6001 60.2C34.6001 61.7 35.2001 63.1 35.3001 64.5C35.5001 64.9 35.6001 65.3 36.2001 65.5ZM30.4001 57.6C30.9001 57.7 31.0001 58.7 31.3001 58.6C32.8001 57.9 32.2001 59.2 32.4001 59.7C32.6001 60.4 32.5001 61.2 32.8001 61.9C33.2001 62.9 33.0001 64.1 34.0001 64.9C34.3001 64.5 34.0001 64.2 33.9001 63.9C33.5001 62.3 32.8001 60.8 32.8001 59.2C32.8001 58.2 32.3001 57.9 31.5001 57.7C31.1001 57.6 30.7001 57.6 30.4001 57.6ZM70.2001 65.6C70.2001 65.9 70.0001 66.1 69.8001 66.3C69.5001 66.5 69.1001 66.4 69.2001 66.9C69.3001 67.3 69.6001 67.1 69.8001 67.1C70.2001 67.1 70.8001 67.1 70.8001 66.7C70.8001 65.4 71.4001 64.7 72.6001 64.2C72.9001 64.1 73.4001 63.9 73.1001 63.5C72.9001 63.1 72.5001 63.5 72.2001 63.7C71.5001 64.2 70.9001 65 69.9001 65.2C69.5001 65.3 69.0001 65.2 69.2001 65.7C69.4001 66 69.8001 65.4 70.2001 65.6ZM41.1001 50.2C40.8001 48.1 40.0001 46.1 40.0001 44C40.0001 43.7 39.6001 43.5 39.4001 43.6C39.0001 43.7 39.2001 44.1 39.2001 44.3C39.8001 45.9 39.7001 47.7 40.2001 49.3C40.3001 49.9 40.5001 50.2 41.1001 50.2ZM74.9001 31.2C73.7001 31.1 72.6001 31 71.4001 30.9C71.5001 31.3 71.6001 31.6 71.9001 31.6C72.5001 31.6 73.2001 31.5 73.2001 32.5C73.2001 32.6 73.5001 32.7 73.6001 32.7C74.8001 32.9 74.8001 32 74.9001 31.2ZM40.6001 66.8C40.7001 65.4 39.7001 64.3 39.5001 63C39.5001 63.8 38.5001 64.6 39.4001 65.4C39.4001 65.4 39.7001 65.9 39.3001 65.7C39.0001 65.6 38.7001 65.4 38.7001 65.9C38.7001 66.2 39.0001 66.3 39.3001 66.3C39.7001 66.4 40.1001 66.6 40.6001 66.8ZM61.8001 67.4C62.4001 67.3 62.7001 66.7 63.0001 66.2C63.2001 66 63.9001 65.9 63.4001 65.4C63.1001 65.1 62.6001 64.8 62.2001 65.6C62.0001 66 61.6001 66.6 61.0001 66.5C60.8001 66.5 60.7001 66 60.5001 66.5C60.3001 66.9 60.6001 67 60.9001 67.1C61.1001 67.2 61.4001 67.3 61.8001 67.4ZM48.2001 28.6C47.9001 27.9 47.4001 28.1 47.1001 28.1C46.3001 28.1 45.5001 28 44.8001 27.7C44.4001 27.6 44.1001 27.4 43.7001 27.7C43.5001 27.8 43.8001 28.1 43.8001 28.2C43.9001 28.7 44.3001 28.9 44.7001 28.8C45.8001 28.5 47.0001 28.5 48.2001 28.6ZM41.0001 62.1C41.0001 63 41.0001 63.6 41.0001 64.1C41.1001 65.1 41.3001 66.1 41.5001 67.1C41.5001 67.3 41.7001 67.6 42.0001 67.5C42.1001 67.5 42.3001 67.2 42.3001 67.1C41.8001 65.6 41.8001 63.9 41.0001 62.1ZM27.4001 58.6C27.3001 60 27.7001 61.4 27.9001 62.8C27.9001 63.1 28.1001 63.3 28.4001 63.3C28.8001 63.2 28.7001 62.9 28.6001 62.7C28.0001 61.4 27.9001 59.9 27.4001 58.6ZM66.4001 67.2C67.1001 67.6 67.5001 66.7 68.1001 67C68.1001 67 68.2001 66.8 68.3001 66.7C67.5001 66.2 68.2001 65.9 68.5001 65.5C68.7001 65.2 68.5001 65.1 68.2001 65C68.1001 65 67.8001 64.8 67.8001 65C68.1001 66.3 66.5001 66.2 66.4001 67.2ZM63.9001 67.1C64.7001 67.5 65.2001 67.3 65.6001 66.7C65.7001 66.5 65.8001 66.2 65.5001 66.2C64.7001 65.9 64.3001 66.4 63.9001 67.1ZM54.6001 72.6C54.0001 71.8 53.2001 71.8 52.5001 71.5C52.4001 71.4 52.2001 71.5 52.1001 71.7C52.0001 71.9 52.2001 72.1 52.3001 72.1C53.1001 72.1 53.6001 72.8 54.6001 72.6ZM31.6001 63.9C31.5001 63 31.6001 62.1 30.9001 61.3C30.8001 62.4 31.0001 63.2 31.6001 63.9ZM26.9001 60.2C26.7001 62.4 26.7001 62.5 27.6001 63.3C27.4001 62.2 27.2001 61.3 26.9001 60.2ZM84.4001 71.3C84.5001 70.3 84.9001 69.5 83.9001 69.1C83.7001 69 83.5001 68.8 83.4001 69.2C83.4001 69.3 83.4001 69.4 83.4001 69.6C84.6001 69.5 83.9001 70.6 84.4001 71.3ZM37.8001 46C37.6001 47.4 37.9001 48.4 38.3001 49.4C38.5001 48.3 38.1001 47.3 37.8001 46ZM39.2001 61.6C39.2001 61.9 39.1001 62.3 39.5001 62.4C39.8001 62.4 40.2001 62.2 40.2001 61.8C40.2001 61.4 40.1001 61 39.7001 60.9C39.2001 60.8 39.3001 61.3 39.2001 61.6Z" fill="black"/>
<path d="M53.2002 45.3C54.0002 45.4 54.6002 44.7 55.5002 44.8C54.9002 46.4 52.9002 45.8 52.2002 47.1C52.0002 47 51.9002 47 51.7002 46.9C51.9002 46 52.7002 45.7 53.2002 45.3Z" fill="black"/>
<path d="M93.5004 64.8C93.6004 64.6 93.3004 63.9 93.9004 64C94.3004 64 95.0004 64.1 94.7004 64.8C94.6004 65.2 94.8004 65.9 94.0004 65.9C93.4004 65.8 93.5004 65.3 93.5004 64.8Z" fill="black"/>
<path d="M91.5 63.3C91.1 62.3 90.7 61.3 90.3 60.2C90.2 60 90.3 59.8 90.5 59.7C90.7 59.6 90.9 59.8 90.9 59.9C91.2 61 91.5 62 91.8 63.1C91.8 63.2 91.6 63.2 91.5 63.3Z" fill="black"/>
<path d="M91.7001 71.8C91.5001 72.9 91.1001 73.8 90.6001 74.7C90.1001 73.6 90.3001 72.9 91.7001 71.8Z" fill="black"/>
<path d="M93.3001 68.3C93.4001 68.5 93.5001 68.5 93.5001 68.6C93.4001 69.1 93.4001 69.8 92.8001 70.1C92.6001 70.2 92.4001 70 92.4001 69.9C92.3001 69.2 92.7001 68.8 93.3001 68.3Z" fill="black"/>
<path d="M77.2003 55.9C76.7003 56.6 76.6003 57.6 75.8003 58C75.5003 58.2 75.2003 58.4 74.9003 58C74.6003 57.6 74.8003 57.4 75.2003 57.2C75.9003 56.8 76.5003 56.3 77.2003 55.9Z" fill="black"/>
<path d="M83.4997 54.8C83.8997 55.5 85.2997 54.7 85.1997 55.9C85.0997 56.5 84.1997 56.4 83.7997 56.3C82.9997 56.1 83.5997 55.4 83.4997 54.8Z" fill="black"/>
<path d="M55.0002 53.5C55.0002 53.8 53.7002 54.7 53.4002 54.6C53.3002 54.6 53.2002 54.4 53.2002 54.3C53.1002 53.8 53.5002 53.7 53.8002 53.4C54.1002 53.1 54.4002 52.9 54.8002 53.1C54.9002 53.2 55.0002 53.3 55.0002 53.5Z" fill="black"/>
<path d="M82.3997 50.6C82.4997 50.8 82.6997 50.9 82.6997 51C82.8997 51.4 83.5997 51.7 83.1997 52.3C82.9997 52.6 82.6997 52.2 82.3997 52.1C81.7997 51.6 81.8997 51.2 82.3997 50.6Z" fill="black"/>
<path d="M57.8002 58.8C57.3002 59.4 56.8002 59.7 56.2002 59.2C56.0002 59.1 55.9002 58.8 56.0002 58.7C56.6002 58 57.2002 58.9 57.8002 58.8Z" fill="black"/>
<path d="M80.5002 51.4C80.1002 51.4 79.7002 51.3 79.7002 51C79.8002 50.3 80.7002 50.6 81.0002 50.1C81.1002 50 81.3002 50.2 81.3002 50.4C81.3002 51 80.9002 51.3 80.5002 51.4Z" fill="black"/>
<path d="M67.0996 38.3C66.8996 38.4 66.5996 38.4 66.6996 38.1C66.6996 37.9 66.9996 37.7 67.0996 37.7C69.0996 37.8 70.3996 36.2 72.1996 35.9C72.3996 35.9 72.5996 35.8 72.7996 35.7C73.0996 35.6 72.9996 34.7 73.4996 35.4C73.7996 35.8 73.5996 36.3 73.1996 36.5C71.2996 37.3 69.3996 38.5 67.0996 38.3Z" fill="black"/>
<path d="M54.2996 34.1C53.5996 34.9 52.8996 35.1 52.0996 35.1C51.0996 35.1 49.9996 35.1 49.0996 35.6C48.7996 35.7 48.4996 35.8 48.3996 35.4C48.2996 35 48.6996 35 48.8996 34.8C50.5996 34.1 52.2996 34.1 54.2996 34.1Z" fill="black"/>
<path d="M49.1997 39.8C49.5997 38.6 50.7997 39 51.5997 38.6C52.7997 38.1 54.0997 38.2 55.2997 37.5C55.6997 37.3 56.1997 37.5 56.3997 37.9C56.4997 38.3 56.1997 38.4 55.8997 38.4C53.7997 38.3 51.8997 39.2 49.7997 39.7C49.5997 39.7 49.2997 39.7 49.1997 39.8Z" fill="black"/>
<path d="M63.4999 32.1C62.1999 32.6 60.8999 32.7 59.5999 33.3C59.3999 33.4 58.9999 33.5 58.7999 33.1C58.6999 32.8 58.9999 32.7 59.2999 32.6C60.6999 32.3 62.0999 31.9 63.4999 32.1Z" fill="black"/>
<path d="M57.9004 31.3C58.7004 30.2 59.6004 30.3 60.8004 31.7C59.8004 32.2 58.9004 31.2 57.9004 31.3Z" fill="black"/>
<path d="M58.7 30.1C57.5 30 56.3 31.1 55 30.5C56.2 29.5 57.5 29.8 58.7 30.1Z" fill="black"/>
<path d="M61.2998 31.5C61.5998 30.9 61.9998 31.1 62.2998 31C62.8998 30.8 63.5998 30.6 64.1998 30.8L64.2998 31.1C63.6998 31.4 62.9998 31.5 62.2998 31.5C61.9998 31.6 61.6998 31.5 61.2998 31.5Z" fill="black"/>
<path d="M63.2002 35.1C63.7002 34.1 64.6002 34 65.5002 33.7C65.6002 33.6 65.9002 33.7 65.9002 33.9C65.9002 34.1 65.7002 34.3 65.5002 34.3C64.6002 34.4 63.9002 34.6 63.2002 35.1Z" fill="black"/>
<path d="M57.9002 31.3C56.7002 31.7 55.4002 31.8 54.2002 32C55.5002 31.6 56.6002 30.7 57.9002 31.3Z" fill="black"/>
<path d="M49.2998 31.7C50.1998 31.4 51.0998 30.9 52.1998 31.2C51.2998 31.8 50.2998 31.9 49.2998 31.7Z" fill="black"/>
<path d="M45.4004 30.1C45.7004 30.1 46.0004 30.1 46.3004 30.1C46.6004 30.1 46.9004 30 47.1004 30.3C47.2004 30.4 47.1004 30.7 47.0004 30.7C46.7004 30.8 46.4004 31.1 46.1004 30.8C45.8004 30.7 45.4004 30.7 45.4004 30.1Z" fill="black"/>
<path d="M52.2998 30C52.7998 29.2 53.6998 29.7 54.2998 29.4C54.2998 29.4 54.5998 29.6 54.5998 29.7C54.6998 29.9 54.4998 30 54.2998 30C53.6998 30 52.9998 30 52.2998 30Z" fill="black"/>
<path d="M59.4998 70.5C59.1998 71.3 58.5998 71.6 57.8998 71.7C56.9998 71.8 56.7998 71 56.7998 70.5C56.7998 69.9 57.2998 69.4 57.9998 69.4C58.6998 69.4 58.9998 70.1 59.4998 70.5Z" fill="black"/>
<path d="M68.1996 75.4C68.1996 76.1 67.6996 76.6 66.9996 76.6C66.4996 76.6 66.0996 76.2 66.0996 75.6C66.0996 75 66.2996 74.4 67.0996 74.4C67.7996 74.4 68.0996 74.8 68.1996 75.4Z" fill="black"/>
<path d="M72.0001 70.4C72.2001 69.6 72.9001 69.5 73.6001 69.4C74.0001 69.4 74.2001 69.9 74.1001 70.2C73.9001 70.9 73.4001 71.4 72.6001 71.4C71.9001 71.5 72.0001 71 72.0001 70.4Z" fill="black"/>
<path d="M66.1003 71.2C66.1003 72.2 65.5003 72.3 64.9003 72.3C64.5003 72.3 63.9003 71.9 64.1003 71.6C64.3003 71.1 64.9003 70.4 65.4003 70.3C65.9003 70.1 66.2003 70.8 66.1003 71.2Z" fill="black"/>
<path d="M80.1002 67.1C80.0002 67.7 79.5002 67.7 79.0002 67.8C78.6002 67.8 78.3002 67.5 78.4002 67.2C78.5002 66.6 79.1002 66.6 79.5002 66.5C79.9002 66.3 80.1002 66.7 80.1002 67.1Z" fill="black"/>
</g>
<defs>
<clipPath id="clip0_6406_7018">
<rect width="95" height="86" fill="white" transform="translate(2 7)"/>
</clipPath>
</defs>
</svg>
