<svg width="100" height="100" viewBox="0 0 100 100" fill="none" xmlns="http://www.w3.org/2000/svg">
<path d="M53.3409 30.1388C54.6409 26.8388 56.2409 23.5388 58.0409 20.5388C58.7409 19.3388 59.6409 18.3388 60.7409 17.4388C61.1409 17.1388 61.4409 16.8388 61.4409 16.2388C61.4409 15.4388 62.6409 14.8388 63.4409 15.0388C64.0409 15.2388 64.3409 15.9388 64.0409 16.8388C63.7409 17.5388 63.5409 18.3388 62.4409 18.2388C61.9409 18.1388 61.5409 18.5388 61.2409 18.9388C59.8409 20.3388 58.6409 21.9388 57.7409 23.7388C56.7409 25.7388 55.8409 27.8388 54.8409 29.8388C54.5409 30.4388 54.6409 30.8388 55.2409 31.0388C58.2409 32.2388 60.5409 34.3388 62.8409 36.5388C65.3409 38.9388 67.1409 41.7388 68.8409 44.7388C69.7409 46.3388 70.2409 48.2388 70.7409 50.0388C71.1409 51.2388 72.0409 51.7388 73.3409 51.7388C74.6409 51.7388 75.9409 51.9388 77.1409 52.0388C77.8409 52.1388 78.5409 52.1388 79.2409 52.1388C84.9409 52.2388 90.3409 53.2388 95.5409 55.7388C97.1409 56.5388 97.9409 57.5388 97.7409 59.4388C97.4409 62.4388 96.0409 64.8388 93.7409 66.7388C92.0409 68.1388 90.0409 69.0388 88.2409 70.1388C86.4409 71.2388 84.6409 72.2388 82.8409 73.2388C81.5409 73.9388 80.1409 74.3388 78.8409 75.0388C75.9409 76.4388 72.8409 77.6388 69.8409 78.6388C67.2409 79.4388 64.7409 80.4388 62.1409 81.2388C61.6409 81.3388 61.1409 81.3388 60.6409 81.4388C57.5409 82.0388 54.4409 82.5388 51.3409 83.1388C50.0409 83.4388 48.7409 83.4388 47.3409 83.5388C45.9409 83.5388 44.5409 83.9388 43.0409 84.1388C41.2409 84.3388 39.5409 84.4388 37.7409 84.3388C36.7409 84.2388 35.6409 84.3388 34.6409 84.3388C31.0409 84.5388 27.5409 83.9388 24.0409 83.6388C21.9409 83.4388 19.9409 83.1388 17.8409 82.9388C16.3409 82.7388 14.9409 82.4388 13.5409 81.9388C13.2409 81.8388 12.9409 81.7388 12.7409 81.6388C9.24087 81.1388 6.34087 79.3388 3.64087 77.3388C3.44087 77.2388 3.24087 77.0388 3.04087 76.8388C1.74087 75.5388 1.64087 74.3388 2.84087 73.0388C3.94087 71.7388 5.14087 70.4388 6.54087 69.3388C8.64087 67.5388 11.0409 66.4388 13.4409 65.2388C16.5409 63.6388 19.8409 62.4388 23.2409 61.6388C24.1409 61.4388 24.2409 61.0388 24.2409 60.3388C24.1409 58.9388 24.0409 57.6388 23.7409 56.2388C23.5409 55.3388 23.4409 54.4388 23.6409 53.5388C23.8409 52.3388 23.9409 51.2388 23.9409 50.0388C23.9409 48.0388 24.5409 46.0388 25.4409 44.2388C25.8409 43.4388 25.9409 42.6388 26.2409 41.8388C27.2409 39.5388 28.8409 37.5388 30.2409 35.4388C30.7409 34.7388 31.5409 34.2388 32.2409 33.6388C34.2409 32.1388 36.3409 31.0388 38.5409 29.7388C38.8409 29.5388 39.2409 29.3388 39.6409 29.3388C41.1409 29.3388 42.5409 28.9388 44.0409 28.9388C47.1409 28.9388 50.2409 28.9388 53.1409 30.1388C53.1409 30.1388 53.2409 30.1388 53.3409 30.1388ZM84.8409 67.4388C85.0409 67.3388 85.2409 67.1388 85.1409 66.8388C85.0409 66.6388 84.8409 66.7388 84.6409 66.7388C84.2409 66.8388 83.8409 66.9388 83.6409 67.4388C83.4409 67.8388 83.1409 68.1388 82.8409 68.4388C82.8409 68.1388 83.1409 67.8388 82.9409 67.4388C82.0409 67.6388 81.2409 67.8388 80.5409 68.4388C80.2409 68.7388 80.0409 68.6388 79.7409 68.6388C78.8409 68.5388 78.0409 68.8388 77.4409 69.6388C77.0409 70.2388 76.6409 70.8388 76.1409 71.4388C75.6409 72.0388 75.3409 72.6388 74.4409 72.9388C75.1409 71.6388 76.3409 70.7388 76.8409 69.4388C76.1409 69.2388 75.7409 69.4388 75.5409 69.9388C75.4409 70.2388 75.2409 70.4388 74.9409 70.6388C74.7409 70.2388 74.8409 69.6388 74.1409 69.9388C73.3409 70.2388 72.3409 70.2388 71.7409 71.0388C71.5409 71.3388 71.3409 71.3388 71.1409 70.9388C71.0409 70.7388 70.7409 70.9388 70.4409 71.0388C69.4409 71.3388 68.5409 71.8388 67.4409 71.7388C67.0409 71.7388 66.4409 71.9388 66.0409 72.4388C65.7409 72.7388 65.3409 73.0388 64.6409 72.7388C63.5409 72.3388 62.5409 72.8388 62.0409 73.9388C61.7409 74.5388 61.4409 75.2388 61.0409 75.8388C61.1409 74.9388 61.6409 74.1388 61.7409 73.2388C61.1409 73.0388 60.8409 73.4388 60.4409 73.5388C60.0409 73.6388 59.5409 73.4388 59.0409 73.5388C58.8409 73.5388 58.6409 73.6388 58.5409 73.8388C58.3409 74.2388 58.1409 74.0388 57.8409 73.9388C56.3409 73.5388 55.6409 74.0388 55.3409 75.5388C55.2409 75.9388 55.2409 76.3388 55.1409 76.7388C55.0409 77.1388 54.9409 77.6388 54.9409 78.0388C54.9409 78.5388 55.7409 78.3388 55.7409 78.8388C55.5409 79.1388 55.4409 79.1388 55.2409 79.2388C54.4409 79.4388 54.2409 80.0388 54.3409 80.7388C54.4409 81.3388 55.1409 81.1388 55.5409 81.2388C55.6409 81.2388 55.8409 81.2388 55.9409 81.2388C56.9409 81.2388 56.9409 81.2388 56.7409 80.0388C56.4409 79.9388 56.4409 80.5388 56.0409 80.2388C56.6409 78.7388 56.6409 78.7388 57.9409 79.0388C57.8409 79.2388 57.6409 79.3388 57.5409 79.5388C57.2409 80.2388 57.3409 80.6388 57.8409 80.8388C58.4409 81.0388 58.7409 80.8388 58.6409 80.1388C58.6409 79.9388 58.8409 79.7388 59.0409 79.5388C59.6409 78.9388 60.1409 78.4388 60.7409 77.9388C61.1409 77.6388 61.5409 77.3388 61.9409 77.0388C62.0409 76.9388 62.2409 76.9388 62.3409 77.1388C62.4409 77.2388 62.4409 77.4388 62.3409 77.5388C62.2409 77.6388 62.0409 77.8388 61.9409 77.9388C61.0409 78.4388 60.3409 79.1388 60.0409 80.4388C61.6409 79.9388 63.1409 79.4388 64.5409 78.9388C64.8409 78.8388 65.1409 78.6388 65.2409 78.4388C65.5409 77.4388 66.6409 77.4388 67.2409 76.9388C67.6409 76.6388 67.8409 76.7388 67.9409 77.2388C67.9409 77.5388 67.9409 77.8388 67.9409 78.3388C68.7409 77.3388 69.2409 76.3388 70.2409 75.6388C70.5409 77.2388 70.6409 77.1388 72.0409 76.4388C72.7409 76.0388 73.3409 75.5388 74.0409 75.0388C75.8409 73.5388 78.0409 72.7388 79.9409 71.6388C79.5409 72.3388 80.5409 71.9388 80.5409 72.4388C79.7409 72.8388 78.8409 73.1388 78.1409 73.7388C77.4409 74.2388 76.2409 73.9388 75.7409 75.0388C78.7409 74.1388 81.2409 72.6388 83.8409 71.3388C85.5409 70.5388 87.2409 69.5388 88.8409 68.5388C89.5409 68.1388 90.3409 68.0388 90.4409 67.0388C90.4409 66.8388 90.7409 66.6388 91.0409 66.6388C92.5409 66.6388 93.2409 65.4388 94.0409 64.4388C94.2409 64.2388 94.5409 64.0388 94.1409 63.7388C93.8409 63.5388 93.6409 63.7388 93.4409 63.9388C92.7409 64.6388 92.0409 65.2388 90.8409 64.9388C90.5409 64.8388 90.0409 65.1388 89.7409 65.3388C89.4409 65.5388 89.3409 65.9388 89.0409 66.0388C88.7409 66.2388 88.7409 65.5388 88.2409 65.7388C87.1409 66.2388 85.7409 66.2388 85.1409 67.5388C85.3409 67.6388 85.0409 67.5388 84.8409 67.4388ZM27.6409 78.9388C26.7409 78.7388 25.8409 78.1388 24.7409 78.6388C25.3409 79.9388 26.6409 80.4388 27.4409 81.5388C26.5409 81.3388 25.7409 81.0388 25.0409 80.6388C24.6409 80.4388 24.2409 80.2388 23.9409 79.9388C23.5409 79.4388 24.3409 79.1388 23.8409 78.6388C22.5409 78.7388 21.1409 78.4388 19.6409 78.5388C18.7409 78.6388 19.5409 79.1388 19.3409 79.4388C18.0409 78.7388 18.0409 78.7388 17.3409 78.7388C17.7409 79.4388 18.6409 79.3388 19.0409 79.9388C18.7409 80.1388 18.4409 79.8388 18.2409 80.1388C18.1409 80.5388 18.6409 80.6388 18.8409 80.8388C18.4409 81.0388 18.1409 80.7388 17.8409 80.6388C17.0409 80.2388 15.9409 80.1388 15.7409 78.8388C15.7409 78.5388 15.3409 78.5388 15.1409 78.5388C14.4409 78.5388 13.5409 78.2388 13.1409 78.7388C12.3409 79.6388 11.8409 78.1388 11.2409 78.7388C11.1409 78.8388 11.1409 78.8388 10.9409 79.0388C12.2409 79.8388 13.5409 80.4388 14.9409 81.1388L15.0409 81.0388C15.1409 80.8388 14.8409 80.9388 15.1409 80.8388C14.8409 80.6388 14.6409 80.4388 14.4409 80.3388C14.2409 80.1388 13.8409 80.0388 14.0409 79.6388C14.2409 79.3388 14.5409 79.4388 14.8409 79.6388C15.0409 79.7388 15.1409 79.8388 15.3409 79.9388C15.6409 80.1388 16.0409 80.4388 16.3409 80.5388C16.8409 80.7388 15.9409 81.1388 16.5409 81.3388C17.9409 81.9388 19.5409 81.9388 20.9409 82.3388C20.6409 81.9388 20.2409 81.7388 19.8409 81.5388C19.4409 81.3388 19.1409 81.0388 18.7409 80.8388C19.9409 81.1388 21.0409 81.6388 22.2409 82.1388C22.7409 82.3388 23.3409 83.0388 23.9409 82.1388C24.0409 81.9388 24.3409 82.1388 24.4409 82.3388C24.7409 82.7388 25.1409 82.7388 25.5409 82.7388C26.5409 82.7388 27.5409 82.7388 28.5409 82.7388C28.5409 82.4388 28.0409 82.1388 28.4409 81.7388C28.6409 81.4388 28.9409 81.6388 29.2409 81.7388C29.5409 81.8388 29.9409 81.9388 30.2409 82.0388C30.3409 82.0388 30.3409 82.1388 30.3409 82.2388C30.1409 82.4388 29.7409 82.1388 29.5409 82.5388C30.1409 82.9388 30.7409 83.0388 31.4409 83.0388C33.6409 83.0388 35.8409 83.3388 38.0409 83.0388C38.5409 82.9388 39.1409 83.0388 39.6409 83.1388C40.5409 83.3388 41.5409 83.2388 42.4409 82.9388C43.4409 82.6388 44.2409 82.5388 45.2409 82.6388C46.0409 82.7388 46.8409 82.7388 47.6409 82.5388C48.3409 82.3388 49.4409 82.8388 49.7409 81.6388C49.7409 81.5388 49.8409 81.6388 49.9409 81.7388C50.4409 82.4388 50.8409 81.8388 51.5409 81.6388C50.6409 80.9388 49.7409 80.9388 48.9409 80.7388C48.6409 80.6388 48.5409 80.8388 48.5409 81.2388C48.5409 81.5388 48.8409 81.7388 48.6409 82.2388C47.9409 80.7388 46.4409 81.3388 45.1409 81.0388C45.6409 80.7388 45.7409 80.1388 46.2409 80.1388C47.0409 80.1388 47.7409 79.4388 48.7409 79.8388C49.5409 80.1388 50.4409 79.7388 51.2409 79.5388C51.6409 79.4388 51.7409 79.2388 51.7409 78.9388C51.6409 77.8388 51.9409 76.7388 51.4409 75.7388C51.3409 75.5388 51.4409 75.2388 51.1409 75.1388C50.6409 74.9388 50.0409 75.0388 49.5409 75.3388C49.1409 75.5388 49.2409 76.0388 49.3409 76.4388C49.3409 76.7388 49.2409 77.0388 49.5409 77.3388C50.0409 77.8388 49.8409 78.1388 49.4409 78.5388C49.1409 78.0388 48.9409 77.4388 48.2409 77.6388C47.6409 77.8388 47.9409 78.6388 47.6409 79.1388C47.3409 78.2388 47.2409 77.4388 47.1409 76.5388C47.1409 75.8388 46.7409 75.6388 46.1409 75.8388C45.4409 76.1388 44.4409 75.9388 44.1409 76.9388C44.1409 77.0388 44.0409 77.1388 43.9409 77.0388C43.1409 76.1388 42.1409 76.7388 41.3409 76.8388C40.3409 76.9388 40.1409 77.4388 40.6409 78.4388C41.0409 79.3388 41.8409 79.9388 42.4409 80.7388C41.4409 80.3388 40.0409 80.3388 40.1409 78.6388C40.1409 78.3388 39.8409 78.0388 39.6409 77.7388C39.4409 77.2388 38.7409 77.3388 38.7409 77.5388C38.7409 78.6388 37.2409 77.0388 37.4409 78.3388C36.9409 77.7388 36.3409 78.2388 35.7409 78.1388C34.8409 77.9388 34.0409 78.2388 33.1409 78.3388C33.1409 79.3388 33.9409 79.5388 34.4409 80.1388C34.9409 80.7388 35.6409 80.9388 36.3409 81.2388C36.9409 81.5388 37.6409 81.6388 38.0409 82.3388C37.0409 81.8388 35.8409 81.7388 34.8409 81.0388C34.1409 80.4388 33.2409 80.1388 32.9409 79.1388C32.6409 78.2388 31.4409 78.1388 31.0409 78.8388C30.9409 79.0388 31.0409 79.4388 30.6409 79.1388C29.8409 78.4388 28.9409 78.7388 28.1409 78.7388C27.8409 78.7388 27.9409 79.0388 27.9409 79.2388C27.6409 78.8388 27.6409 78.9388 27.6409 78.9388ZM43.1409 55.7388C43.0409 55.7388 42.9409 55.7388 42.8409 55.6388C41.9409 57.0388 41.3409 58.5388 40.9409 60.2388C40.6409 61.6388 40.6409 61.7388 42.1409 61.6388C42.2409 61.6388 42.4409 61.6388 42.5409 61.5388C45.0409 61.1388 47.6409 60.8388 50.0409 60.0388C50.5409 59.8388 51.0409 59.7388 51.6409 59.6388C53.0409 59.4388 54.3409 59.0388 55.6409 58.6388C57.8409 57.9388 60.0409 57.4388 62.1409 56.5388C64.7409 55.3388 67.2409 54.0388 69.5409 52.2388C70.0409 51.8388 70.2409 51.5388 70.0409 50.9388C69.6409 49.7388 69.2409 48.6388 69.0409 47.4388C68.8409 45.9388 68.1409 44.6388 67.3409 43.4388C66.7409 42.6388 66.1409 41.7388 65.6409 40.8388C64.2409 38.7388 62.4409 37.0388 60.6409 35.4388C58.2409 33.2388 55.4409 31.7388 52.3409 30.8388C51.3409 30.5388 50.3409 30.0388 49.2409 30.0388C47.0409 29.9388 44.9409 29.7388 42.7409 30.0388C39.4409 30.5388 36.4409 31.9388 33.7409 33.8388C32.9409 34.3388 32.1409 34.9388 31.5409 35.6388C29.1409 38.3388 27.4409 41.3388 26.0409 44.6388C24.6409 48.0388 24.5409 51.5388 24.5409 55.1388C24.5409 56.8388 25.1409 58.5388 25.0409 60.2388C25.0409 60.5388 25.1409 60.8388 25.3409 60.8388C26.2409 60.8388 26.8409 61.5388 27.6409 61.7388C31.5409 62.8388 35.4409 62.6388 39.3409 62.0388C39.8409 61.9388 39.8409 61.6388 39.9409 61.2388C40.2409 59.9388 40.6409 58.5388 41.2409 57.3388C41.9409 55.8388 42.9409 54.4388 43.9409 53.1388C44.3409 52.5388 44.3409 52.2388 43.6409 51.9388C42.1409 51.2388 41.0409 50.1388 40.1409 48.6388C38.9409 46.5388 37.9409 44.4388 37.3409 42.0388C36.4409 38.6388 37.3409 35.8388 39.6409 33.3388C40.0409 32.9388 40.4409 32.5388 40.9409 32.3388C44.4409 30.7388 48.2409 31.7388 50.4409 34.8388C52.7409 38.1388 52.9409 41.7388 51.2409 45.3388C50.7409 46.3388 50.2409 47.4388 49.7409 48.4388C49.0409 49.8388 49.4409 51.4388 50.7409 52.4388C51.4409 53.0388 52.1409 53.6388 52.9409 54.1388C54.1409 54.9388 54.7409 56.1388 55.4409 57.2388C55.7409 57.6388 55.9409 58.1388 55.1409 58.5388C54.2409 56.9388 53.4409 55.1388 51.5409 54.2388C51.6409 55.4388 52.1409 56.4388 52.3409 57.5388C52.4409 58.0388 53.2409 58.8388 52.3409 59.0388C51.8409 59.1388 51.7409 58.1388 51.6409 57.6388C51.6409 57.5388 51.6409 57.4388 51.6409 57.3388C51.0409 55.6388 50.9409 53.6388 49.5409 52.2388C49.1409 51.9388 49.0409 51.4388 49.0409 50.9388C49.0409 50.4388 48.9409 49.9388 48.9409 49.1388C47.9409 50.0388 47.4409 51.2388 46.5409 51.8388C45.3409 52.6388 44.8409 53.8388 44.4409 55.1388C44.2409 55.8388 44.1409 56.5388 44.0409 57.3388C43.9409 58.2388 43.7409 59.2388 44.2409 60.1388C44.4409 60.4388 44.1409 60.6388 43.7409 60.7388C43.4409 60.8388 43.2409 60.5388 43.2409 60.3388C43.4409 59.3388 42.8409 58.4388 43.3409 57.4388C43.2409 56.7388 43.1409 56.2388 43.1409 55.7388ZM40.2409 64.7388C40.5409 64.9388 40.4409 65.2388 40.4409 65.5388C40.3409 67.1388 40.2409 68.6388 39.8409 70.2388C39.6409 71.1388 39.5409 71.9388 39.4409 72.8388C39.4409 73.4388 39.6409 73.7388 40.3409 73.6388C42.6409 73.2388 44.9409 73.1388 47.1409 72.5388C47.7409 72.3388 48.3409 72.2388 49.0409 72.1388C52.9409 71.4388 56.9409 70.8388 60.8409 70.0388C61.3409 69.9388 61.6409 69.6388 61.4409 69.2388C61.0409 68.0388 60.8409 66.7388 60.1409 65.6388C59.4409 64.5388 58.8409 63.4388 58.5409 62.1388C58.4409 61.8388 58.4409 61.4388 58.7409 61.3388C59.1409 61.2388 59.1409 61.6388 59.2409 61.9388C59.3409 62.5388 59.6409 62.9388 59.8409 63.4388C60.7409 65.1388 61.6409 66.8388 62.0409 68.7388C62.2409 69.6388 62.6409 69.6388 63.3409 69.5388C66.2409 69.1388 69.1409 68.2388 72.0409 67.7388C76.3409 67.1388 80.3409 65.7388 84.4409 64.3388C85.4409 63.9388 85.5409 63.7388 84.7409 62.9388C84.5409 62.7388 84.3409 62.5388 84.0409 62.3388C82.5409 61.2388 81.0409 60.0388 79.5409 58.9388C77.9409 57.7388 76.2409 56.6388 74.2409 56.0388C73.0409 55.6388 71.9409 55.0388 70.8409 54.6388C70.5409 54.5388 70.2409 54.3388 70.1409 53.9388C70.0409 53.2388 69.6409 53.4388 69.3409 53.7388C68.5409 54.2388 67.8409 54.8388 67.0409 55.3388C64.5409 56.8388 61.9409 57.9388 59.2409 58.7388C54.9409 60.0388 50.6409 61.4388 46.0409 62.0388C41.9409 62.6388 37.8409 63.5388 33.5409 63.3388C31.3409 63.2388 28.9409 63.6388 26.8409 62.4388C26.3409 62.1388 25.9409 62.3388 25.5409 62.7388C25.1409 63.2388 24.9409 63.7388 24.3409 64.0388C22.8409 65.0388 21.6409 66.4388 20.5409 67.9388C19.0409 69.9388 17.7409 72.0388 17.0409 74.5388C16.8409 75.3388 16.9409 75.5388 17.7409 75.5388C19.3409 75.6388 20.9409 75.5388 22.4409 75.2388C25.8409 74.4388 29.2409 74.4388 32.7409 74.5388C34.4409 74.5388 36.1409 74.2388 37.9409 74.1388C38.5409 74.0388 38.7409 73.7388 38.8409 73.1388C39.1409 70.6388 39.6409 68.1388 39.8409 65.6388C39.8409 65.2388 39.7409 64.8388 40.2409 64.7388ZM39.0409 44.9388C39.6409 46.3388 40.4409 47.5388 41.2409 48.7388C41.9409 49.9388 42.9409 50.4388 44.2409 50.6388C45.3409 50.8388 46.1409 50.7388 46.8409 49.7388C48.0409 48.1388 49.0409 46.4388 50.1409 44.8388C51.4409 42.9388 51.5409 40.9388 51.2409 38.7388C50.9409 36.3388 49.3409 34.7388 47.5409 33.3388C45.3409 31.6388 42.2409 31.8388 40.2409 33.7388C39.4409 34.4388 38.9409 35.3388 38.5409 36.2388C37.9409 37.8388 38.1409 38.4388 39.6409 39.3388C39.7409 39.4388 39.9409 39.4388 40.0409 39.5388C41.4409 40.2388 42.5409 41.2388 42.9409 42.8388C43.1409 43.4388 43.3409 44.0388 42.8409 44.6388C42.3409 45.2388 41.6409 45.4388 40.8409 45.3388C40.1409 45.2388 39.7409 44.8388 39.0409 44.9388ZM72.2409 52.4388C72.0409 52.4388 71.5409 52.3388 71.3409 52.9388C71.2409 53.4388 71.5409 53.8388 71.9409 54.0388C72.2409 54.2388 72.5409 54.3388 72.8409 54.4388C74.1409 55.1388 75.6409 55.4388 76.9409 56.2388C79.1409 57.6388 81.2409 59.1388 83.3409 60.7388C84.3409 61.4388 85.6409 61.8388 86.0409 63.2388C86.1409 63.6388 86.5409 63.4388 86.8409 63.3388C87.7409 63.0388 88.6409 62.9388 89.5409 62.5388C91.8409 61.6388 94.1409 60.5388 95.8409 58.5388C96.6409 57.6388 96.4409 56.7388 95.3409 56.7388C94.0409 56.6388 93.0409 56.0388 91.8409 55.6388C88.1409 54.2388 84.3409 53.1388 80.2409 53.3388C80.0409 53.3388 79.7409 53.3388 79.5409 53.3388C77.2409 52.7388 74.8409 52.8388 72.2409 52.4388ZM14.2409 75.4388C16.0409 75.4388 16.0409 75.4388 16.4409 73.8388C16.8409 72.2388 17.6409 70.8388 18.5409 69.4388C20.0409 67.1388 21.7409 64.8388 24.1409 63.2388C24.4409 63.0388 24.6409 62.7388 24.8409 62.5388C25.1409 62.1388 24.8409 61.9388 24.5409 61.9388C24.2409 61.9388 23.8409 62.0388 23.5409 62.0388C21.6409 62.4388 19.8409 63.1388 18.0409 63.9388C15.3409 65.1388 12.7409 66.2388 10.1409 67.6388C7.64087 69.0388 5.54087 70.9388 3.54087 72.9388C3.34087 73.1388 3.24087 73.3388 3.14087 73.5388C2.84087 74.2388 3.04087 74.8388 3.74087 75.0388C3.94087 75.1388 4.24087 75.1388 4.44087 75.1388C7.84087 75.8388 11.1409 75.1388 14.2409 75.4388ZM37.5409 75.3388C37.9409 76.2388 37.9409 76.2388 38.6409 76.1388C39.7409 76.0388 40.8409 75.5388 41.9409 75.3388C42.4409 75.2388 42.4409 75.0388 42.2409 74.5388C42.0409 74.0388 41.8409 73.8388 41.3409 73.8388C40.8409 73.9388 40.2409 73.8388 39.7409 74.0388C36.9409 74.9388 33.9409 74.9388 30.9409 75.0388C28.9409 75.1388 26.9409 75.1388 24.9409 75.5388C23.2409 75.8388 21.4409 76.1388 19.6409 76.2388C15.9409 76.4388 12.1409 76.0388 8.44087 76.4388C7.14087 76.5388 5.84087 76.3388 4.54087 76.3388C4.54087 76.6388 4.64087 76.6388 4.84087 76.7388C6.64087 77.5388 8.64087 77.6388 10.6409 77.8388C11.3409 77.9388 11.0409 77.3388 11.3409 77.0388C12.0409 78.0388 13.0409 78.2388 14.1409 78.0388C14.6409 77.9388 15.2409 78.1388 15.4409 77.3388C15.9409 77.4388 16.3409 77.9388 16.9409 77.8388C17.2409 77.7388 17.5409 77.8388 17.7409 77.5388C17.8409 77.3388 18.0409 77.0388 18.2409 77.4388C18.5409 78.0388 19.1409 77.8388 19.5409 77.8388C20.9409 77.9388 22.3409 77.7388 23.6409 77.9388C24.9409 78.0388 26.1409 77.0388 27.5409 77.7388C27.6409 77.7388 27.7409 77.7388 27.8409 77.7388C28.4409 77.0388 29.1409 77.3388 29.8409 77.6388C30.0409 77.7388 30.3409 77.7388 30.5409 77.6388C31.5409 77.3388 32.5409 77.3388 33.6409 77.3388C34.4409 77.3388 34.8409 77.0388 34.5409 76.0388C35.4409 77.0388 35.4409 77.0388 35.8409 75.9388C35.8409 75.8388 35.9409 75.7388 36.0409 75.7388C36.1409 75.6388 36.2409 75.6388 36.2409 75.6388C36.4409 75.6388 36.4409 75.7388 36.4409 75.9388C36.3409 76.4388 36.4409 76.7388 36.9409 76.7388C37.5409 76.7388 37.0409 76.1388 37.3409 75.9388C37.3409 75.6388 37.4409 75.5388 37.5409 75.3388ZM42.7409 73.8388C43.0409 75.2388 43.0409 75.2388 44.3409 74.8388C45.0409 74.5388 45.8409 74.2388 46.6409 74.3388C47.8409 74.5388 49.0409 74.1388 50.2409 74.0388C50.4409 74.0388 50.7409 73.9388 50.9409 73.8388C51.4409 73.6388 51.4409 73.1388 51.3409 72.7388C51.2409 72.2388 50.8409 72.3388 50.5409 72.3388C49.9409 72.4388 49.2409 72.5388 48.6409 72.6388C46.6409 73.2388 44.7409 73.8388 42.7409 73.8388ZM51.7409 79.0388C52.5409 78.9388 54.3409 78.2388 54.4409 77.9388C54.7409 77.3388 54.7409 76.6388 54.7409 75.9388C54.7409 75.5388 54.7409 75.2388 54.8409 74.9388C54.9409 74.7388 54.9409 74.4388 54.6409 74.3388C54.3409 74.2388 54.0409 74.3388 53.8409 74.6388C53.7409 74.9388 53.6409 75.3388 53.6409 75.6388C53.5409 76.3388 53.4409 77.0388 52.7409 77.6388C52.8409 76.9388 52.9409 76.2388 53.0409 75.6388C53.1409 75.2388 53.2409 74.8388 52.6409 74.7388C52.1409 74.7388 51.6409 74.6388 51.6409 75.4388C51.6409 76.6388 51.6409 77.7388 51.7409 79.0388ZM91.0409 62.9388C90.9409 62.9388 90.8409 62.8388 90.7409 62.8388C89.1409 63.4388 87.4409 63.9388 85.7409 64.4388C85.0409 64.6388 84.7409 65.1388 84.8409 65.8388C85.2409 65.9388 85.6409 66.0388 85.8409 65.6388C86.1409 64.9388 86.2409 64.0388 87.0409 65.3388C87.0409 65.4388 87.4409 65.2388 87.6409 65.2388C88.1409 65.1388 88.5409 64.9388 89.0409 64.7388C89.9409 64.5388 90.6409 63.9388 91.0409 62.9388ZM84.4409 64.9388C82.2409 65.3388 80.4409 66.3388 78.4409 66.8388C77.9409 66.9388 78.0409 67.2388 78.1409 67.6388C78.2409 68.0388 78.4409 68.0388 78.7409 67.9388C79.5409 67.5388 80.5409 67.7388 81.0409 66.8388C81.1409 66.5388 81.4409 66.6388 81.8409 66.7388C83.1409 66.8388 83.8409 66.3388 84.4409 64.9388ZM66.4409 69.7388C65.6409 69.6388 64.0409 69.8388 63.6409 70.1388C63.4409 70.2388 63.0409 70.6388 63.3409 70.7388C63.9409 71.0388 63.2409 71.4388 63.5409 71.7388C65.5409 71.7388 65.9409 71.5388 66.4409 69.7388ZM54.6409 71.6388C54.0409 71.7388 53.3409 71.8388 52.7409 71.9388C52.2409 72.0388 51.8409 73.0388 52.0409 73.4388C52.1409 73.5388 52.3409 73.8388 52.4409 73.4388C52.6409 72.8388 52.8409 72.7388 53.3409 73.1388C53.9409 73.5388 54.4409 73.1388 55.0409 73.0388C55.5409 72.8388 55.5409 72.4388 55.4409 72.0388C55.4409 71.5388 55.0409 71.6388 54.6409 71.6388ZM59.5409 72.5388C60.5409 72.8388 61.3409 72.4388 62.2409 72.2388C62.1409 71.8388 62.0409 71.4388 62.2409 70.9388C62.3409 70.6388 62.1409 70.4388 61.8409 70.4388C61.1409 70.4388 60.5409 70.6388 59.9409 71.1388C59.5409 71.5388 59.2409 71.9388 59.5409 72.5388ZM70.2409 68.9388C68.0409 68.8388 67.7409 69.1388 67.2409 71.0388C69.1409 71.0388 69.6409 70.6388 70.2409 68.9388ZM12.6409 80.6388C10.7409 79.1388 8.84087 78.2388 6.44087 78.0388C8.44087 79.2388 10.2409 80.3388 12.6409 80.6388ZM76.6409 67.6388C75.5409 67.6388 74.6409 67.8388 73.8409 68.0388C73.2409 68.2388 72.8409 68.7388 72.8409 69.6388C74.2409 68.9388 75.7409 69.1388 76.6409 67.6388ZM94.3409 61.2388C93.1409 61.8388 91.6409 62.1388 91.1409 64.0388C92.5409 63.1388 94.0409 62.9388 94.3409 61.2388ZM56.8409 72.9388C57.3409 72.8388 57.8409 72.8388 58.2409 72.5388C58.6409 72.3388 58.8409 71.8388 58.7409 71.4388C58.6409 71.0388 58.1409 71.2388 57.8409 71.2388C57.4409 71.2388 56.9409 71.3388 56.5409 71.5388C56.0409 71.7388 56.0409 72.1388 56.1409 72.5388C56.2409 72.7388 56.4409 72.9388 56.8409 72.9388ZM53.9409 79.8388C53.3409 79.7388 52.9409 80.3388 52.2409 80.1388C51.8409 80.0388 51.5409 80.9388 51.8409 81.4388C52.1409 82.0388 52.4409 81.5388 52.8409 81.5388C53.8409 81.4388 53.7409 80.6388 53.9409 79.8388ZM70.4409 70.2388C71.4409 70.3388 72.1409 70.0388 72.4409 69.1388C72.5409 68.9388 72.5409 68.6388 72.3409 68.4388C72.1409 68.2388 71.8409 68.3388 71.6409 68.4388C71.1409 68.9388 70.6409 69.4388 70.4409 70.2388ZM96.6409 59.2388C95.2409 60.3388 95.2409 60.3388 95.2409 61.9388C95.5409 61.5388 95.7409 61.3388 95.9409 61.0388C96.4409 60.4388 96.3409 59.7388 96.6409 59.2388ZM48.5409 76.8388C48.7409 76.2388 48.8409 75.6388 48.2409 75.3388C47.9409 75.2388 47.4409 75.4388 47.3409 75.9388C47.1409 76.9388 48.2409 76.3388 48.5409 76.8388ZM50.9409 80.3388C50.8409 80.3388 50.6409 80.3388 50.6409 80.5388C50.6409 80.8388 50.9409 80.8388 51.1409 80.8388C51.2409 80.8388 51.3409 80.7388 51.3409 80.5388C51.3409 80.3388 51.1409 80.3388 50.9409 80.3388Z" fill="black"/>
<path d="M62.1406 45.7388C61.3406 44.1388 61.3406 42.5388 60.6406 41.2388C59.8406 39.8388 59.0406 38.4388 57.8406 37.2388C56.7406 36.1388 55.1406 35.6388 54.1406 34.2388C58.2406 34.8388 62.7406 41.9388 62.1406 45.7388Z" fill="black"/>
<path d="M44.9412 70.5388C44.5412 70.5388 44.4412 70.5388 44.3412 70.5388C43.8412 70.5388 43.2412 70.6388 43.1412 70.0388C43.0412 69.5388 43.2412 68.9388 43.7412 68.5388C44.3412 68.1388 44.9412 67.8388 45.6412 67.8388C46.2412 67.8388 46.8412 68.0388 47.4412 68.1388C48.1412 68.2388 48.3412 68.7388 48.4412 69.2388C48.5412 69.7388 47.9412 69.7388 47.6412 69.9388C47.0412 70.1388 46.5412 70.3388 45.9412 70.4388C45.4412 70.5388 45.0412 70.5388 44.9412 70.5388ZM46.3412 69.3388C45.8412 69.1388 45.1412 69.5388 44.8412 68.8388C44.7412 68.6388 44.0412 69.0388 43.9412 69.5388C43.9412 69.9388 44.2412 70.0388 44.5412 69.9388C45.1412 69.9388 45.8412 70.1388 46.3412 69.3388Z" fill="black"/>
<path d="M32.4404 72.3388C32.3404 72.3388 32.0404 72.2388 31.6404 72.2388C31.3404 72.1388 30.9404 72.0388 30.9404 71.6388C30.9404 71.2388 31.1404 70.9388 31.4404 70.7388C32.5404 70.2388 33.6404 69.7388 34.9404 69.7388C35.4404 69.7388 36.1404 70.5388 36.1404 71.0388C36.1404 71.3388 35.9404 71.4388 35.7404 71.5388C34.7404 72.1388 33.7404 72.3388 32.4404 72.3388ZM32.1404 71.2388C32.1404 71.3388 32.1404 71.5388 32.1404 71.6388C32.7404 71.6388 33.4404 71.6388 34.0404 71.6388C34.4404 71.6388 34.8404 71.5388 35.1404 71.2388C35.2404 71.1388 35.3404 71.0388 35.2404 70.8388C35.1404 70.7388 35.0404 70.5388 34.9404 70.6388C34.1404 71.2388 33.0404 70.8388 32.1404 71.2388Z" fill="black"/>
<path d="M66.5412 66.3388C66.2412 66.2388 65.9412 66.2388 65.7412 66.1388C65.0412 65.9388 64.8412 65.3388 65.3412 64.8388C65.7412 64.3388 66.3412 63.9388 66.9412 63.5388C67.2412 63.3388 67.6412 63.4388 67.9412 63.4388C68.6412 63.4388 69.0412 63.9388 69.2412 64.4388C69.4412 65.0388 68.9412 65.3388 68.5412 65.6388C67.9412 66.0388 67.3412 66.3388 66.5412 66.3388ZM66.6412 65.6388C66.9412 65.5388 67.4412 65.5388 67.8412 65.3388C68.1412 65.2388 68.4412 65.0388 68.3412 64.7388C68.2412 64.4388 67.9412 64.3388 67.6412 64.2388C67.1412 64.1388 66.7412 64.4388 66.3412 64.7388C66.1412 64.8388 65.9412 65.0388 66.0412 65.3388C66.0412 65.6388 66.2412 65.6388 66.6412 65.6388Z" fill="black"/>
<path d="M76.541 64.8388C76.141 64.8388 75.741 64.7388 75.441 64.5388C75.241 64.4388 75.041 64.1388 75.241 63.9388C75.741 63.0388 76.141 62.0388 77.341 61.9388C78.041 61.8388 78.941 62.2388 79.141 62.8388C79.341 63.6388 78.841 64.0388 78.341 64.4388C78.041 64.5388 77.041 64.8388 76.541 64.8388ZM76.041 63.9388C76.741 64.2388 77.341 64.1388 77.841 63.9388C78.241 63.8388 78.641 63.5388 78.541 62.9388C78.441 62.5388 77.941 62.4388 77.541 62.5388C76.941 62.7388 76.341 63.0388 76.041 63.9388Z" fill="black"/>
<path d="M53.6405 68.6388C53.7405 68.6388 53.4405 68.6388 53.2405 68.6388C52.7405 68.5388 52.3405 68.3388 52.2405 67.7388C52.1405 67.1388 52.6405 67.0388 53.0405 66.8388C53.7405 66.5388 54.4405 66.2388 55.1405 66.0388C55.9405 65.8388 56.9405 66.1388 57.1405 66.6388C57.2405 67.1388 56.7405 67.8388 56.0405 68.2388C55.3405 68.5388 54.7405 68.7388 53.6405 68.6388ZM53.9405 68.2388C54.7405 68.2388 55.5405 68.0388 56.0405 67.5388C56.2405 67.3388 56.3405 67.0388 56.1405 66.7388C56.0405 66.5388 55.7405 66.4388 55.4405 66.5388C54.7405 66.8388 53.9405 67.0388 53.2405 67.3388C53.0405 67.4388 52.9405 67.5388 52.9405 67.8388C52.9405 68.0388 53.1405 68.1388 53.3405 68.2388C53.5405 68.1388 53.7405 68.1388 53.9405 68.2388Z" fill="black"/>
<path d="M23.3409 72.3388C22.5409 72.3388 22.0409 72.4388 21.5409 72.0388C21.0409 71.6388 21.0409 71.2388 21.4409 70.8388C22.1409 70.2388 24.1409 70.0388 24.9409 70.5388C25.7409 71.0388 25.7409 71.5388 24.9409 71.9388C24.4409 72.3388 23.8409 72.4388 23.3409 72.3388ZM24.5409 71.3388C23.8409 71.1388 23.0409 70.5388 22.2409 71.4388C23.1409 72.0388 23.8409 71.7388 24.5409 71.3388Z" fill="black"/>
<path d="M63.0408 68.3388C63.0408 68.5388 63.0408 68.8388 62.6408 68.8388C62.4408 68.8388 62.3408 68.6388 62.3408 68.4388C62.3408 68.2388 62.4408 67.9388 62.7408 67.9388C63.0408 67.8388 62.9408 68.1388 63.0408 68.3388Z" fill="black"/>
<path d="M27.7406 78.8388C28.3406 79.1388 28.9406 79.3388 29.4406 79.9388C30.1406 80.6388 31.1406 80.8388 31.8406 81.5388C30.1406 81.2388 28.9406 80.0388 27.6406 78.9388C27.6406 78.9388 27.6406 78.8388 27.7406 78.8388Z" fill="black"/>
<path d="M20.7409 79.3388C21.3409 79.9388 22.0409 80.3388 22.8409 80.7388C22.0409 81.4388 21.2409 80.9388 20.5409 80.5388C20.0409 80.2388 20.4409 79.8388 20.7409 79.3388Z" fill="black"/>
<path d="M39.0406 80.8388C37.9406 80.9388 37.2406 80.3388 36.4406 79.8388C36.1406 79.6388 36.1406 79.3388 36.3406 79.0388C36.6406 78.7388 36.7406 79.0388 36.8406 79.2388C37.4406 80.0388 38.3406 80.1388 39.0406 80.8388Z" fill="black"/>
<path d="M44.6406 77.9388C45.2406 78.3388 45.6406 78.5388 46.1406 78.8388C45.2406 79.1388 45.2406 79.1388 44.6406 77.9388Z" fill="black"/>
<path d="M42.1412 80.3388C42.6412 80.2388 42.9412 80.5388 43.1412 80.6388C43.1412 80.2388 42.0412 81.8388 42.1412 80.3388Z" fill="black"/>
<path d="M50.3412 39.5388C50.1412 41.1388 49.1412 42.6388 47.8412 43.7388C47.5412 43.9388 47.1412 44.1388 46.7412 44.1388C45.7412 44.2388 45.2412 43.8388 45.2412 42.8388C45.3412 40.8388 45.9412 39.0388 47.3412 37.6388C47.9412 37.0388 48.7412 37.1388 49.4412 36.9388C49.8412 36.8388 50.0412 37.2388 50.1412 37.5388C50.3412 38.1388 50.2412 38.7388 50.3412 39.5388Z" fill="black"/>
<path d="M43.6406 49.1388C43.2406 49.1388 42.9406 49.0388 42.7406 48.8388C42.5406 48.6388 42.1406 48.4388 42.3406 48.0388C42.4406 47.7388 42.8406 47.7388 43.1406 47.7388C43.9406 47.7388 44.8406 47.6388 45.4406 47.0388C45.6406 46.9388 45.8406 46.8388 45.9406 47.0388C46.0406 47.2388 46.0406 47.4388 46.0406 47.6388C45.7406 48.3388 44.5406 49.1388 43.6406 49.1388Z" fill="black"/>
<path d="M44.641 46.0388C44.441 46.5388 44.041 46.6388 43.641 46.7388C43.141 46.8388 42.841 46.6388 42.641 46.1388C42.541 46.0388 42.641 45.8388 42.741 45.7388C43.341 45.5388 43.841 45.6388 44.441 45.7388C44.541 45.6388 44.641 45.8388 44.641 46.0388Z" fill="black"/>
<path d="M43.6405 40.3388C43.3405 39.7388 43.0405 39.3388 43.2405 38.7388C43.3405 38.4388 43.3405 38.1388 43.7405 38.1388C44.0405 38.1388 44.2405 38.5388 44.1405 38.7388C44.0405 39.3388 44.1405 39.8388 43.6405 40.3388Z" fill="black"/>
<path d="M68.2412 72.4388C67.9412 73.3388 67.4412 74.1388 66.7412 74.8388C66.8412 73.7388 67.8412 73.3388 68.2412 72.4388Z" fill="black"/>
<path d="M72.6406 74.8388C73.0406 74.1388 73.2406 73.7388 74.0406 73.5388C73.6406 74.1388 73.4406 74.5388 72.6406 74.8388Z" fill="black"/>
<path d="M63.541 75.7388C63.341 75.7388 63.041 75.7388 63.141 75.4388C63.241 75.1388 63.241 74.8388 63.641 74.8388C63.841 74.8388 63.841 75.1388 63.941 75.2388C63.941 75.5388 63.841 75.6388 63.541 75.7388Z" fill="black"/>
<path d="M74.941 70.5388C74.741 71.0388 74.441 71.5388 74.041 71.9388C74.141 71.0388 74.141 71.0388 74.941 70.5388Z" fill="black"/>
<path d="M71.441 75.0388C71.641 75.1388 71.941 75.2388 71.941 75.5388C71.941 75.7388 71.741 75.8388 71.441 75.8388C71.241 75.8388 71.041 75.7388 71.041 75.5388C71.041 75.2388 71.241 75.0388 71.441 75.0388Z" fill="black"/>
<path d="M63.5408 78.4388C63.5408 78.6388 63.3408 78.8388 63.1408 78.9388C63.0408 79.0388 62.8408 78.9388 62.8408 78.7388C62.8408 78.4388 63.0408 78.3388 63.2408 78.2388C63.3408 78.1388 63.4408 78.2388 63.5408 78.4388Z" fill="black"/>
<path d="M73.6407 72.2388C73.4407 72.8388 73.2407 73.1388 72.9407 73.3388C72.7407 72.8388 72.9407 72.5388 73.6407 72.2388Z" fill="black"/>
<path d="M91.9412 57.4388C92.8412 57.3388 93.2412 57.7388 93.4412 58.2388C93.6412 58.8388 93.2412 59.2388 92.8412 59.4388C91.8412 59.8388 90.8412 60.3388 89.8412 60.4388C89.3412 60.5388 88.7412 60.6388 88.5412 60.0388C88.3412 59.5388 88.6412 59.0388 89.0412 58.7388C89.9412 57.9388 91.0412 57.7388 91.9412 57.4388ZM90.6412 59.4388C91.2412 59.2388 91.8412 58.9388 92.4412 58.7388C92.5412 58.6388 92.6412 58.5388 92.5412 58.4388C92.4412 58.3388 92.2412 58.2388 92.1412 58.2388C91.5412 58.3388 90.9412 58.6388 90.6412 59.4388Z" fill="black"/>
<path d="M10.941 72.3388C10.541 72.3388 10.141 72.3388 9.74102 72.2388C9.44102 72.1388 9.04102 72.0388 9.04102 71.5388C9.04102 71.1388 9.14102 70.8388 9.44102 70.6388C10.241 70.1388 11.041 69.9388 11.941 70.1388C12.641 70.2388 12.941 70.8388 12.941 71.4388C12.941 72.0388 12.341 72.0388 12.041 72.2388C11.641 72.3388 11.241 72.3388 10.941 72.3388ZM11.141 71.0388C10.841 71.1388 10.241 70.8388 10.241 71.3388C10.241 71.7388 10.741 71.7388 11.041 71.7388C11.341 71.7388 11.841 71.7388 11.841 71.3388C11.741 70.9388 11.441 70.9388 11.141 71.0388Z" fill="black"/>
<path d="M84.8412 67.4388C84.9412 67.8388 84.9412 68.4388 85.6412 67.8388C86.0412 67.5388 86.3412 67.0388 87.3412 66.9388C85.4412 68.6388 83.8412 70.2388 81.7412 71.6388C81.8412 70.4388 82.9412 70.2388 83.3412 69.5388C83.7412 68.7388 84.5412 68.3388 84.8412 67.4388Z" fill="black"/>
<path d="M86.8406 68.7388C86.8406 69.0388 86.6406 69.1388 86.3406 69.2388C86.2406 69.2388 86.1406 69.1388 86.1406 69.1388C86.1406 68.8388 86.3406 68.7388 86.5406 68.6388C86.7406 68.6388 86.8406 68.7388 86.8406 68.7388Z" fill="black"/>
</svg>
