<svg width="100" height="100" viewBox="0 0 100 100" fill="none" xmlns="http://www.w3.org/2000/svg">
<path d="M70.2004 75C68.6004 74.8 66.7004 74.7 65.0004 73.7C63.3004 72.7 61.4004 72 59.7004 70.7C57.8004 69.2 56.7004 67.3 55.8004 65.2C55.4004 64.3 55.1004 63.4 54.6004 62.6C53.3004 60.1 50.2004 59.9 48.6004 62.2C48.4004 62.5 48.2004 62.9 47.9004 63.3C46.5004 65.8 44.3004 67.4 42.1004 69.1C39.5004 71 36.7004 72.6 33.4004 73.2C30.2004 73.8 27.0004 73.7 23.8004 72.6C21.5004 71.8 19.4004 70.5 17.5004 69.2C15.5004 67.9 13.8004 66 12.7004 63.8C10.9004 60.4 9.90037 56.8 8.70037 53.3C8.10037 51.4 7.50037 49.5 6.50037 47.8C6.30037 47 6.10037 46.4 6.00037 45.9C5.70037 44.8 5.80037 44.2 6.80037 43.6C7.50037 43.2 7.80037 42.7 8.00037 42C9.30037 37.5 11.1004 33.1 13.0004 28.7C14.0004 26.4 15.7004 25.5 17.9004 25C18.7004 24.8 19.6004 24.7 20.4004 24.7C22.6004 24.5 26.0004 27.1 26.3004 29.2C26.4004 30 25.7004 31.1 24.9004 31.5C24.2004 31.9 23.5004 31.7 23.0004 31.1C22.4004 30.5 21.8004 30 21.2004 29.4C20.6004 28.9 20.0004 28.4 19.3004 28C17.9004 27.4 17.0004 27.6 16.0004 28.8C14.9004 30.2 14.3004 31.8 13.8004 33.5C13.0004 35.8 11.9004 38 11.0004 40.3C10.9004 40.5 10.8004 40.7 10.7004 40.9C9.90037 42.6 10.1004 42.8 12.0004 42.8C16.8004 42.8 21.5004 43.6 26.2004 44.7C28.7004 45.3 31.2004 45.5 33.6004 46.2C36.5004 47 39.1004 48.2 41.7004 49.5C45.5004 51.3 49.4004 52.4 53.6004 52.6C55.7004 52.7 57.6004 52 59.6004 51.4C62.1004 50.6 64.6004 49.6 67.0004 48.7C70.5004 47.4 74.2004 47 77.9004 46.6C80.0004 46.4 82.1004 45.9 84.3004 45.6C86.1004 45.4 87.9004 45.7 89.7004 45.2C90.4004 45 90.7004 44.9 90.5004 44.1C90.0004 40.7 89.3004 37.4 88.2004 34.1C87.9004 33.1 87.3004 32.4 86.6004 31.7C85.8004 30.9 84.7004 31.1 83.7004 31.6C82.6004 32.1 81.6004 32.8 80.9004 33.7C80.6004 34.1 80.3004 34.5 79.9004 34.8C79.2004 35.4 78.6004 35.3 78.0004 34.6C77.7004 34.2 77.4004 33.7 77.2004 33.2C76.7004 32.1 76.9004 31.5 77.9004 30.9C78.8004 30.4 79.7004 30 80.7004 29.7C81.6004 29.4 82.5004 29.1 83.4004 28.7C85.0004 27.9 87.6004 28.8 89.3004 30.6C91.3004 32.8 91.6004 35.5 92.2004 38.2C92.5004 39.7 92.5004 41.3 92.9004 42.8C93.1004 43.6 93.3004 44 94.2004 44.2C95.6004 44.5 96.0004 45.3 95.5004 46.6C94.4004 49.7 94.2004 53.1 92.5004 56C92.2004 56.6 92.1004 57.4 91.8004 58C89.8004 63 86.9004 67.3 82.6004 70.6C79.6004 73.1 74.3004 74.9 70.2004 75ZM28.5004 55.7C29.1004 55.6 29.5004 55.3 29.5004 54.6C28.6004 54.6 29.1004 55.6 28.5004 55.7C28.5004 56.2 28.5004 56.7 28.5004 57.2C28.7004 56.7 28.9004 56.2 28.5004 55.7ZM34.8004 52.3C35.1004 52.3 35.4004 52.4 35.7004 52.4C36.0004 52.4 36.4004 52.5 36.3004 52C36.3004 51.5 35.9004 51.8 35.7004 51.8C35.2004 51.7 35.1004 52.1 34.8004 52.3C34.7004 51.7 35.3004 51.3 35.4004 50.7C35.4004 50.5 35.4004 50.3 35.3004 50.2C35.0004 50.1 34.9004 50.2 34.7004 50.4C34.3004 51.2 34.7004 51.7 34.8004 52.3ZM17.3004 52C17.1004 52.1 17.0004 52.1 16.8004 52.2C17.0004 51.1 17.1004 50.1 17.3004 48.6C16.1004 49.7 15.6004 50.8 15.6004 51.9C15.6004 53.4 14.9004 54.6 14.4004 55.9C14.3004 55.6 14.4004 55.3 14.0004 55.2C13.7004 55.2 13.5004 55.4 13.6004 55.7C13.7004 56.2 13.4004 56.7 13.8004 57.2C14.3004 56.9 13.8004 56.1 14.4004 55.9C14.4004 56.4 14.1004 56.9 14.6004 57.6C15.2004 55.5 15.7004 53.7 16.8004 52.1C16.9004 53 16.9004 53.9 17.0004 54.8C17.2004 55.9 16.7004 56.7 16.2004 57.6C15.6004 58.5 15.5004 58.5 16.1004 59.6C16.7004 58 17.4004 56.5 17.8004 55C18.0004 54.2 17.3004 54.8 17.0004 54.8C17.3004 54.2 17.6004 53.5 17.8004 52.9C17.9004 52.6 18.0004 52.2 17.5004 52.1C17.3004 51.6 17.9004 51.1 17.7004 50.6C17.4004 51 17.1004 51.4 17.3004 52ZM19.6004 50.4C19.4004 51.4 18.1004 52.1 18.5004 53.6C19.0004 52.4 20.1004 51.7 19.6004 50.4C19.4004 49.5 20.8004 49.2 20.3004 48.2C19.2004 48.3 18.9004 49.2 18.7004 49.9C18.4004 51 19.3004 50.4 19.6004 50.4ZM74.1004 53.4C73.6004 53.3 73.6004 52.7 73.3004 52.3C73.1004 52.7 72.9004 53 72.9004 53.3C72.8004 53.8 72.2004 54.6 72.8004 54.9C73.6004 55.3 73.5004 54.2 73.8004 53.8C73.9004 53.7 74.0004 53.5 74.1004 53.4C74.2004 52.7 74.3004 52 74.1004 51.4C74.0004 52.1 73.8004 52.7 74.1004 53.4ZM31.9004 66.4C32.2004 65.5 33.1004 64.7 32.8004 63.6C34.3004 62.5 35.6004 61.1 35.9004 59C35.6004 59 35.4004 59 35.3004 59C34.2004 59.9 34.2004 59.9 33.8004 58.6C33.8004 58.4 33.7004 58.3 33.7004 58.1C35.2004 58.1 35.6004 57.3 35.0004 55.4C35.0004 56.5 34.4004 57.3 33.8004 58.1C33.2004 58.4 33.3004 59.2 32.7004 59.6C32.9004 56.8 33.2004 53.9 33.5004 50.8C32.3004 51.6 32.3004 52.5 32.4004 53.5C32.6004 55.1 31.9004 58 30.9004 59.2C31.6004 58 30.9004 56.9 30.6004 55.7C29.5004 58.5 28.4004 61.3 27.3004 64.3C28.3004 64.1 28.8004 63.7 28.9004 62.8C28.9004 62.1 29.3004 61.6 30.2004 61.9C29.8004 62.9 29.1004 66.2 29.2004 67C31.1004 66.7 31.3004 65.2 31.5004 63.7L31.4004 63.8C32.3004 63.3 32.4004 62.3 32.8004 61.5C32.9004 61.2 33.0004 60.9 33.4004 61.1C33.7004 61.3 33.6004 61.6 33.5004 61.9C33.3004 62.5 32.7004 62.9 32.8004 63.6C31.6004 64.2 31.7004 65.3 31.9004 66.4C31.8004 67.4 30.8004 68.1 31.1004 69.3C31.9004 69 31.9004 68 32.5004 67.8C32.5004 68 32.4004 68.3 32.4004 68.5C32.4004 69.8 32.5004 69.9 33.7004 69.6C35.5004 69.2 37.0004 68.4 38.6004 67.5C38.9004 67.3 39.2004 67.2 39.1004 66.8C38.9004 65.7 40.0004 64.4 38.9004 63.4C38.8004 63.3 39.2004 63 38.8004 62.9C37.2004 64.4 37.3004 66.9 35.4004 68.6C35.0004 66.9 36.4004 65.2 34.6004 64.2C34.3004 64.4 34.1004 64.8 34.0004 65.2C33.8004 65.7 33.0004 66.4 34.3004 66.7C34.5004 66.8 34.1004 67.8 34.0004 67.7C33.2004 66.5 33.0004 67.8 32.5004 68C32.3004 67.7 32.5004 67.3 32.5004 66.9C32.4004 66.5 32.3004 66.3 31.9004 66.4ZM24.3004 68.9C24.9004 69 25.6004 69.3 26.2004 69.3C26.8004 69.3 27.3004 68.7 27.7004 69.6C27.8004 69.7 28.1004 69.5 28.2004 69.3C28.3004 68.7 28.2004 68.1 27.8004 67.8C27.3004 67.4 27.1004 66.8 26.9004 66.2C25.9004 66.7 26.7004 67.8 25.9004 68.3C25.6004 68.2 25.3004 68 25.0004 67.9C25.1004 67.4 25.3004 66.9 25.3004 66.3C25.3004 65.7 25.5004 64.9 24.7004 64.6C25.2004 64.3 25.8004 63.9 26.0004 63.4C26.1004 63.2 25.9004 62.8 25.9004 62.5C25.9004 62.2 26.2004 62.2 26.4004 62.3C26.6004 62.4 26.6004 63 27.0004 62.6C27.3004 62.4 27.4004 62 27.3004 61.6C27.2004 61.2 26.8004 61.5 26.6004 61.3C26.3004 61.1 26.0004 61.6 25.6004 61.3C25.9004 60 26.5004 58.7 26.4004 57.5C26.3004 56.1 27.4004 55.2 27.1004 53.8C26.8004 52.6 27.5004 51.3 26.9004 49.9C26.4004 50.6 26.3004 51.3 26.2004 52.1C26.1004 53.8 25.8004 55.5 25.4004 57.2C24.9004 59.3 23.9004 61.4 24.1004 63.7C24.1004 64 23.9004 64.2 23.8004 64.5C23.2004 65.7 23.7004 66.9 25.0004 67.7C24.8004 68.2 24.7004 68.6 24.3004 68.9C24.2004 68.6 24.5004 68.2 24.0004 68C22.8004 67.5 22.3004 66.6 22.3004 65.2C22.3004 64.3 22.0004 63.5 21.9004 62.5C21.2004 63.9 20.9004 65.2 21.4004 66.1C22.1004 67.2 22.4004 68.7 24.2004 68.8C24.2004 68.8 24.3004 68.9 24.3004 68.9ZM71.7004 63.9C72.3004 63.4 72.4004 62.7 72.4004 62C72.3004 60.4 72.8004 58.9 72.9004 57.4C72.9004 56.9 73.4004 56.5 72.9004 55.9C72.4004 56.3 72.2004 56.9 72.1004 57.5C71.4004 59.6 71.5004 61.8 71.7004 63.9C71.5004 63.9 71.2004 63.9 71.2004 64.2C71.1004 65.6 70.8004 67 71.2004 68.4C71.8004 67 71.7004 65.5 71.7004 63.9ZM85.1004 62.2C85.7004 62.3 86.0004 61.9 86.2004 61.5C87.4004 58.8 88.6004 56.2 89.3004 53.3C89.5004 52.5 89.7004 51.5 88.8004 50.8C88.5004 52.1 88.1004 53.2 88.3004 54.4C88.3004 54.6 88.3004 54.9 88.2004 55.1C87.4004 56.3 87.2004 57.8 86.7004 59.1C86.3004 60.2 85.8004 61.3 85.1004 62.2C84.4004 63.2 83.7004 64.1 83.5004 65.4C84.3004 64.4 85.3004 63.6 85.1004 62.2ZM72.8004 69C73.0004 68.7 73.4004 68.3 73.5004 68C73.7004 66.5 74.5004 65.2 74.3004 63.6C74.2004 62.8 74.7004 62.4 75.4004 62.3C76.2004 62.2 76.7004 61.6 76.3004 61.4C75.4004 61 75.7004 60.5 75.9004 59.9C76.0004 59.5 76.0004 59.1 75.8004 58.7C74.9004 58.9 74.9004 59.6 74.9004 60.3C74.8004 61.1 74.7004 61.9 73.9004 62.3C73.8004 62.3 73.7004 61.6 73.4004 62.2C73.2004 62.5 73.1004 62.7 73.6004 63C74.0004 63.3 73.9004 63.7 73.5004 63.9C72.8004 64.2 72.5004 64.7 72.9004 65.3C72.9004 65.4 73.4004 65 73.3004 65.5C73.2004 66 73.1004 66.4 73.0004 66.9C72.8004 67.6 72.8004 68.3 72.8004 69C72.3004 69 71.8004 69.1 71.5004 69.7C71.4004 70 71.3004 70.4 71.6004 70.7C71.8004 70.9 72.1004 70.9 72.4004 70.8C72.7004 70.7 72.8004 70.4 72.7004 70.1C72.8004 69.7 72.8004 69.3 72.8004 69ZM75.9004 69.1C75.9004 68.9 75.9004 68.7 76.0004 68.6C77.1004 67.4 77.4004 65.9 77.4004 64.3C77.4004 64.1 77.5004 63.8 77.6004 63.6C78.2004 61.4 79.1004 59.2 77.9004 56.7C78.0004 58.2 77.6004 59.4 77.4004 60.6C76.9004 62.9 76.7004 65.2 75.6004 67.3C75.4004 67.8 75.2004 68.3 75.1004 68.8C75.0004 69.3 75.5004 69.1 75.7004 69.1C75.8004 69.5 75.1004 70.1 75.9004 70.3C76.4004 70.4 76.7004 69.9 76.7004 69.4C76.7004 69.1 77.0004 68.7 76.4004 68.5C76.3004 68.7 76.1004 68.9 75.9004 69.1ZM82.5004 60.4C82.4004 59.8 83.0004 59.3 82.6004 58.4C82.4004 58.7 82.3004 58.9 82.2004 59.1C82.0004 59.5 81.7004 59.7 81.3004 59.5C81.0004 59.3 81.1004 59 81.2004 58.7C81.6004 57.2 82.0004 55.7 82.4004 54.2C82.7004 53.3 82.5004 52.6 81.8004 51.8C81.1004 54.6 80.9004 57.4 80.0004 60.1C80.0004 60.2 79.9004 60.4 80.0004 60.4C80.8004 61.2 80.4004 62.4 80.8004 63.3C81.0004 63.1 81.2004 62.8 81.4004 62.6C81.4004 62.9 81.2004 63.2 81.5004 63.4C81.7004 63.5 81.9004 63.4 82.1004 63.1C82.8004 62.4 83.4004 61.5 82.5004 60.4ZM61.3004 54.3C60.7004 54.1 60.4004 54.4 60.2004 54.9C59.9004 55.6 59.6004 56.3 59.3004 57.1C58.9004 56.4 59.4004 55.7 59.4004 54.9C57.9004 56.2 57.5004 57.7 57.9004 59.4C58.0004 59.9 58.3004 60.2 58.2004 60.8C57.9004 62.6 58.6004 64.2 59.5004 65.7C59.7004 66.1 59.9004 66.8 60.6004 66.6C61.1004 66.4 61.2004 65.2 60.7004 64.7C60.7004 64.7 60.3004 64.9 60.2004 64.4C60.1004 63.6 60.0004 62.9 60.2004 62.1C60.4004 61.2 60.6004 60.4 60.8004 59.5C60.9004 59 61.1004 58.4 60.6004 57.7C60.4004 58.7 60.3004 59.4 60.1004 60.2C60.1004 60.5 60.0004 61 59.5004 61C59.4004 60.7 59.2004 60.3 59.3004 60.2C60.0004 59.1 59.7004 57.5 60.9004 56.5C61.1004 56.4 61.4004 55.9 61.1004 55.7C60.1004 55.1 61.1004 54.7 61.3004 54.3C61.6004 54.2 62.0004 54.7 62.2004 54C62.2004 53.8 62.4004 53.6 62.1004 53.6C61.7004 53.5 61.5004 53.8 61.3004 54.1C61.3004 54.2 61.3004 54.2 61.3004 54.3ZM21.3004 59.7C21.1004 58.6 21.9004 57.6 20.9004 56.9C21.0004 55.6 20.8004 54.2 21.5004 52.9C22.1004 51.8 22.0004 51.8 21.7004 50.5C19.7004 54.3 18.5004 58.2 18.8004 62.3C18.3004 62.3 18.1004 62.2 17.8004 62.2C18.1004 63.2 18.0004 64.5 19.6004 65.1C19.3004 63.7 20.2004 62.8 20.5004 61.8C20.7004 61.3 21.0004 61.2 21.5004 61.3C22.0004 61.3 22.3004 61.5 22.3004 62.1C22.3004 62.5 22.2004 62.9 22.7004 63.3C23.4004 62.5 24.0004 61.8 23.3004 60.5C22.9004 59.7 23.2004 58.6 23.8004 57.7C24.6004 56.5 24.9004 54.5 24.6004 53.1C24.0004 53.9 24.5004 55.1 23.5004 56C23.6004 54.8 23.6004 53.8 23.8004 52.8C23.8004 52.6 24.6004 52.6 24.0004 52.2C23.7004 52 23.3004 52.2 23.2004 52.7C23.0004 54.2 21.3004 55.4 22.4004 57.1C22.6004 57.4 22.4004 57.9 22.2004 58.3C21.8004 58.6 21.6004 59.1 21.3004 59.7ZM63.2004 69.1C63.3004 68.8 63.5004 68.6 63.4004 68.5C63.0004 67.2 64.1004 65.6 62.7004 64.4C62.6004 64.3 62.7004 63.9 62.7004 63.7C62.7004 62.5 62.7004 61.3 63.0004 60.1C63.2004 59.2 63.4004 58.4 63.5004 57.5C63.5004 57.2 63.8004 56.7 63.0004 56.6C62.4004 56.6 62.0004 56.5 61.9004 57.3C61.8004 58.5 61.5004 59.6 61.3004 60.8C61.3004 60.9 61.3004 61 61.3004 61.2C61.6004 61.8 61.7004 60.3 61.9004 61.1C62.0004 61.5 61.8004 61.9 61.7004 62.3C61.5004 63.5 61.7004 64.8 61.2004 66C61.0004 66.6 62.0004 67.1 61.8004 67.5C61.4004 68.9 62.6004 68.7 63.2004 69.1ZM38.8004 58.6C38.2004 60 37.9004 61.6 37.1004 63C37.0004 63.2 36.9004 63.3 36.9004 63.5C36.9004 63.8 37.1004 63.8 37.4004 63.9C37.7004 63.9 37.9004 63.9 37.8004 63.6C37.5004 61.9 39.1004 61.4 39.9004 60.4C40.0004 60.3 40.4004 60.4 40.8004 60.5C40.7004 61.6 40.2004 62.7 40.3004 63.9C40.6004 63.6 40.8004 63.4 40.8004 63.2C41.2004 62.1 41.7004 61.1 41.8004 60C41.1004 59.8 40.5004 59.3 39.8004 59.4C39.7004 59.4 39.2004 59.5 39.1004 59.6C38.9004 59.2 39.1004 58.8 38.8004 58.6ZM67.8004 63.3C67.9004 63.3 68.1004 63.4 68.2004 63.4C69.2004 61.3 70.0004 59.2 70.0004 56.9C70.5004 57.1 70.1004 57.8 70.6004 57.8C71.2004 57.8 71.0004 57.2 71.1004 56.8C71.1004 56.6 71.1004 56.3 71.1004 56.1C71.2004 55.4 70.7004 55.6 70.3004 55.5C69.6004 55.4 69.3004 56 69.2004 56.4C68.7004 58.7 68.3004 61 67.8004 63.3ZM40.4004 52.4C40.2004 53.3 40.0004 54.1 39.9004 54.9C39.8004 55.2 39.9004 55.5 40.3004 55.6C40.7004 55.7 40.8004 55.3 40.8004 55C40.7004 54.2 41.2004 54.2 41.8004 54.1C42.4004 53.9 42.4004 54.4 42.6004 54.7C43.0004 55.4 43.4004 56.3 44.6004 55.8C43.6004 54 42.5004 53.1 40.4004 52.4ZM29.1004 50.1C28.2004 51.4 26.7004 58.6 27.0004 60.3C27.4004 58.4 28.4004 56.7 28.2004 54.6C28.2004 54.1 28.3004 53.5 28.7004 53.1C29.5004 52.3 29.3004 51.3 29.1004 50.1ZM65.3004 63.8C67.1004 59.5 67.2004 58.8 66.6004 57.2C66.1004 59.5 65.7004 61.7 65.3004 63.8ZM77.4004 69.6C78.9004 69.7 78.6004 68.6 78.9004 67.9C79.5004 66.4 79.5004 66.4 79.4004 65.5C78.5004 66.8 77.8004 68.1 77.4004 69.6ZM81.7004 64.1C80.4004 65.1 79.9004 66.6 79.6004 68.6C81.2004 67.2 81.3004 65.6 81.7004 64.1ZM63.2004 63.7C63.3004 63.7 63.4004 63.7 63.6004 63.7C63.8004 62.3 64.0004 60.8 64.3004 59.4C64.3004 59.2 64.5004 58.9 64.1004 58.8C63.8004 58.7 63.6004 59 63.6004 59.2C63.4004 60.8 62.9004 62.2 63.2004 63.7ZM65.8004 56.3C64.9004 58.4 64.5004 60.7 64.3004 63.1C64.6004 63 64.8004 62.9 64.8004 62.9C65.0004 60.7 65.5004 58.5 65.8004 56.3ZM64.8004 56.2C66.0004 54.8 66.2004 54.1 65.9004 52.2C65.5004 52 65.3004 52.4 64.9004 52.5C64.6004 52.5 64.2004 52.4 64.0004 52.9C64.1004 53.5 64.7004 53 64.8004 53.3C65.0004 53.7 66.0004 53.5 65.4004 54.3C65.0004 54.7 64.8004 55.3 64.8004 56.2ZM86.0004 52.1C85.4004 52.8 84.9004 56.1 85.0004 57.5C85.7004 55.7 86.0004 53.9 86.0004 52.1ZM68.6004 64.6C67.8004 65.9 68.1004 67 68.5004 68.1C68.6004 68.3 68.7004 68.4 68.9004 68.3C69.1004 68.3 69.2004 68.1 69.2004 67.9C69.3004 66.9 69.2004 65.8 68.6004 64.6ZM65.3004 70.2C65.1004 69.1 64.7004 68.5 64.6004 67.7C64.5004 67 64.7004 66.2 64.0004 65.7C64.1004 66.6 64.2004 67.6 64.0004 68.4C63.6004 69.7 64.3004 69.9 65.3004 70.2ZM69.7004 54.7C69.9004 53.6 70.2004 52.7 70.8004 52C70.9004 51.8 71.0004 51.6 71.0004 51.3C71.0004 51 71.0004 50.7 70.7004 50.6C70.3004 50.5 69.9004 50.7 69.9004 51.1C70.0004 52.1 69.5004 52.9 69.3004 53.8C69.3004 54 69.3004 54.3 69.7004 54.7ZM17.2004 62.9C17.4004 60.7 17.4004 60.7 16.7004 59.7C15.9004 61.1 16.0004 61.5 17.2004 62.9ZM38.4004 55.4C38.2004 57.1 37.2004 58.5 36.6004 60.5C38.0004 59.2 38.7004 57.2 38.4004 55.4ZM78.1004 65.4C78.9004 64.3 79.3004 63 79.3004 61.4C78.5004 62.7 78.1004 63.9 78.1004 65.4ZM33.7004 50.2C33.2004 49.4 32.7004 49.6 32.3004 49.5C31.4004 49.1 31.2004 49.8 31.0004 50.4C31.0004 50.5 31.0004 50.8 31.1004 50.9C31.3004 51.1 31.6004 51.1 31.7004 50.8C32.0004 50 32.7004 50.1 33.7004 50.2ZM26.5004 48.4C26.4004 48.4 26.3004 48.3 26.2004 48.3C25.7004 49.3 25.3004 50.3 24.8004 51.2C24.7004 51.5 24.6004 51.8 25.0004 51.9C25.2004 52 25.4004 51.7 25.5004 51.5C25.9004 50.5 26.2004 49.5 26.5004 48.4ZM82.2004 65.1C83.6004 63.7 84.2004 62.3 84.1004 60.9C83.5004 62.4 82.9004 63.8 82.2004 65.1ZM17.9004 58.1C18.0004 58.2 18.1004 58.2 18.2004 58.3C18.6004 56.9 19.6004 55.7 19.1004 54.1C18.8004 55.4 18.4004 56.8 17.9004 58.1ZM84.3004 52.7C83.9004 53.7 83.4004 54.7 83.7004 55.9C84.3004 54.9 84.5004 53.8 84.3004 52.7ZM45.3004 58C44.6004 58.9 44.6004 60 44.4004 61.1C46.0004 60.4 45.4004 59.1 45.3004 58ZM40.8004 65.7C41.6004 65.1 42.6004 64.7 42.4004 63.3C41.3004 63.7 41.0004 64.6 40.8004 65.7ZM66.0004 68C66.0004 69.2 66.2004 70.2 66.6004 70.4C66.8004 70.5 67.0004 70.4 67.0004 70.2C67.3004 69.3 66.7004 68.8 66.2004 68.2C66.3004 68.1 66.2004 68.1 66.0004 68ZM23.0004 47.1C22.1004 47.2 21.1004 46.6 20.3004 47.5C21.1004 47.1 22.1004 48.2 23.0004 47.1ZM30.7004 69C30.7004 68.6 30.7004 68.3 30.3004 68.3C29.7004 68.4 29.2004 68.6 29.2004 69.3C29.2004 69.8 29.7004 69.7 30.0004 69.7C30.5004 69.8 30.7004 69.5 30.7004 69ZM68.5004 51.1C67.9004 50.8 67.5004 51.2 67.1004 51.3C66.8004 51.4 66.6004 51.7 66.8004 52C67.0004 52.4 67.3004 52.5 67.7004 52.3C68.1004 52.1 68.4004 51.7 68.5004 51.1ZM82.5004 49C81.4004 49.4 81.4004 49.5 82.3004 51.1C82.7004 50.3 82.7004 49.7 82.5004 49ZM86.3004 50.6C86.7004 50.1 87.0004 49.7 87.3004 49.4C87.5004 49.1 87.5004 48.9 87.1004 48.7C86.8004 48.6 86.6004 48.6 86.4004 48.9C86.3004 49.4 86.0004 49.9 86.3004 50.6ZM12.3004 51.6C13.1004 50.7 13.1004 49.7 13.3004 48.5C12.3004 49.5 12.1004 50.4 12.3004 51.6ZM27.6004 49.3C28.2004 49.1 28.5004 48.7 28.8004 48.1C28.3004 47.8 27.7004 47.8 26.9004 47.7C27.2004 48.4 27.4004 48.9 27.6004 49.3ZM82.9004 49.6C83.7004 49.6 84.2004 49.6 84.7004 49.6C84.8004 49.6 84.9004 49.3 85.0004 49.2C85.0004 49 84.9004 48.8 84.7004 48.8C84.0004 48.7 83.4004 48.6 82.9004 49.6ZM67.2004 61.9C67.1004 62.9 66.9004 63.9 66.8004 64.8C67.5004 63.9 67.5004 62.9 67.2004 61.9ZM71.8004 51.9C72.6004 50.9 73.0004 50.4 73.0004 50C72.1004 50.6 72.1004 50.6 71.8004 51.9ZM25.2004 48.5C25.6004 48.5 25.8004 48.2 25.8004 47.8C25.9004 47.2 25.4004 47.2 25.0004 47.2C24.7004 47.2 24.4004 47.2 24.4004 47.6C24.4004 48.1 24.6004 48.5 25.2004 48.5ZM15.4004 60.5C15.6004 59.9 15.5004 59.4 15.2004 58.9C15.1004 58.7 14.9004 58.6 14.6004 58.7C14.4004 58.8 14.3004 59.1 14.4004 59.3C14.6004 59.7 14.8004 60.1 15.4004 60.5ZM39.5004 54.6C39.6004 54.1 39.8004 53.6 39.9004 53.2C40.0004 52.9 39.7004 52.8 39.5004 52.8C39.3004 52.8 39.0004 52.9 39.0004 53.2C38.9004 53.6 39.2004 54.1 39.5004 54.6ZM30.1004 50.2C30.4004 49.8 30.6004 49.4 30.9004 49C30.4004 48.8 30.0004 48.5 29.2004 48.8C30.0004 49.1 29.7004 49.8 30.1004 50.2ZM62.8004 55.5C63.8004 54.8 63.8004 54.8 63.3004 53.9C62.8004 54.3 62.7004 54.9 62.8004 55.5ZM67.8004 68.5C68.1004 69 67.9004 69.8 68.8004 69.8L68.9004 69.7C68.9004 69 68.5004 68.7 67.8004 68.5ZM72.6004 71.2C71.8004 71.2 70.9004 71.2 70.1004 71.2C70.9004 71.4 71.7004 71.6 72.6004 71.2ZM79.4004 51C79.5004 51.1 79.6004 51.1 79.6004 51.2C79.7004 51.1 79.8004 50.9 79.9004 50.8C80.1004 50.4 80.4004 50 80.2004 49.5C80.2004 49.4 80.0004 49.3 79.9004 49.4C79.3004 49.6 79.7004 50.2 79.4004 50.6C79.5004 50.6 79.5004 50.8 79.4004 51ZM75.3004 51C75.7004 50.6 75.9004 50.2 75.6004 49.6C75.6004 49.5 75.3004 49.5 75.3004 49.6C74.8004 50.1 74.9004 50.5 75.3004 51ZM16.1004 48.5C15.1004 49 15.1004 49.6 15.1004 50.6C15.6004 50 16.0004 49.5 16.1004 48.5ZM76.6004 50.7C76.9004 50.6 77.1004 50.4 77.0004 50C77.0004 49.7 76.8004 49.5 76.6004 49.5C76.2004 49.5 76.1004 49.7 76.1004 50.1C76.1004 50.4 76.3004 50.6 76.6004 50.7ZM35.2004 54C35.7004 54.3 36.0004 54.3 36.0004 53.6C36.0004 53.3 36.0004 53.2 35.6004 53.3C35.3004 53.4 34.7004 53.1 34.6004 53.7C34.6004 54.3 34.9004 54 35.2004 54ZM79.4004 58.3C79.4004 58.5 79.5004 58.5 79.6004 58.4L79.7004 58.3C80.0004 57.9 80.0004 57.4 79.9004 56.7C79.6004 57.3 79.3004 57.7 79.4004 58.3ZM76.7004 53.3C76.4004 53.9 76.3004 54.5 76.5004 55.5C77.1004 54.6 77.0004 53.9 76.7004 53.3ZM65.6004 69C65.6004 68.4 65.6004 68.1 65.6004 67.9C65.6004 67.6 65.6004 67.2 65.2004 67.3C64.9004 67.4 64.8004 67.7 64.9004 68C65.1004 68.3 65.2004 68.5 65.6004 69ZM37.9004 52.4C38.3004 52.3 38.4004 51.9 38.4004 51.6C38.4004 51.4 38.2004 51 38.0004 51.1C37.7004 51.2 37.6004 51.7 37.6004 52C37.5004 52.2 37.7004 52.3 37.9004 52.4ZM19.5004 47.4C19.5004 47.1 19.3004 47 19.1004 47C18.8004 47 18.6004 47.1 18.7004 47.4C18.7004 47.6 18.8004 47.8 19.0004 47.7C19.3004 47.8 19.4004 47.6 19.5004 47.4ZM18.0004 47.4C17.2004 47.2 16.7004 47.1 16.1004 47.8C16.8004 47.5 17.4004 47.9 18.0004 47.4ZM15.1004 48.2C15.1004 48 15.1004 47.8 14.8004 47.9C14.5004 48 14.3004 48.3 14.4004 48.6C14.4004 48.7 14.4004 49 14.6004 48.9C15.0004 48.8 15.1004 48.6 15.1004 48.2ZM23.2004 48.8C23.2004 48.6 23.0004 48.5 22.9004 48.5C22.7004 48.5 22.5004 48.6 22.5004 48.7C22.4004 49 22.7004 49.1 22.9004 49.1C23.1004 49.1 23.2004 49 23.2004 48.8ZM86.6004 54.3C86.3004 54.4 86.3004 54.6 86.3004 54.8C86.3004 54.9 86.2004 55.2 86.5004 55.1C86.7004 55 86.9004 54.8 86.8004 54.5C86.8004 54.4 86.6004 54.4 86.6004 54.3ZM67.7004 55.7C67.9004 55.6 68.1004 55.4 68.0004 55.2C68.0004 55 67.8004 54.7 67.6004 54.8C67.5004 54.8 67.4004 55.2 67.4004 55.4C67.4004 55.5 67.4004 55.7 67.7004 55.7ZM30.5004 53C30.6004 52.8 30.8004 52.6 30.9004 52.4C31.0004 52.3 30.9004 52.1 30.8004 52.1C30.6004 52.2 30.5004 52.4 30.4004 52.6C30.3004 52.7 30.5004 52.9 30.5004 53ZM39.8004 57.9C39.9004 57.7 40.0004 57.6 40.1004 57.5C40.2004 57.3 40.5004 56.9 40.1004 56.9C39.7004 56.9 39.7004 57.4 39.8004 57.9ZM65.3004 65.5C65.1004 65.5 65.0004 65.6 65.0004 65.8C65.0004 66 65.0004 66.3 65.1004 66.3C65.4004 66.4 65.5004 66.2 65.6004 66C65.6004 65.7 65.5004 65.6 65.3004 65.5ZM76.5004 58.2C76.7004 58.5 76.2004 58.8 76.7004 59.1C76.5004 58.9 76.9004 58.5 76.5004 58.2Z" fill="black"/>
<path d="M31.4999 63.8C31.2999 64 31.0999 64.1 30.7999 64.3C29.8999 63.2 30.6999 62.5 31.4999 61.6C31.8999 62.5 31.1999 63.2 31.4999 63.8Z" fill="black"/>
<path d="M32.8006 59.6C32.8006 59.7 32.8006 59.7 32.8006 59.8C32.8006 60.1 32.7006 60.4 32.3006 60.4L32.1006 60.2C32.2006 59.7 32.4006 59.5 32.8006 59.6Z" fill="black"/>
<path d="M20.7999 58.1C20.4999 59.4 20.2999 60.7 19.9999 62C19.9999 60.7 19.3999 59.2 20.7999 58.1Z" fill="black"/>
<path d="M59.5004 61C59.4004 61.9 60.3004 62.6 59.7004 63.6C59.4004 62.7 58.9004 62 59.5004 61Z" fill="black"/>
<path d="M38.9002 64.8C38.8002 65 38.8002 65.1 38.7002 65.3C38.6002 65.5 38.5002 65.6 38.4002 65.8C38.1002 65.7 38.2002 65.4 38.3002 65.3C38.4002 65.1 38.6002 64.9 38.7002 64.7C38.8002 64.7 38.8002 64.7 38.9002 64.8Z" fill="black"/>
</svg>
