<svg width="100" height="100" viewBox="0 0 100 100" fill="none" xmlns="http://www.w3.org/2000/svg">
<path d="M39.1636 35.4598C38.9823 35.2016 38.7801 34.9587 38.559 34.7337C36.4519 32.8969 36.764 30.6463 37.582 28.3289C37.8622 27.5352 38.2647 26.7835 38.597 26.0066C38.9846 25.1003 39.2963 24.2607 38.5456 23.3126C38.4318 23.1499 38.353 22.9654 38.3141 22.7707C38.2753 22.576 38.2773 22.3753 38.3201 22.1814C38.3628 21.9876 38.4453 21.8046 38.5624 21.6443C38.6795 21.484 38.8286 21.3497 39.0003 21.2499C39.4532 20.873 39.9146 20.5056 40.3544 20.1138C40.9729 19.6828 41.4257 19.0534 41.6378 18.3299C41.8498 17.6064 41.8084 16.8322 41.5204 16.1355C41.3372 15.7512 41.2906 15.3159 41.3884 14.9016C41.4862 14.4873 41.7226 14.1188 42.0583 13.857C43.6194 12.3805 45.1732 11.0803 47.5765 11.9378C48.714 12.3436 49.3299 12.0031 49.4814 10.9354C49.7406 9.10868 51.1472 8.98594 52.4182 8.5478C52.9379 8.34806 53.512 8.34126 54.0363 8.52865C54.5606 8.71604 55.0003 9.08519 55.2757 9.5691C55.4739 9.78703 55.6893 9.98874 55.9198 10.1723C56.3101 9.97424 56.6821 9.74199 57.0314 9.47827C57.6624 8.90859 58.4122 8.48631 59.2265 8.24198C60.0408 7.99766 60.8992 7.93739 61.7397 8.06555C63.1936 8.22428 63.8211 8.66773 64.0705 10.1277C64.0707 10.4145 64.1602 10.6941 64.3265 10.9278C64.4927 11.1615 64.7276 11.3377 64.9984 11.432C66.3842 11.8848 67.4783 12.9451 69.116 12.9551C70.3863 12.9629 71.5675 14.7496 71.1835 16.1983C70.5648 18.5317 71.9422 20.2985 72.4953 22.2668C72.7958 23.3359 73.2838 24.237 72.8745 25.3931C72.7742 25.9971 72.755 26.6117 72.8172 27.2208C73.3793 27.181 73.936 27.0855 74.4792 26.9357C75.141 26.676 75.7309 26.2316 76.3849 25.9447C77.2345 25.5298 78.192 25.3895 79.1249 25.543C80.0578 25.6966 80.9199 26.1365 81.5917 26.8017C83.729 28.6354 84.7757 30.8039 84.1079 33.6528C84.0153 34.1958 84.0491 34.7527 84.2068 35.2805C84.3645 35.8082 84.6419 36.2924 85.0172 36.6955C85.7506 37.702 86.3946 38.632 85.8835 40.0483C85.5765 40.8989 86.204 41.479 87.1035 41.6744C88.6882 42.015 90.1209 42.8575 91.1887 44.0769C91.6201 44.5098 91.9505 45.0326 92.1565 45.608C92.3625 46.1833 92.4389 46.7971 92.3802 47.4054C92.1972 49.6119 92.2564 49.6515 94.2856 50.2593C95.4119 50.5966 96.6874 52.4902 96.6789 54.1111C96.6814 55.8399 96.5663 57.5668 96.3344 59.28C95.9777 61.471 95.1392 63.5555 93.8792 65.3831C93.5378 66.0798 93.2444 66.7991 93.0011 67.5358C92.0692 69.5212 91.1699 71.5261 90.1331 73.458C88.6752 76.2208 86.6225 78.6257 84.1229 80.4994C82.8186 81.4725 81.6006 82.5648 80.2778 83.51C76.4555 86.3729 72.093 88.4321 67.4534 89.5634C65.1008 90.0446 62.7187 90.3683 60.323 90.5323C55.4059 90.9555 50.4815 91.2719 45.5595 91.623C45.1109 91.6813 44.6563 91.6752 44.2093 91.6049C41.1322 90.9144 38.0419 90.2654 34.9988 89.4515C32.2598 88.719 29.5757 87.7933 26.8673 86.953C26.3757 86.8005 25.8725 86.677 25.3946 86.4908C24.4071 86.198 23.4558 85.7945 22.559 85.2878C19.8598 83.4268 17.2206 81.4769 14.6109 79.4928C13.9311 78.9095 13.3249 78.2456 12.8056 77.5157C10.1838 74.1718 8.06944 70.4596 6.5306 66.4989C5.9821 65.0518 5.54832 63.5638 5.23327 62.0487C4.69186 59.9348 4.28835 57.7881 4.02527 55.6219C3.79499 53.1279 5.16819 51.1426 6.94076 49.5351C9.80511 47.0388 13.0348 44.9956 16.5174 43.4766C18.8896 42.4068 21.339 41.5172 23.8448 40.8155C27.4809 39.8153 31.2295 39.2819 35.0002 39.2284C35.4412 39.2265 35.8677 39.0704 36.2057 38.7872C37.194 37.7721 38.0977 36.6747 39.1636 35.4598ZM67.4306 61.2746C67.5337 60.2218 67.6368 59.169 67.7621 57.8896C66.8493 58.1179 66.229 58.2662 65.6122 58.4286C63.3976 59.0117 61.7722 60.6022 59.9378 61.8313C57.724 63.3148 57.2215 65.5651 57.2951 67.9816C57.3306 69.1468 57.9501 69.481 59.1739 69.2499C59.9897 69.0959 60.8022 68.9225 61.6088 68.7593C60.6094 66.947 61.164 65.7809 63.2569 65.4C63.96 65.2733 64.6703 65.1907 65.3836 65.1528C65.9323 65.088 66.488 65.1838 66.9834 65.4286C67.4787 65.6734 67.8923 66.0566 68.1742 66.5318C68.4027 66.9047 68.6282 67.2794 68.9104 67.7445L71.5843 66.9689C72.1661 65.3038 73.0858 64.0185 74.9725 63.8621C76.557 63.7308 78.2442 63.3538 79.1034 65.2543C80.657 64.8137 81.4782 63.5521 82.517 62.6013C82.6391 62.4206 82.7226 62.2167 82.7623 62.0023C82.802 61.7879 82.797 61.5676 82.7477 61.3552C82.5792 60.458 82.1284 59.6382 81.4611 59.0154C80.7938 58.3925 79.9449 57.9992 79.0383 57.8928C76.7488 57.5226 74.4413 57.2741 72.1255 57.1483C71.255 57.0725 70.3238 56.8224 69.4381 57.6595C69.8259 58.0374 70.1047 58.5127 70.2453 59.0355C70.3859 59.5583 70.3831 60.1094 70.2371 60.6307C70.1166 61.1335 70.1108 61.657 70.2203 62.1623C70.3297 62.6676 70.5516 63.1418 70.8694 63.5497C71.0203 63.7223 71.1287 63.9278 71.186 64.1498C71.2432 64.3719 71.2477 64.6042 71.199 64.8283C71.1503 65.0523 71.0499 65.2619 70.9057 65.4401C70.7615 65.6184 70.5776 65.7605 70.3687 65.8549C70.1482 66.0193 69.8955 66.1353 69.6271 66.1955C69.3587 66.2557 69.0806 66.2586 68.811 66.2041C68.6071 66.0285 68.4469 65.8078 68.3431 65.5595C68.2393 65.3112 68.1948 65.0422 68.2132 64.7737C68.3416 63.9976 68.5524 63.2374 68.842 62.5061L67.8027 61.6692L67.4306 61.2746ZM16.1512 50.7463C15.6618 50.9839 15.2494 51.3549 14.9616 51.8166C14.6738 52.2783 14.5222 52.8119 14.5244 53.3559C15.0588 52.4777 15.5932 51.5995 16.1276 50.7212C17.4845 49.3909 19.1842 48.4637 21.0372 48.043C22.7134 47.5172 25.8782 48.2964 26.5222 49.6378C27.28 51.2161 26.5987 52.7907 25.7243 54.2252C25.556 54.5012 25.2813 54.7133 25.1112 54.9886C24.9352 55.3284 24.7812 55.6791 24.6503 56.0386C26.1115 56.9123 28.0135 57.3944 27.9059 59.5296C28.1566 59.5869 28.415 59.6023 28.6706 59.5754C29.0139 59.3855 29.3941 59.2722 29.7853 59.2433C30.1765 59.2143 30.5692 59.2705 30.9366 59.4078C31.304 59.5452 31.6373 59.7605 31.9136 60.0389C32.1899 60.3173 32.4025 60.6523 32.537 61.0208C32.6567 61.2416 32.827 61.4309 33.034 61.5733C33.2409 61.7156 33.4786 61.807 33.7276 61.8399C35.1388 61.5114 36.0036 62.5191 37.12 62.9026C37.6168 63.0461 38.0526 63.3491 38.3601 63.7648C38.6676 64.1805 38.8299 64.6859 38.8218 65.2029C38.9066 66.1522 39.0175 67.0987 39.1208 68.0838H42.0278C40.7236 65.8477 39.5999 63.7739 38.3359 61.791C36.7494 59.3021 35.0559 56.8823 33.3942 54.4426C31.5501 51.7351 29.6764 49.0479 27.844 46.3325C27.5847 45.9166 27.1913 45.6016 26.7287 45.4396C26.2662 45.2776 25.7622 45.2783 25.3001 45.4415C22.6398 46.1112 19.994 46.8723 17.8181 48.6636C17.1904 49.2969 16.6317 49.9951 16.1512 50.7463ZM17.3132 52.6077L17.2358 52.7158C15.3865 55.1777 15.2845 57.556 16.9211 60.0089C17.1023 60.1891 17.2352 60.412 17.3076 60.6571C17.3312 61.0667 17.2302 61.4739 17.018 61.8251C16.8522 61.8777 16.6769 61.8929 16.5046 61.8697C16.3322 61.8464 16.1672 61.7853 16.0213 61.6906C15.5748 61.3319 15.1608 60.9344 14.7842 60.5028L13.8146 57.7545C13.6624 57.9907 13.567 58.259 13.5357 58.5382C13.5045 58.8175 13.5383 59.1001 13.6345 59.3642C13.7307 59.6282 13.8867 59.8663 14.0902 60.06C14.2938 60.2537 14.5395 60.3976 14.8079 60.4805C14.5257 61.7149 14.2808 61.9399 13.398 61.6106C12.9096 61.4516 12.4755 61.1588 12.1451 60.7655C11.8147 60.3723 11.6011 59.8943 11.5287 59.3858C10.6876 54.5254 12.4499 50.6247 16.1612 47.4958C19.0547 45.0562 22.6008 44.1586 26.166 43.3583C27.8946 42.9703 28.017 43.0448 29.015 44.5285C30.4138 46.6079 31.8236 48.6799 33.2443 50.7443C34.1578 52.0659 35.159 53.3279 36.0362 54.6727C37.6842 57.1991 39.2558 59.7761 40.8948 62.3086C41.3465 62.9073 41.8365 63.476 42.3618 64.0112C42.4528 63.7405 42.5073 63.4588 42.5241 63.1737C40.8835 55.6422 38.5071 48.29 35.429 41.223C32.5169 41.1002 29.6015 41.3744 26.7633 42.038C22.7945 42.7684 19.242 44.5077 15.6978 46.2799C13.8581 47.1999 12.2172 48.5199 10.4098 49.517C8.97657 50.3194 7.77043 51.4724 6.90425 52.868C6.35316 53.8589 6.14427 55.004 6.30996 56.1257C6.47566 57.2474 7.00667 58.2832 7.82073 59.0725C9.35505 60.3509 11.1227 61.3197 13.0258 61.9252C15.8178 62.8934 18.6038 63.883 21.4263 64.7599C23.0949 65.2542 24.7885 65.6598 26.5 65.9751C27.0744 66.1218 27.6808 66.0792 28.2289 65.8535C28.777 65.6277 29.2376 65.2311 29.5421 64.7225C29.7692 64.403 30.0553 64.1299 30.385 63.918C30.4938 63.8175 30.6232 63.742 30.7642 63.6968C30.9052 63.6515 31.0544 63.6376 31.2013 63.656C31.3483 63.6744 31.4894 63.7247 31.6149 63.8033C31.7404 63.8819 31.8473 63.9869 31.9279 64.1111C32.1192 64.5426 32.1711 65.0229 32.0765 65.4852C31.9378 65.8924 31.7376 66.2759 31.4829 66.6225C33.2552 67.4348 35.2161 67.7463 37.1528 67.5231C37.3905 65.3803 35.2139 65.1236 34.8334 63.6676C33.5042 63.7625 32.263 64.1979 31.4688 62.7304C30.5551 61.0423 30.4648 61.0922 28.5941 61.5066C27.2919 61.795 26.2772 61.3351 26.1073 60.1067C26.0805 59.6636 25.9156 59.2401 25.6359 58.8954C25.3561 58.5508 24.9755 58.3023 24.5474 58.1849C24.2562 58.1233 23.9821 57.9984 23.7444 57.8192C23.5068 57.64 23.3113 57.4108 23.172 57.1478C23.0326 56.8848 22.9527 56.5944 22.938 56.2971C22.9232 55.9998 22.9739 55.7029 23.0864 55.4273C23.308 54.6262 23.6792 53.8742 24.1805 53.2111C25.3282 51.5392 25.1127 50.7179 23.2242 49.9906C21.4607 49.3113 18.5576 50.5966 17.3132 52.6077ZM93.8541 61.1099L93.5419 60.9777C92.8063 61.6125 92.0276 62.1955 91.2114 62.7227C87.2924 64.8033 83.1121 66.3487 78.7822 67.3176C75.4449 68.1428 72.0733 68.8227 68.7098 69.53C65.0966 70.2899 61.4947 71.161 57.772 71.0464C57.191 71.0286 56.6052 71.1324 56.0219 71.139C54.7307 71.1536 53.4303 71.2333 52.1508 71.1218C49.7647 70.914 47.3933 70.3408 45.0115 70.3592C38.0687 70.4128 31.4615 68.3451 24.6348 67.7173C24.5062 67.701 24.3796 67.6716 24.2569 67.6297C20.8639 66.5926 17.4476 65.6217 14.087 64.4923C11.7518 63.7075 9.49317 62.7046 7.13467 61.7732C7.78421 64.2905 8.35755 66.8488 9.90214 69.0552C10.4029 69.8035 10.841 70.5918 11.2123 71.412C13.9513 77.1543 18.7338 80.8875 24.125 83.7234C27.2704 85.378 30.907 86.1796 34.3907 87.1288C37.1493 87.8188 39.9409 88.3696 42.7549 88.779C44.6512 89.1494 46.5754 89.3587 48.5069 89.4046C54.3472 89.3758 60.1069 88.2665 65.8982 87.5813C69.6658 87.0871 73.2658 85.7196 76.4113 83.5878C79.4852 81.4902 82.386 79.1495 85.0859 76.5883C86.4794 75.2162 87.6458 73.6312 88.5415 71.8927C90.0501 69.1652 91.2999 66.2978 92.6639 63.4918C93.0519 62.6937 93.4569 61.9036 93.8541 61.1099ZM64.9215 28.0888C65.1601 29.3241 65.0082 30.9923 65.7607 31.9277C67.5363 33.8987 69.4412 35.7492 71.4628 37.467C71.8368 35.6292 71.725 33.7257 71.1385 31.9444C71.0651 31.8077 71.0256 31.6556 71.0232 31.5005C71.0208 31.3455 71.0555 31.1921 71.1245 31.0533C71.1935 30.9145 71.2948 30.7942 71.4199 30.7025C71.5449 30.6108 71.6901 30.5505 71.8433 30.5264L73.0581 31.9567C74.3648 30.6572 75.6642 29.365 76.9564 28.08C76.6662 28.0697 76.3768 28.1174 76.1052 28.2203C75.8336 28.3232 75.5853 28.4792 75.3747 28.6793C74.2396 29.8499 73.0396 29.2517 71.9367 28.8475C70.9073 28.4702 70.9711 27.4387 71.08 26.5086C71.2345 25.912 71.2538 25.2885 71.1365 24.6836C71.0193 24.0786 70.7684 23.5075 70.4022 23.0119C70.2979 22.8499 70.2273 22.6687 70.1944 22.479C70.1616 22.2892 70.1672 22.0948 70.211 21.9072C70.2827 21.5949 70.2737 21.2695 70.1847 20.9617C70.0957 20.6538 69.9298 20.3738 69.7026 20.1478C68.699 18.9423 68.7126 18.8004 69.2428 16.9048C69.5006 15.9831 69.2483 15.1989 68.4355 15.0314C66.8903 14.6351 65.4045 14.0356 64.017 13.2487C63.5308 13.0929 63.1008 12.7982 62.7801 12.4011C62.4593 12.0039 62.2617 11.5216 62.2117 11.0135C62.1116 9.94811 61.6847 9.67082 60.6026 10.0088C59.4326 10.3729 58.3125 10.8813 57.2682 11.5223C55.6893 12.4993 55.1388 12.5242 53.9446 11.2459C53.829 11.0722 53.6734 10.9286 53.4909 10.8274C53.3084 10.7261 53.1043 10.67 52.8957 10.6639C52.687 10.6577 52.48 10.7016 52.2918 10.7919C52.1036 10.8823 51.9399 11.0164 51.8142 11.183C51.4679 11.5741 51.1842 12.0164 50.9731 12.4943C50.7964 12.8849 50.5177 13.2206 50.1664 13.4662C49.815 13.7118 49.4039 13.8582 48.9764 13.89C48.1454 13.9765 47.3019 13.9206 46.464 13.9251C45.9883 13.9276 45.5127 13.9255 44.5697 13.9255C45.9414 15.0037 46.9171 15.7707 48.1516 16.741C48.0468 16.273 48.0109 15.7921 48.0451 15.3137C48.0891 15.1385 48.1707 14.9749 48.2841 14.8342C48.3975 14.6935 48.5401 14.5792 48.702 14.499C48.8778 14.5172 49.0464 14.578 49.1934 14.6761C49.3404 14.7741 49.4613 14.9065 49.5457 15.0618C49.7101 15.5494 49.8422 16.0473 49.9411 16.5522C50.1283 17.4988 50.4846 18.4038 50.993 19.2239C52.4084 20.8573 54.0412 22.3014 55.5863 23.8219L55.9548 23.6057C55.8233 23.014 55.6387 22.4353 55.4032 21.8768C54.4585 19.8931 53.8073 17.7825 53.4702 15.6114C53.1819 14.1567 53.399 13.3999 54.0475 13.4936C55.0992 13.6456 54.9132 14.6017 55.0268 15.3313C55.2309 16.6421 55.4207 17.9553 55.6165 19.2675C55.9686 18.8946 56.1926 18.4192 56.2559 17.9102C56.6042 15.1281 57.682 12.9243 60.7213 12.2744C61.1003 12.1364 61.5173 12.1459 61.8897 12.3008C62.3243 12.8074 61.9201 13.2344 61.4383 13.5518C60.8243 13.9197 60.2344 14.3263 59.6721 14.7693C59.1823 15.1516 58.7764 15.6306 58.4797 16.1766C58.1826 17.0182 57.956 17.8831 57.8021 18.7623C59.3116 17.9715 60.4969 17.4362 61.5895 16.7507C62.4375 16.2187 62.8557 16.5513 63.3962 17.2602C61.6187 18.7894 59.4636 19.4075 57.6187 20.4114C57.5674 20.4957 57.5283 20.587 57.5029 20.6824C57.5071 21.0048 57.5323 21.3266 57.5349 21.649C57.5554 24.314 58.1223 26.7127 60.565 28.2387C60.9428 28.4747 61.2266 28.8552 61.5952 29.1099C62.1372 29.4844 62.7165 29.8058 63.2799 30.1498L63.6334 29.8714C63.5661 28.8606 63.3744 27.8619 63.0627 26.8979C62.3486 25.0973 62.2975 23.1016 62.9186 21.2669C63.1023 20.7123 63.4331 20.218 63.8758 19.8368C64.3086 19.7265 64.7608 19.7162 65.1982 19.8065C64.266 21.1386 63.3796 22.1837 64.4769 23.6631L67.8704 19.7334C68.0189 19.7841 68.1521 19.8716 68.2576 19.9877C68.3631 20.1038 68.4375 20.2448 68.4738 20.3974C68.5102 20.55 68.5072 20.7094 68.4654 20.8605C68.4235 21.0117 68.344 21.1499 68.2343 21.262C67.5369 22.4319 66.7283 23.5367 65.9666 24.669C65.7074 25.0543 65.4514 25.4418 65.2218 25.7865C66.5079 26.7376 67.8779 25.1493 69.0513 26.2609C68.0555 27.7174 66.2971 27.0619 64.9215 28.0888ZM62.8936 50.0314C62.909 49.3863 62.85 48.7416 62.7179 48.11C61.2387 43.9125 58.5182 40.2639 54.9174 37.6483C54.5481 37.3886 54.1477 37.1763 53.7254 37.0165C50.0047 35.4123 45.8472 35.1285 41.9429 36.2122C40.8447 36.4972 37.8912 39.7473 37.7865 40.8456C37.7402 41.2956 37.783 41.7504 37.9127 42.1838C38.3428 43.5315 38.8552 44.8515 39.2991 46.1948C40.5498 49.9799 41.7785 53.7726 43.023 57.5598C43.9565 60.4007 44.3021 63.3603 46.1749 65.9717C48.5459 69.2778 49.0383 68.3337 51.6983 67.2309C52.0446 67.0469 52.3766 66.8368 52.6911 66.6025C55.785 64.7121 57.6935 61.6565 59.8938 58.9561C61.9024 56.4212 62.9634 53.2648 62.8936 50.0314ZM68.984 45.5647L69.0262 45.2108C68.6112 45.0856 68.199 44.9501 67.7803 44.8378C67.2532 44.6966 66.7343 44.5295 66.9022 43.8256C66.9287 43.6783 66.9921 43.5401 67.0864 43.4239C67.1807 43.3077 67.3029 43.2172 67.4415 43.1609C67.5802 43.1046 67.7309 43.0842 67.8795 43.1018C68.0282 43.1194 68.1699 43.1743 68.2916 43.2614C69.3 43.6798 70.2732 44.1842 71.2434 44.6859C72.9089 45.3375 74.7325 45.47 76.4746 45.066C74.5351 43.0593 72.641 41.0616 70.6987 39.112C70.0835 38.4577 69.3788 37.8938 68.6054 37.4371C66.7709 36.434 66.0564 36.7773 65.5322 38.7886C65.3521 39.4796 65.282 40.1969 65.1351 40.8971C65.1115 41.2842 64.9906 41.6592 64.7838 41.9873C64.4437 42.2242 64.0624 42.3954 63.6593 42.4921C63.4914 42.1401 63.4139 41.7516 63.4339 41.362C63.9468 40.1136 64.296 38.8041 64.4729 37.4662L59.2374 38.4041L59.0476 38.839C61.621 40.5488 62.8459 43.2002 64.0214 45.825C65.273 48.6199 64.4432 51.6334 64.1667 54.4142C65.3634 54.522 66.5458 54.7538 67.6947 55.1059C68.1078 55.3186 68.5665 55.4274 69.0312 55.4228C69.4958 55.4183 69.9523 55.3005 70.3612 55.0798C70.4956 54.4316 70.3712 53.3358 71.47 53.4605C73.063 53.6413 73.9716 52.5938 75.0416 51.8153C75.0627 51.681 75.0631 51.5443 75.0428 51.4099C74.8578 50.8898 74.3269 50.2777 75.1026 49.9166C75.3371 49.9254 75.5675 49.981 75.7802 50.0803C75.9929 50.1795 76.1835 50.3204 76.3409 50.4945C77.5693 51.5911 78.9657 51.4446 80.7553 51.2402C79.9169 49.9836 79.2987 48.9424 78.5651 47.9908C78.2579 47.5747 77.8058 47.2889 77.2981 47.1898C76.7904 47.0908 76.2641 47.1858 75.823 47.456C73.8622 48.4727 71.92 49.5262 69.9676 50.5598C69.4472 50.8352 68.8129 51.2212 68.4362 50.5443C68.0682 49.8828 68.655 49.48 69.2046 49.2045C69.671 48.9708 70.188 48.8298 70.6303 48.5604C71.2592 48.1773 71.8403 47.7141 72.7963 47.0324C71.6458 46.7128 70.4234 46.769 69.3072 47.1928C68.269 47.5584 67.2085 47.857 66.1322 48.0869C65.7164 48.0442 65.3163 47.9051 64.9636 47.6808C65.1019 47.2293 65.3223 46.8072 65.6136 46.4356C66.0092 46.2095 66.4492 46.0719 66.9031 46.0325C67.5941 45.8651 68.2901 45.7195 68.984 45.5647ZM39.9226 27.1808C39.5849 28.3025 39.2661 29.2114 39.0398 30.1412C38.3816 32.8463 40.2681 34.952 42.8743 34.2004C45.0941 33.7055 47.3851 33.6163 49.6367 33.937C51.851 34.0463 53.9881 34.7857 55.7965 36.0682C57.2331 37.1348 58.4913 36.6475 59.9768 36.3375C58.0552 34.0393 57.9978 33.6809 59.3249 32.8108C61.0178 35.6774 62.3815 35.2051 66.2952 34.9154C66.015 34.5512 65.704 34.2118 65.3656 33.901C63.2172 32.269 61.0091 30.7121 58.9068 29.024C58.5362 28.6729 58.0828 28.4214 57.5888 28.2929C57.0948 28.1644 56.5763 28.1631 56.0816 28.289C55.1086 29.3745 54.6205 30.8784 53.0766 31.6746C52.792 31.2063 52.5478 30.8043 52.3255 30.4385C53.0937 29.6995 53.7518 29.0663 54.5713 28.2779C53.952 28.1502 53.3434 27.9751 52.7508 27.7543C52.3308 27.4939 51.8249 27.4098 51.3432 27.5203C50.8614 27.6308 50.4428 27.927 50.1782 28.3444C49.825 28.8185 49.3497 29.1877 48.8031 29.4128C47.1093 29.9095 45.5084 30.6804 44.0641 31.695C43.9682 31.7874 43.8497 31.853 43.7205 31.8851C43.5913 31.9171 43.4558 31.9146 43.3279 31.8778C43.1999 31.8409 43.084 31.771 42.9916 31.675C42.8992 31.5791 42.8338 31.4605 42.8018 31.3313C42.7944 31.0975 42.8339 30.8647 42.9178 30.6464C43.0017 30.4281 43.1285 30.2289 43.2905 30.0603C43.6177 29.8487 43.9843 29.7053 44.3683 29.6389C45.6747 29.1163 46.9778 28.5848 48.282 28.0567L48.2177 27.6647C45.5439 27.7071 42.8212 28.3429 39.9226 27.1808ZM84.5305 48.6465L84.8639 49.0773C85.2581 48.974 85.6439 48.8408 86.0179 48.6786C86.4799 48.3942 86.9244 48.0823 87.349 47.7446C87.3981 48.1872 87.3846 48.6346 87.3089 49.0735C87.0506 49.5795 86.6546 50.0023 86.1664 50.293C85.6783 50.5837 85.1179 50.7306 84.5499 50.7166C84.2899 51.6942 84.1923 52.7079 84.2609 53.7172C84.6665 54.5869 85.2012 55.3904 85.8471 56.1002C86.5133 57.1246 87.1275 58.1833 87.779 59.2177C88.1086 59.741 88.4712 60.2433 89.0002 61.0221C89.1863 60.6031 89.3331 60.1676 89.4386 59.7214C89.5971 58.049 89.4143 56.2815 89.9154 54.7194C90.8198 51.9 90.6189 49.0981 90.5237 46.2756C90.4857 46.0274 90.3948 45.7903 90.2569 45.5805C90.1191 45.3707 89.9376 45.1931 89.7249 45.0598C88.6196 44.4179 87.4661 43.8632 86.2746 43.4006C84.3136 42.6472 84.016 42.4225 84.1575 40.3007C84.201 39.5444 84.0696 38.7883 83.7735 38.091C83.4774 37.3937 83.0245 36.7741 82.4501 36.2803C82.0048 36.8955 81.4864 37.4544 80.9062 37.9444C79.3255 38.9555 79.01 40.5194 78.8012 42.1482C78.6859 43.0465 78.6416 43.955 78.6158 44.8595C78.5997 45.1767 78.679 45.4914 78.8433 45.7631C80.0444 47.4872 81.2799 49.187 82.6626 51.115C82.8456 50.054 82.9623 48.9825 83.0119 47.907C82.9975 46.971 82.1614 46.0762 82.9124 44.9066L84.0394 45.9891C86.0203 44.1083 86.0203 44.1083 87.0654 44.3455C86.596 45.1048 86.159 45.7853 85.7492 46.4816C85.3291 47.1952 84.9356 47.9242 84.5305 48.6465ZM79.5961 37.1216C80.5272 36.1405 81.6629 35.3977 82.1332 34.3622C83.4905 31.3736 81.7923 28.4185 78.3636 27.6355C78.4552 27.7868 78.5157 27.9548 78.5416 28.1297C78.5675 28.3047 78.5583 28.483 78.5144 28.6543C78.4706 28.8257 78.393 28.9865 78.2862 29.1275C78.1795 29.2685 78.0457 29.3868 77.8926 29.4754C77.0624 30.1104 76.31 30.8411 75.651 31.6524C72.1616 35.58 72.509 40.2858 77.3469 43.1154C77.4548 41.1615 77.5472 39.3176 77.665 37.4748C77.6693 37.0236 77.7502 36.5764 77.9044 36.1523C77.9696 35.9863 78.0706 35.8367 78.2001 35.7142C78.3297 35.5916 78.4847 35.4991 78.654 35.4433C78.8244 35.4968 78.9823 35.584 79.1184 35.6996C79.2545 35.8152 79.366 35.957 79.4464 36.1164C79.555 36.4401 79.6056 36.7804 79.5961 37.1216ZM48.4587 20.0212L48.6345 19.4542L43.4595 15.3405C44.4485 18.7412 42.6177 20.681 40.5401 22.3651C40.6851 23.3389 40.7508 24.1745 40.9538 24.973C41.0578 25.3891 41.3098 25.753 41.6626 25.9967C42.4654 26.4596 45.4614 26.2363 46.5124 25.7078L42.8789 22.6159C44.0699 21.3352 44.2159 21.3185 45.0989 22.1708C45.7422 22.7915 46.3648 23.4405 47.0583 24.0012C49.1479 25.691 51.8548 25.6905 54.2854 26.4454C55.0118 26.6004 55.7492 26.6987 56.4908 26.7394C55.0522 25.6087 53.6874 24.3873 52.4047 23.0825C51.8721 22.36 51.1504 21.7985 50.3192 21.4597C49.488 21.1209 48.5794 21.018 47.6934 21.1623C46.9381 21.1377 46.2003 20.9277 45.5453 20.5506C45.4429 20.4443 45.3698 20.3134 45.333 20.1705C45.2962 20.0276 45.2971 19.8776 45.3355 19.7352C45.4358 19.6288 45.56 19.5478 45.6978 19.4989C45.8356 19.4501 45.9831 19.4347 46.128 19.4542C46.9148 19.591 47.6832 19.8249 48.4587 20.0212ZM79.3652 52.6372C79.0835 53.8023 77.3222 53.6338 77.504 55.324C81.5148 55.9784 84.9576 57.4456 85.4206 62.3337L87.3685 61.4271C85.4338 57.7535 83.4301 54.413 79.3652 52.6372ZM91.3565 59.5839L91.8625 59.7426C92.6978 58.6129 93.4596 57.4308 94.1433 56.2035C94.4111 55.6487 94.5387 55.0367 94.5151 54.4212C94.4914 53.8056 94.3172 53.2053 94.0076 52.6727C93.5326 51.8162 92.5785 51.7438 92.2129 52.5481C91.1754 54.7394 90.875 57.2077 91.3565 59.5839ZM54.9406 67.1563L51.9944 68.8115C52.5225 69.1027 53.1054 69.2807 53.7061 69.3341C54.3068 69.3875 54.912 69.3151 55.4831 69.1215C55.2939 68.4362 55.1452 67.8974 54.9406 67.1563ZM72.5533 54.8018C75.6379 55.9528 75.6695 54.9067 76.7166 52.9588C74.9776 52.7215 74.4131 54.7564 72.5533 54.8018ZM42.8416 64.8856L42.6054 65.037C43.0892 66.0078 43.573 66.9786 44.0571 67.9492C44.0991 68.0831 44.1737 68.2044 44.2741 68.3023C44.3746 68.4002 44.4977 68.4717 44.6326 68.5103C44.7675 68.5489 44.9098 68.5535 45.0468 68.5235C45.1839 68.4936 45.3114 68.4301 45.4178 68.3388C45.3678 68.1802 45.3016 68.0272 45.2202 67.8821C44.4317 66.8798 43.6356 65.8835 42.8416 64.8856ZM73.9703 66.1136L74.1617 66.6638L76.2245 66.0698L76.0978 65.587L73.9703 66.1136ZM64.7315 67.2452L64.764 67.6021L65.8492 67.4683L65.8221 67.1648L64.7315 67.2452ZM63.1932 57.0303L63.5342 57.2606L63.9598 56.6189C63.8715 56.5493 63.7761 56.4893 63.6751 56.44C63.5008 56.6238 63.3501 56.83 63.1932 57.0303Z" fill="#64A225"/>
<path d="M67.8029 61.6693C67.8759 64.1653 66.4568 64.5238 64.7939 64.5215C64.0187 64.5205 63.2445 64.4567 62.4693 64.4591C62.3098 64.4856 62.1466 64.479 61.9898 64.4398C61.833 64.4006 61.686 64.3295 61.5578 64.231C61.4296 64.1325 61.3231 64.0087 61.2449 63.8672C61.1666 63.7258 61.1183 63.5698 61.1029 63.4089C61.0062 63.0945 61.0271 62.7557 61.1615 62.4555C61.2959 62.1553 61.5347 61.9141 61.8336 61.7768C63.1941 61.1298 64.562 60.5361 66.1118 60.9797C66.5438 61.1033 66.9908 61.1777 67.4309 61.2747L67.8029 61.6693Z" fill="#64A225"/>
<path d="M23.2812 73.846C23.9042 73.1934 24.7182 72.7556 25.606 72.5954C26.4939 72.4353 27.4096 72.5612 28.2213 72.955C29.6163 73.601 31.0599 74.1462 32.4897 74.7173C33.172 74.9898 33.8156 75.2585 33.5674 76.1992C26.7226 76.8171 24.4572 76.2956 23.2812 73.846Z" fill="#64A225"/>
<path d="M55.2135 78.1677C54.7347 79.4605 54.1388 80.0284 53.0885 80.0628C52.3807 80.146 51.6689 80.19 50.9563 80.1945C48.5398 79.9996 46.1301 79.7354 43.7033 79.4962C43.6633 79.3204 43.6627 79.138 43.7014 78.9619C43.7402 78.7858 43.8173 78.6205 43.9274 78.4778C44.0375 78.335 44.1778 78.2183 44.3382 78.1361C44.4986 78.0539 44.6753 78.0082 44.8554 78.0022C46.9903 77.4139 49.226 77.2879 51.4134 77.6326C52.585 77.8741 53.7884 77.9724 55.2135 78.1677Z" fill="#64A225"/>
<path d="M32.75 82.9567C36.4535 81.181 39.0443 83.4516 42.0458 83.9653C41.0398 85.5804 39.5288 85.2195 38.2843 85.2645C36.309 85.3359 34.6164 84.4792 32.75 82.9567Z" fill="#64A225"/>
<path d="M65.1373 83.5046C62.1064 84.8185 59.3853 86.0917 56.2383 84.6985C57.9596 82.4864 62.1525 81.9104 65.1373 83.5046Z" fill="#64A225"/>
<path d="M11.585 68.2452C11.9655 68.2301 12.346 68.273 12.7137 68.3722C14.6889 69.8522 16.4206 71.6318 17.8461 73.6467C16.13 74.6055 15.102 74.4743 13.9935 73.1388C12.833 71.7094 12.0097 70.0367 11.585 68.2452Z" fill="#64A225"/>
<path d="M66.3613 77.7199C67.2343 75.6385 72.3937 73.9233 75.2505 74.6898C75.2861 74.8322 75.2921 74.9804 75.2683 75.1252C75.2444 75.27 75.1912 75.4084 75.1119 75.5319C75.0325 75.6554 74.9288 75.7614 74.807 75.8432C74.6852 75.9251 74.5479 75.9812 74.4036 76.0081C71.8361 77.0469 69.2461 78.0395 66.3613 77.7199Z" fill="#64A225"/>
<path d="M86.4042 69.5167C85.2579 72.4349 82.5613 73.6417 80.3428 75.5961C79.7407 74.2274 80.7581 73.5335 81.2997 72.8136C82.8826 70.7093 84.8772 69.4385 86.4042 69.5167Z" fill="#64A225"/>
<path d="M17.3136 52.6076C18 52.2583 18.7384 52.0225 19.5002 51.9094C19.8657 51.907 20.2277 51.981 20.5628 52.1267C20.898 52.2725 21.1989 52.4867 21.4463 52.7557C21.5458 53.0857 21.5676 53.4343 21.51 53.7742C21.4525 54.114 21.3172 54.4359 21.1146 54.7148C20.8568 55.0583 20.4869 55.3005 20.069 55.3995C19.6512 55.4985 19.2118 55.4479 18.8274 55.2567C18.2906 55.1118 17.8284 54.7695 17.5333 54.2983C17.2383 53.8271 17.1322 53.2618 17.2363 52.7157L17.3136 52.6076Z" fill="#64A225"/>
<path d="M24.2078 61.3804C24.49 61.3641 24.7729 61.3915 25.0467 61.4617C25.4482 61.5816 25.8037 61.8211 26.0657 62.1481C26.1111 62.2711 26.1288 62.4026 26.1176 62.5333C26.1065 62.6639 26.0667 62.7905 26.001 62.904C25.9354 63.0175 25.8456 63.1152 25.738 63.1901C25.6303 63.2649 25.5075 63.3152 25.3783 63.3372C24.7544 63.6798 24.1003 63.9643 23.4243 64.1869C23.2214 64.2483 23.0079 64.2662 22.7977 64.2393C22.5874 64.2124 22.3853 64.1414 22.2044 64.0309C22.0236 63.9204 21.8681 63.7729 21.7482 63.5982C21.6284 63.4234 21.5469 63.2252 21.509 63.0167C21.3425 62.2485 21.7368 61.8322 22.929 61.5689C23.3715 61.4712 23.8267 61.4349 24.2078 61.3804Z" fill="#64A225"/>
<path d="M17.6777 59.2284C17.7168 58.2676 17.8624 57.4469 18.8467 57.1481C19.3349 56.9729 19.8571 56.9131 20.3723 56.9735C20.8875 57.0339 21.3817 57.2128 21.8161 57.4962C22.3921 57.8898 22.2927 58.5652 21.6647 59.1375C20.7722 59.9509 19.5416 60.0058 17.6777 59.2284Z" fill="#64A225"/>
<path d="M59.9275 50.3813C59.7376 55.9943 58.3658 60.1786 54.8608 63.4359C53.5951 64.5616 52.1957 65.5276 50.6943 66.312C49.0409 67.2166 47.5185 66.5161 46.8206 64.7784C46.3011 63.4848 46.2233 62.0273 45.2353 60.8903C45.1157 60.6305 45.051 60.3487 45.0454 60.0627C45.0397 59.7767 45.0933 59.4926 45.2026 59.2282C45.551 58.1103 46.0223 57.0344 46.6077 56.0203C47.0783 55.3616 47.339 54.5761 47.3555 53.7667C47.3721 52.9573 47.1438 52.1618 46.7005 51.4843C46.2036 50.5283 45.8901 49.4877 45.7762 48.4162C45.5883 47.1198 45.4243 46.7364 44.1949 46.324C43.8293 46.2013 43.4455 46.1298 43.0688 46.0396C42.4216 45.9627 41.8152 45.6835 41.3361 45.2417C40.8569 44.8 40.5294 44.2183 40.4002 43.5795C40.1967 42.8178 40.2101 42.0143 40.4388 41.2598C40.6675 40.5052 41.1024 39.8296 41.6946 39.309C44.2043 37.227 47.0837 37.1237 49.99 37.8834C51.6012 38.3394 53.1531 38.9836 54.6137 39.8025C56.4159 40.8242 57.8027 42.4456 58.5325 44.3844C59.4133 46.2633 59.8887 48.3065 59.9275 50.3813ZM42.1361 43.7017C42.9232 43.9588 43.7361 44.2791 44.5783 44.4887C46.8 45.0417 47.38 45.8039 47.519 48.1165C47.5103 49.013 47.7375 49.8961 48.1778 50.6771C49.693 52.8063 49.5854 54.7743 48.1934 56.9767C47.1599 58.6119 46.2623 60.4277 47.9043 62.2693C48.0897 62.6088 48.2208 62.9751 48.293 63.3551C48.6943 64.3647 49.2983 64.7688 50.2177 64.2715C51.7134 63.6222 53.0743 62.6984 54.23 61.5481C57.5887 57.4367 58.9482 52.7368 57.5377 47.5331C57.2676 46.146 56.7411 44.8215 55.9854 43.6275C54.4891 41.5566 52.2885 40.7059 50.0561 39.9515C48.9549 39.5437 47.779 39.3766 46.6078 39.4615C45.4365 39.5464 44.2971 39.8813 43.2662 40.4437C42.9249 40.5489 42.6293 40.7666 42.4277 41.0615C42.2261 41.3563 42.1304 41.7108 42.1564 42.067C42.1958 42.5123 42.149 42.9665 42.1361 43.7017Z" fill="#64A225"/>
<path d="M70.9942 61.1551C71.7097 60.7449 72.4617 60.4019 73.2405 60.1305C74.1886 59.9373 75.1505 59.8195 76.1173 59.7784C76.5024 59.7071 76.9002 59.7847 77.2303 59.9954C77.5604 60.2061 77.7983 60.5342 77.8958 60.9135C78.1654 61.7557 77.4354 61.975 76.912 62.3535C76.3525 62.7927 75.7079 63.1107 75.019 63.2875C74.3301 63.4644 73.612 63.4961 72.9102 63.3808C72.6302 63.3846 72.3527 63.3271 72.0974 63.2121C71.8421 63.0971 71.6151 62.9275 71.4324 62.7153C71.2497 62.5031 71.1158 62.2534 71.0401 61.9838C70.9644 61.7143 70.9487 61.4314 70.9942 61.1551Z" fill="#64A225"/>
<path d="M54.4996 49.9679C55.0156 50.2866 55.4579 50.7115 55.7968 51.2145C56.096 51.9496 55.3668 52.319 54.7451 52.558C54.2288 52.8102 53.6789 52.9869 53.1123 53.0827C52.7569 53.1162 52.4018 53.0148 52.1177 52.7986C51.8336 52.5825 51.6411 52.2674 51.5785 51.9159C51.5415 51.7574 51.538 51.5929 51.5681 51.4329C51.5982 51.2729 51.6612 51.121 51.7532 50.9867C51.8453 50.8524 51.9642 50.7387 52.1026 50.6529C52.2409 50.5671 52.3956 50.511 52.5568 50.4883C53.0979 50.2961 53.6671 50.1865 54.4996 49.9679Z" fill="#64A225"/>
<path d="M52.8454 44.6502C53.2202 44.7084 53.5881 44.8052 53.943 44.9392C54.1333 44.9916 54.3024 45.1025 54.4262 45.2562C54.5501 45.4099 54.6225 45.5987 54.6332 45.7958C54.644 45.9929 54.5925 46.1885 54.486 46.3547C54.3795 46.521 54.2235 46.6496 54.04 46.7223C53.1646 47.1104 52.2269 47.3389 51.2711 47.3971C51.0433 47.3559 50.8306 47.255 50.6546 47.1047C50.4787 46.9543 50.3458 46.76 50.2695 46.5414C50.2819 46.2739 50.3519 46.0122 50.4747 45.7741C50.5975 45.5361 50.7702 45.3274 50.9811 45.1622C51.5717 44.8945 52.2009 44.7217 52.8454 44.6502Z" fill="#64A225"/>
<path d="M49.3852 41.1591C49.4615 41.3204 49.5036 41.4957 49.5089 41.6741C49.5142 41.8524 49.4825 42.0299 49.416 42.1955C49.3494 42.361 49.2493 42.511 49.122 42.6361C48.9947 42.7611 48.8429 42.8584 48.6762 42.922C48.0568 43.2829 47.396 43.5675 46.7083 43.7699C46.5007 43.8169 46.285 43.8156 46.0779 43.7662C45.8708 43.7167 45.6777 43.6205 45.5137 43.4848C45.4161 43.2966 45.3604 43.0895 45.3503 42.8778C45.3402 42.6661 45.376 42.4547 45.4553 42.2581C45.9981 40.8118 47.2876 40.4721 49.3852 41.1591Z" fill="#64A225"/>
<path d="M49.6731 58.7242C49.972 58.7611 50.266 58.83 50.5502 58.9297C51.2568 59.2524 52.0029 59.6528 51.8841 60.5724C51.7466 61.637 50.7881 61.471 50.0615 61.5592C49.7418 61.5771 49.4213 61.5398 49.1142 61.4488C48.0954 61.2078 47.6824 60.6727 47.8702 59.8776C47.9726 59.4951 48.2144 59.1647 48.548 58.9513C48.8815 58.7379 49.2828 58.6569 49.6731 58.7242Z" fill="#64A225"/>
<path d="M50.6064 56.1718C51.0632 55.7208 51.569 55.3223 52.1144 54.9838C52.6107 54.8895 53.1241 54.9566 53.5796 55.1752C54.035 55.3939 54.4084 55.7526 54.6452 56.1989C54.6762 56.3515 54.6753 56.5088 54.6423 56.6609C54.6093 56.8131 54.5451 56.9567 54.4537 57.0827C53.9279 57.5104 53.2571 57.7182 52.5817 57.6624C51.9062 57.6067 51.2785 57.2917 50.8301 56.7836C50.7441 56.584 50.6695 56.3798 50.6064 56.1718Z" fill="#64A225"/>
</svg>
