<svg width="100" height="100" viewBox="0 0 100 100" fill="none" xmlns="http://www.w3.org/2000/svg">
<g clip-path="url(#clip0_6403_6671)">
<path d="M68.8 18.8C68 19.7 67.9 20.1 68.3 21C69.2 22.9 69.7 25.1 70.3 27.1C70.5 27.7 70.5 28.4 71.5 28C70.2 28.7 70.1 29.5 70.2 30.8C70.6 35.5 70.3 40 67.9 44.2C66.4 46.8 64.7 49.1 62.4 51.1C60.8 52.6 59.4 54.3 57.4 55.2C55.5 56.1 53.6 57.2 51.5 57.6C50.8 57.7 50.5 58.3 49.9 58.5C46.2 59.6 42.4 60.4 38.5 59.5C32.6 58.1 27.1 55.9 22.5 51.7C20.1 49.5 17.6 47.4 15.6 44.8C15.5 44.6 15.3 44.5 15.2 44.3C13.9 40.9 12 37.8 11.8 34C11.6 30 11.7 26 12.9 22.2C13.5 20.5 14.8 19.1 15.9 17.6C18.8 13.5 22.4 10.1 26.6 7.4C26.8 7.5 27 7.4 27 7.3C27.1 6.3 27 6.3 27.9 6.1C30.3 5.6 32.6 5.1 35 4.6C36 4.4 36.8 3.8 37.8 3.6C41.9 2.8 45.9 3.1 49.9 4.1C53.9 5.1 57.1 7.2 60.3 9.5C62.5 11 63.8 13.2 65 15.4C65.7 16.6 66.7 17.7 67.6 18.8C67.8 19 68.2 18.9 68.8 18.8ZM22.8 42.7C22.8 44.5 22 46.1 22.8 47C24.6 49 26.4 51.2 29 52.1C31.7 53 34.3 54.2 37.1 54.8C41.7 55.8 46 55.1 50 52.7C54.9 49.8 58 45.3 59.9 40.1C61.6 35.7 62 31.2 60.8 26.6C60.6 25.7 60 24.9 59.7 24C58.3 19.8 55.8 16.4 51.8 14C46.2 10.6 40.4 9.6 34.1 10.8C31.3 11.3 28.5 12 26.3 14.4C27 14.3 27.3 13.5 27.9 14.1C27.3 14.7 26.7 15.1 25.9 15.5C25.2 15.8 24 16.5 24.1 17.1C24.5 18.3 23.7 18.9 23.4 19.7C22.9 21.1 21.7 22.4 23.3 24C23.5 24.2 24.6 26 22.8 26.6C22.1 26.8 22.1 29.7 22.6 30.2C23.6 31.4 23.5 32.8 24 34.2C23 34.3 23.2 33.4 22.3 33.3C23 35.7 23.5 38.1 24.2 40.4C24.6 41.8 25.3 43.1 25.8 44.5C25.9 44.8 26 45.2 25.4 45.4C24.6 44 24.2 42.3 23.3 41C23 42.5 24.3 43.4 24.1 45.2C23.7 44.4 23.4 43.8 22.8 42.7ZM13.3 28.4C16 27.5 16.1 25.1 16.7 23C17 21.8 17 20.5 18 19.5C20.5 17.1 22.5 14.3 25.5 12.6C27.4 11.6 29 10 31.3 9.6C32.6 9.4 33.9 9.1 35.3 9C39.6 8.5 43.9 8.8 48 10.3C50.8 11.3 53.1 13.2 55.6 14.8C56.4 15.3 57 16.1 58.2 16.1C56.7 13.7 54.3 12.6 52.4 11C51.6 10.3 50.7 9.8 49.7 9.4C48.1 8.7 46.4 8.1 44.7 7.8C42.1 7.2 39.4 6.2 36.7 7.5C36.5 7.6 36.3 7.7 36 7.4C35.5 6.7 34.9 6.9 34.2 7.1C33.1 7.4 32 8 30.9 7.9C30.1 7.8 29.6 7.9 29 8.2C27.2 9.1 25.6 10.2 24 11.4C21.1 13.6 18.6 16.2 16.6 19.4C16 20.4 15.7 21.5 15.1 22.3C13.7 24 13.3 26.1 13.3 28.4ZM30.7 55C33.6 56.5 36.6 57.4 39.6 58C42.4 58.6 45.2 58.3 47.9 57.1C49.2 56.5 50.2 55.2 51.6 54.8C54.1 54.1 55.9 52.5 57.4 50.5C58.3 49.3 58.6 47.8 59.5 46.9C61.8 44.5 62.2 41.3 63.3 38.4C63.4 38.2 63.2 38 63.2 37.6C63 37.9 62.8 38 62.7 38.2C61.9 40.9 60.7 43.5 59.1 45.8C56.2 50 52.8 53.5 47.8 55.4C45.3 56.3 42.8 57.1 40.1 56.8C37.3 56.5 34.6 55.9 32 54.9C31.8 54.6 31.4 54.4 30.7 55ZM22 48.7C21.3 47.6 20.5 46.6 19.9 45.5C18.9 43.8 17.6 42.2 17.2 40.3C16.7 38 15.6 35.9 15.6 33.4C15.6 33.1 15.3 32.4 14.6 32.4C14.5 32.4 14.5 31.6 13.9 31.9C13.5 32.1 13.7 32.4 13.7 32.7C13.4 34.6 14.1 36.3 14.6 38.1C15.8 42.7 18.6 45.9 22 48.7ZM63.7 43.6C66.8 42.9 68.3 41 68.4 37.9C68.4 37.5 69.1 36.5 67.8 36.7C66.9 36.8 65.7 35.9 65.3 37.7C64.8 39.7 64.2 41.6 63.7 43.6ZM65.6 35.7C66.4 35.3 67 35.6 67.6 35.5C68.1 35.5 68.7 35.5 68.8 34.6C68.9 32.9 68.8 31.3 68.4 29.7C68.3 29.3 68.1 28.6 67.5 29C67.1 29.3 66.4 28.8 66.2 29.9C65.9 31.8 66.4 33.7 65.6 35.7ZM58.5 51.5C61.9 50.4 63.8 48.1 65.5 45.5C65.6 45.3 65.7 45 65.6 44.8C65.4 44.5 65.1 44.8 64.9 44.8C62.9 44.7 62.4 46.3 61.5 47.5C60.6 48.8 59.3 49.8 58.5 51.5ZM54.1 7C53.4 7.4 52.5 7.6 52.3 8.4C52.1 9.1 53 9 53.4 9.3C54 9.8 54.7 10.2 55.3 10.8C55.8 11.3 56.2 11 56.6 10.7C57 10.4 57.7 9.8 57.3 9.5C56.4 8.5 55.2 7.8 54.1 7ZM57.4 12.2C58.4 13.1 59.3 13.9 60.2 14.7C60.6 15.1 60.9 15.2 61.4 14.9C62 14.6 61.7 14.3 61.6 13.9C61.3 12.9 61.3 11.5 60.1 11.4C59.4 11.3 58.3 11.5 57.4 12.2ZM37.8 5C40.5 5.3 43.2 5.3 45.8 6.2C46.2 6.3 46.4 6 46.2 5.8C45.4 5.2 46.6 5.1 46.4 4.6C43.5 4.6 40.7 4.4 37.8 5ZM63.1 36.9C64.7 35.1 64.6 27.7 63.1 26.7C63.3 28.4 63.5 30 63.5 31.6C63.3 33.3 63.2 35 63.1 36.9ZM18.7 34C17.6 36.4 17.9 38.4 19.8 40C21.2 37.7 19.1 36.1 18.7 34ZM63 16.2C62.2 16.2 61.8 16.7 62.1 17.4C62.4 18.2 62.9 19 63.4 19.7C63.7 20.1 64.3 20.6 64.7 20C65.5 18.9 64.3 18.1 64.3 17.1C64.3 16.5 63.7 16.2 63 16.2ZM17.3 29.7C18.2 29.3 17 27.3 18.7 28.7C18.9 28.8 19 28.9 19.2 28.6C19.8 27.7 19.9 24.5 19.1 23.2C18.5 25.4 17.9 27.4 17.3 29.7ZM52.3 6.6C51.8 6.1 51.2 5.8 50.6 5.6C49.5 5.2 48.6 5.7 48.3 6.6C48.1 7.1 49.2 7.1 49.6 7.4C49.9 7.6 50.1 7.7 50.4 7.8C51.4 8 51.7 7.1 52.3 6.6ZM67 25.2C66.7 24.4 66.3 23.3 66 22.3C65.9 21.9 65.8 21.3 65.3 21.4C64.8 21.5 64.5 22.3 64.8 22.7C65.6 23.6 65.2 24.7 65.7 25.7C65.9 26 65.7 26.7 66.4 26.5C66.8 26.3 67 25.9 67 25.2ZM21.6 45.5C22.1 41.7 22.1 41.7 19.7 41.7C20.7 42.8 20.5 44.3 21.6 45.5ZM22.6 17.9C21.6 19 20.9 20.3 19.8 21.2C21.9 21.4 21.9 21.4 22.6 17.9ZM17.3 33.6C18.6 32.6 17.9 31.2 18.6 30.4C18.6 30.4 18.4 30 18.2 30C18.1 30 17.9 30.2 17.8 30.3C16.8 31.3 17.6 32.3 17.3 33.6ZM62.9 26C63.1 25.8 63.3 25.7 63.4 25.5C63.7 25.1 63 23.3 62.5 23.1C62.3 23 62.1 23 62 23.1C61.6 23.5 62.1 23.9 62.2 24.2C62.3 24.8 62.6 25.3 62.9 26ZM67.8 27.3C67.6 27 67.4 26.6 67 26.7C66.4 26.8 66 27.2 66 27.9C66 28.4 66.3 28.4 66.6 28.3C67.1 28 67.8 28 67.8 27.3Z" fill="#64A225"/>
<path d="M86.2998 77.5C85.4998 77.6 85.0998 77.6 84.4998 77.7C86.3998 78.9 87.5998 80.6 88.4998 82.6C88.9998 83.9 88.3998 84.9 87.8998 85.8C86.8998 87.6 85.8998 89.4 85.5998 91.5C85.3998 92.6 83.4998 93.9 82.2998 93.7C80.8998 93.4 79.4998 93.7 78.1998 93.7C74.5998 93.7 71.0998 94 67.5998 94.6C63.6998 95.2 59.6998 95.3 55.7998 95.7C53.7998 95.9 51.6998 96.1 49.6998 95.8C47.6998 95.5 45.8998 96.2 43.9998 96.2C42.1998 96.1 40.2998 96.1 38.4998 96C35.0998 95.9 31.9998 94.7 28.6998 94.6C27.7998 94.6 27.1998 94.3 26.8998 93.4C26.2998 91.5 25.3998 89.5 25.3998 87.6C25.3998 86 25.0998 84.3 25.7998 82.7C26.5998 81 28.2998 80.3 29.6998 79.5C34.0998 77.1 38.7998 75.5 43.5998 74.5C46.1998 74 49.0998 73.9 51.5998 73.2C56.3998 71.9 61.1998 72.4 65.9998 72.7C66.6998 72.8 67.2998 73.3 67.9998 72.9C68.4998 73.8 69.3998 73.4 69.9998 73.2C71.0998 73 72.0998 73 73.1998 73.2C75.9998 73.8 78.5998 75 81.1998 76.1C82.7998 76.8 84.3998 76.9 86.2998 77.5ZM37.4998 90C38.6998 90.1 38.5998 91 38.4998 91.8C38.1998 93.1 39.0998 93.6 39.9998 94C40.9998 94.4 41.8998 93.8 42.2998 92.9C42.6998 92.2 43.0998 90.8 42.2998 90.5C40.7998 89.9 39.1998 89.3 37.4998 90C36.4998 89.7 36.2998 90.5 36.0998 91.4C35.7998 90.6 36.0998 89.6 34.9998 89.5C34.8998 90.5 34.6998 91.5 34.6998 92.5C34.6998 93.6 35.5998 93.6 36.3998 93.7C37.2998 93.8 37.1998 93.1 37.1998 92.5C37.1998 91.6 36.9998 90.8 37.4998 90ZM78.5998 85C79.5998 85 80.3998 84.6 80.5998 83.6C80.6998 82.9 80.9998 81.7 80.1998 81.6C79.0998 81.5 78.6998 81.1 78.4998 80.1C78.4998 79.8 77.7998 79.5 77.3998 79.6C75.6998 79.8 74.4998 78.7 72.8998 78.4C70.4998 78 67.9998 77.7 65.5998 77.6C61.8998 77.4 58.1998 78 54.4998 78.2C51.1998 78.4 47.7998 78.5 44.5998 79C41.4998 79.5 38.4998 80.4 35.6998 81.9C34.9998 82.3 33.9998 82.5 34.0998 83.4C34.1998 84.2 34.7998 84.9 35.6998 85.3C38.6998 86.6 41.8998 86.3 44.9998 86.7C48.0998 87.2 51.1998 86.8 54.3998 87C57.9998 87.3 61.5998 86.7 65.1998 86.5C68.4998 86.4 71.7998 85.7 75.0998 85.3C76.7998 85.1 78.0998 84 78.2998 82.2C79.7998 83 78.2998 84.1 78.5998 85ZM57.7998 75.9C57.3998 75.3 56.9998 75.4 56.6998 75.4C53.0998 75.3 49.4998 75.8 45.8998 76C43.1998 76.1 40.7998 77.2 38.2998 77.9C34.6998 78.8 31.3998 80.2 28.3998 82.4C27.2998 83.2 26.8998 84.6 27.2998 85.8C27.5998 86.7 28.4998 87.6 29.7998 86.5C29.8998 86.6 29.8998 86.7 29.9998 86.7C31.6998 87.5 33.3998 88.1 35.2998 88.1C36.0998 88.1 36.9998 88 37.7998 88.1C40.4998 88.5 43.2998 88.7 46.0998 89C46.7998 89.1 47.8998 89.2 48.6998 88.3C48.2998 88.2 48.0998 88.2 47.9998 88.2C44.2998 88.6 40.7998 87.4 37.0998 87.5C34.9998 87.6 33.1998 85.9 32.7998 84C32.5998 83 33.5998 81.2 34.6998 80.6C39.0998 78.4 43.8998 77.4 48.6998 76.7C51.3998 76.1 54.4998 76 57.7998 75.9ZM55.6998 92.9C57.0998 92.2 56.8998 90.8 56.4998 90.1C56.1998 89.6 54.5998 89.7 53.7998 90.1C53.2998 90.4 52.7998 91.8 53.3998 92.2C54.4998 93 53.3998 93.3 52.9998 94C56.3998 93.9 59.5998 93.8 62.5998 93.4C62.7998 92.7 61.4998 92.9 62.0998 92.1C62.5998 91.5 62.4998 91 61.9998 90.6C61.4998 90.2 61.9998 90.3 62.0998 90.2C62.5998 89.5 62.3998 89.2 61.5998 89.3C60.7998 89.4 59.9998 89.5 59.1998 89.6C58.7998 89.7 57.8998 89.4 57.9998 89.9C58.0998 90.6 57.4998 91.6 58.0998 92C59.3998 92.8 58.1998 92.9 57.8998 93.2C57.1998 93.9 56.4998 93.4 55.6998 92.9ZM79.2998 89C79.5998 88.6 78.8998 88.1 79.4998 88C79.9998 87.9 80.2998 88.4 80.3998 88.9C80.4998 89.5 80.6998 90.1 80.7998 90.8C80.8998 91.7 81.2998 91.9 82.1998 91.6C84.6998 91 85.2998 89.2 85.8998 87.1C86.1998 86 85.5998 86.1 85.0998 86.2C83.0998 86.5 81.2998 87.3 79.2998 87.5C78.2998 87.6 78.0998 88.4 77.9998 89.2C77.9998 89.6 78.1998 89.9 77.8998 90.3C77.4998 90.8 77.3998 91.5 77.8998 91.8C78.2998 92.1 79.0998 92.1 79.5998 91.8C80.0998 91.5 79.7998 90.9 79.6998 90.4C79.3998 89.9 79.2998 89.5 79.2998 89ZM33.6998 90C34.0998 89.4 33.5998 89.4 33.1998 89.3C31.6998 88.9 30.1998 88.5 28.6998 88.1C28.2998 88 27.6998 88 27.6998 88.3C27.6998 89.1 27.6998 90.4 28.0998 90.7C28.7998 91.1 29.4998 92.2 30.2998 91.8C31.2998 91.3 31.3998 91.7 31.5998 92.4C31.6998 92.9 32.0998 93.2 32.5998 93.1C32.8998 93 33.2998 93.2 33.1998 92.7C32.9998 91.8 33.6998 91 33.6998 90ZM74.4998 92.2C74.9998 91.9 75.9998 92.6 76.2998 91.5C76.4998 90.4 76.8998 89.2 76.5998 88.4C76.2998 87.8 74.8998 88.5 73.9998 88.7C73.6998 88.8 73.2998 88.6 72.9998 88.9C72.6998 89.1 72.4998 89.1 72.3998 89.5C71.7998 91.4 72.4998 92.3 74.4998 92.2ZM71.0998 90.5C71.1998 89.5 70.6998 88.8 69.6998 88.7C68.2998 88.6 67.1998 89.7 67.1998 91.2C67.1998 93.6 69.5998 91.2 70.0998 92.6C70.9998 92.1 71.0998 91.3 71.0998 90.5ZM51.9998 90.1C50.6998 89.9 49.5998 89.9 48.3998 90.4C48.6998 91.2 49.4998 90.6 49.8998 91.2C48.9998 91.3 48.2998 92.1 48.3998 92.7C48.5998 93.5 49.5998 93.4 50.4998 93.3C51.4998 93.2 51.9998 92.8 51.6998 91.8C51.6998 91.3 51.8998 90.8 51.9998 90.1ZM42.6998 94.4C43.6998 94.3 44.4998 94.1 45.1998 94.2C46.8998 94.6 46.8998 93.3 46.9998 92.4C47.1998 91 46.0998 91 45.1998 90.9C44.0998 90.8 43.6998 92 43.9998 92.3C45.0998 94 43.3998 93.7 42.6998 94.4ZM80.9998 85.7C83.7998 85.7 84.8998 85.1 85.3998 83.1C85.6998 82.1 84.9998 80.6 83.7998 80C83.7998 80.7 84.9998 80.7 84.5998 81.5C84.2998 82.1 83.5998 81.7 82.7998 81.3C84.9998 84.3 81.6998 84.3 80.9998 85.7ZM63.4998 93.4C64.7998 94 64.3998 92.3 65.1998 92.3C66.2998 92.3 65.9998 91.2 65.8998 90.8C65.4998 89.9 64.5998 90.3 63.9998 90.5C63.2998 90.7 63.2998 91.8 63.6998 92C64.9998 92.7 63.6998 92.9 63.4998 93.4ZM49.3998 88.6C51.2998 88.6 52.7998 88.6 54.2998 88.6C51.9998 88.1 50.8998 88.1 49.3998 88.6ZM66.1998 89.1C64.9998 89.1 64.0998 88.8 63.4998 89.9C64.4998 90.2 65.2998 90.2 66.1998 89.1Z" fill="#64A225"/>
<path d="M46.1997 23.1C44.6997 22.6 43.4997 22.8 42.2997 22.8C41.4997 22.8 41.0997 23.1 40.9997 23.8C40.6997 26.3 39.4997 28.5 39.4997 31.1C39.4997 32 39.6997 32.5 40.2997 32.9C42.2997 34.1 42.6997 36 42.8997 38C42.9997 38.9 42.2997 39.3 41.6997 39.7C41.0997 40 40.3997 40.4 39.7997 40.4C36.9997 40.5 37.4997 42.6 37.1997 44.3C37.0997 45.2 37.1997 46.2 37.0997 47.2C37.0997 47.6 36.6997 48.1 36.2997 48.1C35.5997 48.1 35.8997 47.4 35.8997 47.1C35.9997 45.4 36.1997 43.8 36.3997 42.1C36.3997 41.8 36.6997 41.2 36.0997 41.3C35.7997 41.3 35.2997 41.4 35.2997 42.1C35.0997 44.6 34.3997 47 34.5997 49.5C34.6997 50.1 34.5997 50.9 33.8997 50.9C33.2997 50.9 33.2997 50.1 33.2997 49.6C33.2997 47.3 33.7997 45.1 34.0997 42.8C34.2997 41.6 33.6997 41.7 33.0997 41.7C31.9997 41.7 30.9997 41.3 30.0997 40.7C29.7997 40.5 29.1997 40.3 29.4997 39.8C29.7997 39.3 30.2997 39.6 30.5997 39.7C31.3997 40.1 32.1997 40.1 32.9997 40.4C33.8997 40.7 34.2997 40.3 34.4997 39.6C34.9997 37.5 35.0997 35.2 35.7997 33.1C35.9997 32.6 35.7997 32.2 35.2997 31.9C34.9997 31.8 34.6997 31.6 34.4997 31.5C32.8997 30.7 31.7997 29.5 31.8997 27.7C31.9997 25.7 33.3997 24.2 35.2997 23.7C37.2997 23.2 38.1997 22.3 38.2997 20.2C38.2997 19.1 38.8997 18.1 38.8997 16.8C40.0997 17.6 39.6997 18.6 39.5997 19.5C39.4997 20.1 39.0997 20.7 39.1997 21.3C39.2997 21.7 38.8997 22.2 39.5997 22.3C40.1997 22.4 40.1997 21.8 40.2997 21.4C40.3997 21 40.3997 20.5 40.4997 20C40.4997 19.5 40.7997 19 41.2997 18.9C41.7997 18.9 42.0997 19.5 41.9997 20C41.5997 21.5 42.3997 21.7 43.5997 21.7C44.3997 21.6 45.4997 21.5 46.1997 23.1ZM36.0997 30.6C36.3997 29.2 36.6997 27.9 36.8997 26.6C36.9997 25.9 37.5997 25 36.9997 24.7C36.2997 24.3 35.4997 25 34.8997 25.4C34.5997 25.6 34.1997 25.9 33.9997 26.3C32.8997 27.6 33.0997 29 34.5997 29.9C34.9997 30 35.4997 30.3 36.0997 30.6ZM41.3997 37.5C41.3997 36.7 40.6997 35.1 40.1997 34.6C39.7997 34.2 39.3997 34.2 39.0997 34.5C38.7997 34.7 38.7997 35 38.8997 35.4C39.3997 36.6 39.2997 37 38.2997 37.9C37.8997 38.3 37.8997 38.9 38.2997 39.2C39.0997 39.8 41.3997 38.4 41.3997 37.5ZM39.8997 23.5C39.0997 23.7 38.4997 23.8 38.3997 24.5C38.1997 26.5 37.4997 28.4 37.4997 30.4C37.4997 30.8 37.2997 31.3 37.8997 31.4C38.2997 31.4 38.2997 30.9 38.3997 30.6C38.7997 28.3 39.0997 26 39.8997 23.5ZM36.8997 32.8C36.4997 35 36.1997 37.2 35.8997 39.3C35.7997 39.6 35.8997 39.8 36.1997 39.8C36.5997 39.8 36.5997 39.6 36.6997 39.2C36.9997 37.5 37.4997 35.8 37.7997 34.1C37.8997 33.6 37.8997 33 36.8997 32.8Z" fill="#64A225"/>
<path d="M71.5 81.2C72.5 80.9 73.4 81.5 73.7 79.9C73.9 80.9 74.1 81.5 74.3 82.4C72.9 82.3 71.5 82.1 70.3 83.2C70.2 83.3 69.9 83.3 69.7 83.2C67.6 82.3 65.4 82.9 63.3 83C61.8 83 60.7 83.6 59.7 84.6C57.9 86.5 55.3 86.9 53.1 85.7C50.9 84.5 48.8 85 46.6 85.7L46.5 85.8C45.7 86 44.6 86.6 44.3 85.7C44.1 85.1 45.4 85.1 46 84.8C47.1 84.3 48.3 84 49.5 83.6C48.5 83.1 47.8 83.7 47.1 83.7C46.6 83.7 46 83.8 45.9 83.2C45.8 82.6 46.4 82.4 46.8 82.4C47.5 82.3 48.3 81.8 48.7 82C50 82.5 49.3 80.4 50.3 80.9C50.9 81.2 51.3 81.9 52.2 81.8C55.1 81.7 57.9 81.1 60.7 80.8C61.3 80.7 61.4 80.1 61.9 79.9C63.5 79.2 65.2 79 66.9 79.1C68.5 79.2 70 79.9 71.7 79.9C72.1 79.9 72.8 79.7 72.8 80.5C72.8 81.1 72 80.6 71.5 81.2Z" fill="#64A225"/>
<path d="M31.3998 85C29.8998 85.5 28.8998 84.9 28.2998 83.2C29.4998 83.6 30.1998 84.9 31.3998 85Z" fill="#64A225"/>
</g>
<defs>
<clipPath id="clip0_6403_6671">
<rect width="78" height="94" fill="white" transform="translate(11 3)"/>
</clipPath>
</defs>
</svg>
