<svg width="100" height="100" viewBox="0 0 100 100" fill="none" xmlns="http://www.w3.org/2000/svg">
<g clip-path="url(#clip0_6403_6679)">
<path d="M79.4 67.2C81 67 81.8 66.4 82.9 66.6C86.3 67.1 88.9 70.4 89 74C89 75.7 88.7 77.4 89.1 79.2C89.3 80.2 88.6 81 87.9 81.6C87.3 82.1 86.7 82.7 86.5 83.4C86.5 83.5 86.4 83.7 86.3 83.8C85 84.6 83.8 85.8 82.4 86.3C80.6 87 78.8 88.1 77 88.5C75.4 88.9 74 90.1 72.2 89.6C71.8 89.5 71.5 89.8 71.2 90C70.8 90.3 70.2 90.5 69.8 90.4C67.5 89.6 65 90.3 62.9 89C62.6 88.8 62.4 88.9 62.1 89C61.1 89.5 60.1 89.6 59.1 88.9C58.7 88.6 58.4 88.8 58.1 88.9C57.8 89 57.3 89.2 57.1 89C55.8 88 54.3 88.6 52.9 88.3C52.1 88.1 51.3 87.8 50.4 88.1C50.2 88.2 49.7 88.1 49.6 88C49.1 86.7 48.1 87.3 47.3 87.3C46.8 87.3 43.9 86.4 43.2 86C43 85.9 42.9 85.6 42.7 85.6C40.7 85.9 38.6 85.1 36.6 85.7C35.5 86 34.6 86.7 33.6 87.3C32.5 88 31.7 89.2 30.7 90C29.7 90.8 29 91.8 28.2 92.7C27.5 93.5 27.7 94 28.5 94.4C29.3 94.7 29.9 95.4 30.6 95.9C31.3 96.3 32 96.6 32.6 96.9C32.6 97.9 31.5 97.4 31.2 98.1C30.8 98.9 29.8 98.7 29.2 98.2C27.2 96.3 24.7 95.1 22.4 93.8C21.1 93.1 19.8 92.2 18.7 91C19.6 90.4 20.5 90.5 21.4 91C21.9 91.3 22.4 91.6 22.9 91.8C23.6 92 24.2 92.7 24.9 92.5C25.8 92.3 25.3 91.1 25.8 90.7C27.1 89.7 27.2 87.5 29.3 87.3C29.5 87.3 29.8 87.1 29.8 87C29.8 85.3 31.1 85.2 32.3 85C32.5 85 32.7 84.8 32.8 84.6C34.7 82.4 37.1 82.4 39.7 82.9C40 82.9 40.3 83 40.5 82.9C42.3 82 43.9 82.9 45.5 83.4C47.6 84.1 49.7 84.8 52 84.8C52.7 84.8 53.4 84.9 54.1 85.2C54.9 85.6 55.8 85.7 56.6 85.4C57.3 85.2 57.9 85.1 58.4 85.6C58.9 86 59.4 86.2 60 85.8C60.2 85.7 60.5 85.7 60.6 85.8C62.6 87.5 65.1 86 67.2 86.7C68.5 87.1 69.8 87.2 71.1 86.9C71.7 86.8 72.2 86.8 72.6 86.3C72.8 86.1 73.2 85.9 73.4 86C74.7 86.4 75.6 85.7 76.7 85.3C78.7 84.6 80.5 83.7 82.3 82.5C83.2 81.9 84.2 81.4 85.1 80.6C84.2 79.8 83.3 80 82.4 80.2C77.9 80.8 74.8 77.6 75.8 73.2C75.9 72.5 76.1 71.9 75.4 71.5C74.8 71.2 74.1 71.2 73.6 71.7C70.6 74.4 66.8 75.3 63.2 76.6C57.9 78.4 52.5 78.6 47.1 78.1C42.9 77.7 38.8 76.6 34.9 74.9C32.3 73.8 29.8 72.6 27.6 70.8C25 68.5 22.3 66.2 20.9 62.9C20.5 61.9 19.8 61 19.3 60.1C19.2 59.9 18.9 59.6 18.9 59.4C18.4 56.1 17 53 17.8 49.6C18.2 47.8 17.9 45.8 19.2 44C18.2 44.1 17.1 44.1 16.2 44.3C15.1 44.5 14 44.5 13 44.4C11.2 44.2 10.3 42.9 10.8 41.1C12.8 34 16.2 28 22.5 23.7C25.3 21.8 27.7 19.5 30.5 17.5C32.3 16.2 34.3 15 36.2 13.7C39.1 11.8 42 9.8 44.9 7.8C46.9 6.5 48.8 5.1 51.1 4.3C51.6 4.1 52.2 3.9 52.7 3.6C55.4 1.8 58.3 1.9 61.2 2.5C62.8 2.8 63.1 3.6 62.2 5C60.6 7.7 59.1 10.5 56.7 12.7C55.9 13.5 55.3 14.5 54.6 15.4C54.1 16.1 53.5 16.8 52.9 17.3C49.3 20.2 46.2 23.5 42.7 26.5C41.4 27.6 40.1 28.7 38.5 30.1C41.2 29.9 43.3 29.4 45.5 29.3C50.1 29 54.6 29.5 59.1 30.8C62.4 31.7 65.5 33 68.4 34.6C73 37.2 76.8 40.7 79.2 45.4C80.8 48.5 82.1 51.8 81.8 55.3C81.7 57.3 81.3 59.4 81 61.4C80.4 63.4 80.5 65.2 79.4 67.2ZM38.2 62.7C37 61.9 36.7 60.7 36 59.7C35.4 59 35.2 58.2 35.5 57.3C36.8 52.8 43 51.6 45.9 54C47.5 55.4 47.3 57.7 48.5 59.3C48.6 59.4 48.4 59.6 48.4 59.7C47.8 62 46.3 63.6 44.3 64.6C43.7 64.9 43.1 65 42.4 64.7C41.7 64.4 41 64.3 40.4 63.9C39.1 63.3 38 63.9 37 64.5C36.3 64.9 36.4 65.4 37.1 65.7C37.4 65.8 37.6 66 37.9 66C43 67.3 48 68.7 53.3 67.9C58.2 67.2 62.8 66 67 63.4C68.3 62.6 69.7 61.7 70.9 60.8C72.3 59.8 73.3 58.5 73.6 56.8C73.8 55.7 74.1 54.7 74.3 53.7C74.6 52.3 75 50.9 74.4 49.5C73.5 47 72 44.9 69.9 43.3C68.7 42.4 67.2 41.6 66.4 40.5C64.9 38.5 62.9 37.7 60.8 36.8C58 35.7 55.1 35 52.1 34.7C49 34.4 45.7 34.8 42.7 33.8C42.3 33.6 41.7 33.8 41.2 33.8C40.1 33.8 39.1 34.6 38.1 34.5C36.3 34.3 34.7 35 33.1 35.4C28.8 36.6 25.9 39.4 24.2 43.4C23.1 45.9 22.3 48.5 22.8 51.3C23.3 54.5 24.6 57.1 27 59.3C28 60.2 28.5 61.5 29.9 62.1C31.7 62.8 33.4 63.7 35.2 64.6C35.6 63.3 36.9 63.4 38.2 62.7ZM58.5 6.7C57.9 6.6 57.5 6.8 57.2 7C55.2 8.3 53.1 9.4 51.2 10.7C49.4 11.9 47.9 13.5 45.9 14.3C44.9 14.7 44 15.3 43.1 15.9C41.9 16.8 40.6 17.9 39.3 18.6C38.3 19.1 37.4 19.6 36.8 20.5C36.2 21.3 35.3 21.9 34.4 22.3C33.5 22.7 32.8 23.2 32 23.8C29.4 25.7 26.8 27.6 24.4 29.8C23.3 30.8 22.5 32 21.3 32.7C18.3 34.6 16.4 37.5 14.2 40.1C13.9 40.5 13.7 41 13.6 41.5C13.3 42.9 13.5 43.3 14.8 43C16.2 42.8 17.6 42.5 19 42.2C19.9 42 20.6 41.6 21.3 40.8C23.8 37.8 26.7 35.3 30 33.3C32.3 31.9 34.7 30.7 36.8 28.9C39.6 26.5 42.4 24 45.4 21.8C49.2 19 52.4 15.5 55.4 11.8C56.5 10.2 57.9 8.7 58.5 6.7ZM39.5 32.1C40.4 32.7 41.3 32.8 42.3 32.8C44 32.8 45.6 32.3 47.2 32.5C49.8 32.8 52.3 33 54.9 33.4C58.3 33.9 61.5 35.1 64.4 36.7C66.4 37.8 68.3 39.2 70 40.7C72.8 43.2 75.3 45.9 76.2 49.8C77.2 53.8 75.9 58.6 72.8 61.3C71.5 62.4 69.8 63.1 68.6 64.2C65.6 66.7 61.9 67.2 58.5 68.6C57.1 69.2 55.5 69.5 53.9 69.6C49.4 70 45 69.2 40.7 68.4C36.3 67.6 32.6 65.4 28.7 63.4C27.7 62.9 26.6 62.1 25.9 61C25 59.6 24 58.5 23.2 57.3C20.5 53.4 20.1 49.3 22 44.9C22.5 43.8 22.9 42.7 23 41.3C21.4 42.6 21 44.2 20.6 45.8C19.8 48.2 18.8 50.7 19.7 53.3C21 57.3 23 60.8 26.2 63.4C29.9 66.3 34.1 68.3 38.7 69.4C40.6 69.9 42.5 70.3 44.4 70.7C45.7 71 46.9 71.3 48.2 71.3C51.6 71.3 54.9 71.1 58.3 70.6C60.1 70.3 61.8 70.1 63.5 69.5C68.2 67.7 72.6 65.2 76.1 61.5C77.3 60.2 78.2 58.6 78.4 56.8C78.6 55.2 78.6 53.7 78.7 52.1C79 48.1 77.3 44.9 74.6 42.4C71.3 39.3 67.3 37 63.2 35.1C62.2 34.6 61.1 34.6 60.2 34C59.1 33.3 57.9 32.8 56.5 33.1C56.1 33.2 55.7 33.2 55.5 32.9C55 32.1 54.2 32.2 53.4 32.1C50.6 31.6 47.8 31.8 45 31.8C43.3 31.6 41.4 31.4 39.5 32.1ZM71.7 70.2C70.5 68.4 70.5 68.3 69.1 69C63.4 71.9 57.8 72.6 52.5 73.1C51 73.2 49.5 73.2 48 73.1C44.9 73 41.8 72.5 38.8 71.6C35.5 70.6 32 69.7 29 67.9C27.7 67.1 26.6 66.1 25.1 65.8C34 77.1 59.2 80.6 71.7 70.2ZM57.4 5.1C56 4.7 54.8 5 53.7 5.5C47.3 8.3 41.5 12.1 35.7 16C31.6 18.7 27.7 21.8 23.8 24.9C20.1 27.8 16.6 31 14.6 35.5C14.4 35.9 13.9 36.3 14.5 36.9C15.4 35.9 16.2 34.7 17.2 33.8C20.7 30.7 24.2 27.6 28 24.9C29.4 23.9 30.9 23 32.1 21.8C34.4 19.7 37 17.8 39.7 16.3C40.8 15.7 41.8 15.1 42.8 14.4C46.5 12 49.8 9 53.9 7C55 6.4 56.2 5.7 57.4 5.1ZM46.4 58.7C46.4 58.6 46.4 58.4 46.3 58.2C45.7 56.3 44.3 55.3 42.7 54.4C41.5 53.7 40.3 54.3 39.2 54.9C36.7 56.2 36.2 58 37.7 60.3C38.4 61.4 39.4 61.9 40.5 62.5C43.4 64.1 46.2 62.6 46.4 58.7ZM81.4 78.5C83.7 78.6 84 78.4 84.6 76.2C84.9 75.2 85.1 74.3 86.4 74.1C87.3 73.9 87.6 73.2 87.4 72.3C87.2 70.9 84 68.6 82.6 68.8C81.8 68.9 81.7 69.7 82.1 70.1C82.9 70.8 82.3 71.4 82 71.9C81.3 73.2 80.2 73.8 78.7 73.8C77.4 73.8 77.1 74.4 77.4 75.6C77.6 77.3 79.1 78.4 81.4 78.5ZM76.5 63.7C76.4 63.8 76.1 63.8 76 63.9C74.8 65 73.5 66.1 72.4 67.2C72 67.6 72.2 68.2 72.7 68.5C73.3 68.8 73.9 69.1 74.7 68.8C76.4 68.3 77.3 67.1 78.1 65.7C78.7 64.7 77.8 63.6 76.5 63.7ZM78.9 72C79.5 71.9 80.1 71.6 80.4 71C80.6 70.5 79.5 69.2 78.8 69.1C78.1 69 77 69.7 77 70.3C77 70.9 78.2 71.9 78.9 72ZM60.5 88C60.8 88 61.1 87.9 61.1 87.6C61.2 87.2 60.9 87 60.5 86.9C60.2 86.9 60 87.1 60 87.4C60 87.8 60.2 88 60.5 88ZM85.9 77.2C85.9 77.6 86.2 77.6 86.5 77.6C86.9 77.6 87.1 77.3 87 76.9C86.9 76.6 86.8 76.4 86.5 76.4C86.1 76.5 86 76.9 85.9 77.2ZM44.6 84.3C44.2 84.3 44 84.5 43.9 84.9C43.9 85.1 44.1 85.3 44.3 85.3C44.7 85.3 44.9 85.1 45 84.7C45.1 84.5 44.9 84.4 44.6 84.3ZM54.2 86.9C54.2 86.6 54 86.5 53.8 86.4C53.6 86.3 53.5 86.4 53.5 86.5C53.5 86.7 53.6 86.9 53.9 86.9C54 87.1 54.1 87 54.2 86.9ZM51 86.1C50.8 86 50.7 85.8 50.5 85.8C50.3 85.8 50.1 86 50.2 86.2C50.3 86.3 50.5 86.4 50.7 86.4C50.8 86.5 50.9 86.3 51 86.1ZM34.2 85.4C34.5 85.4 34.7 85.3 34.8 85C34.9 84.9 34.9 84.7 34.7 84.7C34.4 84.6 34.2 84.7 34 84.9C34 85.1 34 85.3 34.2 85.4Z" fill="#64A225"/>
<path d="M57.9998 50.7C55.5998 52 53.4998 50.4 51.2998 50.9C52.2998 51.9 53.5998 52.1 54.6998 52.7C56.5998 53.7 58.5998 54.5 60.4998 55.4C60.8998 55.6 61.2998 55.7 61.5998 56.1C61.6998 56.3 61.8998 56.5 61.6998 56.7C61.5998 56.8 61.3998 57 61.1998 57C60.7998 57.1 60.5998 56.8 60.2998 56.6C56.8998 54.7 53.2998 53.1 49.5998 51.7C48.8998 51.4 48.1998 51.5 47.4998 51.5C46.1998 51.5 45.8998 51 46.2998 49.9C46.8998 48.2 47.6998 47.9 49.1998 49.2C49.6998 49.6 50.1998 49.7 50.7998 49.7C52.3998 49.8 54.0998 50 55.6998 50.1C56.2998 50.1 56.9998 49.9 57.9998 50.7Z" fill="#64A225"/>
<path d="M68.9999 43.6C66.8999 44.8 64.9999 46.3 62.6999 46.7C62.3999 46.8 61.8999 46.8 61.7999 46.3C61.6999 46 61.9999 45.8 62.2999 45.7C63.6999 45.1 65.1999 44.6 66.2999 43.4C66.8999 42.8 67.7999 43 68.9999 43.6Z" fill="#64A225"/>
<path d="M27.5 41.2C29.6 40.9 30.4 41.1 33.7 43.2C33.3 43.8 32.7 44.4 32 44C30.7 43.1 29.2 42.9 27.9 42.1C27.7 42 27.5 41.8 27.5 41.2Z" fill="#64A225"/>
<path d="M64.7002 57.1C66.7002 57.5 69.1002 57.1 70.6002 59.3C68.2002 59.4 65.6002 58.5 64.7002 57.1Z" fill="#64A225"/>
<path d="M27.3002 48.3C28.5002 48.3 29.7002 48.2 30.8002 48.8C31.1002 49 31.5002 49.2 31.3002 49.6C31.1002 50 30.7002 49.9 30.4002 49.8C29.1002 49.3 27.8002 49.2 26.4002 49.6C26.3002 49.6 26.3002 49.6 26.2002 49.6C25.6002 49.5 24.7002 49.8 24.7002 48.9C24.7002 47.8 25.5002 48.3 26.1002 48.3C26.6002 48.3 27.0002 48.3 27.3002 48.3Z" fill="#64A225"/>
<path d="M55.9005 42.2C55.5005 42 55.5005 41.8 55.6005 41.5C55.9005 40.5 58.8005 38.1 59.7005 38.1C59.9005 38.1 60.1005 38.2 60.2005 38.4C60.3005 38.6 60.2005 38.8 60.0005 39C58.7005 39.9 57.6005 41 56.4005 42C56.2005 42 56.0005 42.1 55.9005 42.2Z" fill="#64A225"/>
<path d="M40.7 40.4C39.4 39.4 38.1 38.4 37.3 37C37.1 36.7 37 36.3 37.4 36.1C37.7 35.9 38 36 38.2 36.3C39.4 37.3 40.4 38.6 40.7 40.4Z" fill="#64A225"/>
<path d="M57.7002 60.4C57.8002 60.5 58.1002 60.5 58.2002 60.6C59.2002 61.8 60.2002 63 61.2002 64.2C61.4002 64.4 61.4002 64.8 61.1002 64.9C60.9002 65 60.6002 65 60.5002 64.9C59.3002 63.8 58.1002 62.6 57.1002 61.3C57.0002 61 57.1002 60.5 57.7002 60.4Z" fill="#64A225"/>
<path d="M50.0004 35.8C50.4004 35.9 50.5004 36.2 50.4004 36.4C49.8004 37.6 49.2004 38.8 48.5004 40C48.3004 40.3 47.7004 40.7 47.2004 40.2C46.8004 39.8 47.2004 39.4 47.4004 39C48.0004 38.1 48.6004 37.2 49.2004 36.3C49.3004 36 49.6004 35.8 50.0004 35.8Z" fill="#64A225"/>
<path d="M53.7005 66.6C52.4005 67.2 51.8005 66.7 51.2005 66.1C50.8005 65.7 50.6005 65 49.9005 64.7C49.1005 64.3 49.5005 63.7 49.8005 63.3C50.3005 62.7 50.7005 63.2 50.9005 63.6C51.7005 64.8 52.5005 65.7 53.7005 66.6Z" fill="#64A225"/>
<path d="M30.3998 56.5C30.6998 56.5 31.0998 56.5 31.5998 56.5C31.9998 56.5 32.2998 56.7 32.2998 57.1C32.2998 57.6 31.8998 57.5 31.4998 57.5C30.4998 57.4 29.6998 57.7 28.7998 58C28.3998 58.1 27.9998 58.3 27.4998 58.2C27.0998 58.2 26.7998 58 26.7998 57.6C26.7998 57.3 26.9998 57.1 27.2998 57C28.2998 56.7 29.2998 56.6 30.3998 56.5Z" fill="#64A225"/>
<path d="M72.6 50.2C71 50.7 69.4001 50.6 67.8001 50.3C67.4001 50.2 67.1 50 67.2 49.6C67.2 49.1 67.6 49.1 68 49.1C69.5 49.5 71.2 48.9 72.6 50.2Z" fill="#64A225"/>
<path d="M42.6001 58.7C42.6001 59.3 42.2001 59.7 41.5001 59.7C40.9001 59.7 40.4001 59.4 40.5001 58.7C40.6001 58.1 40.9001 57.6 41.6001 57.6C42.3001 57.5 42.6001 57.9 42.6001 58.7Z" fill="#64A225"/>
</g>
<defs>
<clipPath id="clip0_6403_6679">
<rect width="80" height="97" fill="white" transform="translate(10 2)"/>
</clipPath>
</defs>
</svg>
